<?xml version="1.0" encoding="UTF-8"?>
<svg width="178px" height="47px" viewBox="0 0 178 47" version="1.1" xmlns="http://www.w3.org/2000/svg" xmlns:xlink="http://www.w3.org/1999/xlink">
    <!-- Generator: Sketch 58 (84663) - https://sketch.com -->
    <title>Bold Copy 3</title>
    <desc>Created with Sketch.</desc>
    <g id="Desktop" stroke="none" stroke-width="1" fill="none" fill-rule="evenodd">
        <g id="Main-Copy-3" transform="translate(-663.000000, -3189.000000)" fill-rule="nonzero">
            <g id="Bold-Copy-3" transform="translate(663.000000, 3189.000000)">
                <path d="M41.2316384,21.9769086 C41.2316384,20.830396 40.7709772,19.7308415 39.950995,18.9201346 C39.1310128,18.1094278 38.0188783,17.6539774 36.8592484,17.6539774 L25.821587,17.6539774 C25.6815433,17.6536892 25.5501132,17.5870953 25.4680935,17.4748668 C25.3860738,17.3626382 25.3633904,17.218357 25.4070845,17.0868088 C26.3726409,14.6673944 26.6860252,12.0415051 26.3165416,9.46634572 C25.2881555,5.84372937 23.1089563,4.79758002 21.4037242,5.03101831 C19.6712005,5.32246095 18.4263765,6.83961255 18.4952103,8.57582189 C18.4952103,13.3241295 14.771683,18.511647 11.4399218,20.7855088 C11.2031275,20.9470798 11.0621469,21.2134717 11.0621469,21.4979278 L11.0621469,38.9902366 C11.0621469,39.4044659 11.3591379,39.7605567 11.7704745,39.8392603 C12.3948518,39.9585732 12.9615135,40.0726986 13.4966941,40.1850948 C15.8500789,40.7394368 18.2621895,41.0128674 20.6814053,40.999535 L32.0496194,40.999535 C35.4723263,40.999535 35.9847704,39.0974453 35.9847704,37.9734832 C35.9851089,37.3773123 35.8462517,36.7891103 35.5790126,36.2546858 C37.5015111,35.2916984 38.2815645,32.9780094 37.3279686,31.0671683 C38.6494994,30.4033873 39.4821815,29.0622436 39.4826824,27.5967192 C39.4838244,26.9489499 39.3195985,26.311372 39.0052174,25.7430463 C40.3805622,24.9770588 41.2316384,23.5376002 41.2316384,21.9769086 L41.2316384,21.9769086 Z" id="Shape" fill="#FFFFFF"></path>
                <path d="M8.04519774,21.6923077 C8.04519774,20.757672 7.35911056,20 6.51277912,20 L1.53241862,20 C0.686087185,20 0,20.757672 0,21.6923077 L0,40.3076923 C0,41.242328 0.686087185,42 1.53241862,42 L6.51277912,42 C7.35911056,42 8.04519774,41.242328 8.04519774,40.3076923 L8.04519774,21.6923077 Z M6.03389831,37.5 C6.03389831,38.3284271 5.35853123,39 4.52542373,39 C3.69231622,39 3.01694915,38.3284271 3.01694915,37.5 C3.01694915,36.6715729 3.69231622,36 4.52542373,36 C5.35853123,36 6.03389831,36.6715729 6.03389831,37.5 Z" id="Shape" fill="#4B61EB"></path>
                <path d="M72.2250847,1.2 L54.6890847,29.744 L54.6890847,37.168 L76.9610847,37.168 L76.9610847,46 L85.4090847,46 L85.4090847,37.168 L92.7050847,37.168 L92.7050847,29.488 L85.4090847,29.488 L85.4090847,1.2 L72.2250847,1.2 Z M76.1930847,8.496 L76.9610847,8.496 L76.9610847,29.488 L63.5210847,29.488 L76.1930847,8.496 Z M95.0090847,18.352 L95.0090847,28.848 C95.0090847,40.624 101.921085,46.896 112.161085,46.896 C122.401085,46.896 129.313085,40.624 129.313085,28.848 L129.313085,18.352 C129.313085,6.96 122.401085,0.304 112.161085,0.304 C101.921085,0.304 95.0090847,6.96 95.0090847,18.352 Z M103.457085,17.968 C103.457085,12.016 106.657085,7.856 112.161085,7.856 C117.473085,7.856 120.865085,11.76 120.865085,17.968 L120.865085,29.232 C120.865085,35.312 118.177085,39.344 112.161085,39.344 C106.337085,39.344 103.457085,35.568 103.457085,29.232 L103.457085,17.968 Z M157.473085,16.432 L161.569085,19.504 L174.561085,5.04 L167.969085,0.112 L157.473085,16.432 Z M133.537085,10.544 L133.537085,11.76 C133.537085,18.032 137.441085,21.808 144.033085,21.808 C150.625085,21.808 154.529085,18.032 154.529085,11.76 L154.529085,10.544 C154.529085,4.272 150.433085,0.432 144.033085,0.432 C137.441085,0.432 133.537085,4.272 133.537085,10.544 Z M140.193085,10.224 C140.193085,7.6 141.473085,5.936 144.033085,5.936 C146.593085,5.936 147.873085,7.6 147.873085,10.224 L147.873085,12.016 C147.873085,14.64 146.593085,16.304 144.033085,16.304 C141.473085,16.304 140.193085,14.64 140.193085,12.016 L140.193085,10.224 Z M156.385085,35.504 L156.385085,36.72 C156.385085,42.992 160.289085,46.768 166.881085,46.768 C173.473085,46.768 177.377085,42.992 177.377085,36.72 L177.377085,35.504 C177.377085,29.232 173.281085,25.392 166.881085,25.392 C160.289085,25.392 156.385085,29.232 156.385085,35.504 Z M153.121085,30.64 L149.025085,27.568 L136.033085,42.032 L142.625085,46.96 L153.121085,30.64 Z M163.041085,35.184 C163.041085,32.56 164.321085,30.896 166.881085,30.896 C169.441085,30.896 170.721085,32.56 170.721085,35.184 L170.721085,36.976 C170.721085,39.6 169.441085,41.264 166.881085,41.264 C164.321085,41.264 163.041085,39.6 163.041085,36.976 L163.041085,35.184 Z" id="40%" fill="#FFFFFF"></path>
            </g>
        </g>
    </g>
</svg>