<?xml version="1.0" encoding="UTF-8"?>
<svg width="178px" height="48px" viewBox="0 0 178 48" version="1.1" xmlns="http://www.w3.org/2000/svg" xmlns:xlink="http://www.w3.org/1999/xlink">
    <!-- Generator: Sketch 58 (84663) - https://sketch.com -->
    <title>4CSEA</title>
    <desc>Created with Sketch.</desc>
    <g id="Desktop" stroke="none" stroke-width="1" fill="none" fill-rule="evenodd">
        <g id="Main-Copy-3" transform="translate(-663.000000, -3322.000000)">
            <g id="4CSEA" transform="translate(663.000000, 3322.000000)">
                <rect id="Rectangle" fill="#0B0B0B" x="0" y="0" width="178" height="48"></rect>
                <path d="M34.276899,27.968 L33.1826474,26.834 C32.8058352,26.4436181 32.1950225,26.4436181 31.8182103,26.834 L26.3681814,32.482 C25.991483,32.8724999 25.991483,33.5055001 26.3681814,33.896 L27.4682227,35.036 C27.6950659,35.2782218 27.7886883,35.622692 27.7171794,35.952 C27.119055,38.8926954 27.8304436,41.956183 29.6540668,44.2929138 C31.4776901,46.6296447 34.2196777,47.9911996 37.1196371,48 C38.1632065,47.9997768 39.1999439,47.8255503 40.1901031,47.484 C40.508867,47.3765935 40.7510111,47.1054523 40.8297114,46.7677976 C40.9084118,46.4301428 40.8123925,46.0743526 40.5760825,45.828 L35.8497649,40.93 C35.6689067,40.7420985 35.5675426,40.4873977 35.568,40.222 L35.568,37.4 C35.568,36.8477153 36.0000221,36.4 36.5329485,36.4 L39.2541031,36.4 C39.5095297,36.4000562 39.7545147,36.5050621 39.9353567,36.692 L44.6771134,41.6 C44.9129698,41.8443465 45.2538562,41.9451602 45.5786279,41.8666139 C45.9033995,41.7880676 46.1660122,41.541297 46.2731381,41.214 C47.3963362,37.8135284 46.6691692,34.0498499 44.3692186,31.3596741 C42.0692679,28.6694982 38.5515417,27.4680659 35.1588619,28.214 C34.8436682,28.2905072 34.5124565,28.1981245 34.276899,27.968 Z" id="Shape" fill="#4B61EB" fill-rule="nonzero"></path>
                <path d="M20.9123629,14.116 L19.8123216,12.978 C19.5842532,12.73653 19.4910763,12.3910207 19.5652948,12.062 C20.2851984,8.54672476 19.126639,4.90171795 16.5317438,2.51798013 C13.9368486,0.134242315 10.3060111,-0.620414648 7.02482474,0.542 C6.70838226,0.653803232 6.47033185,0.927389575 6.39564328,1.26510506 C6.32095471,1.60282055 6.42027181,1.95653746 6.65814433,2.2 L11.3979711,7.114 C11.5769424,7.30206239 11.6768482,7.55586665 11.6758763,7.82 L11.6758763,10.648 C11.6758763,11.2002847 11.2438542,11.648 10.7109278,11.648 L7.9878433,11.648 C7.7314709,11.6479437 7.48565871,11.5421613 7.30465979,11.354 L2.58027216,6.458 C2.34255463,6.2131061 1.99923536,6.11359891 1.67341595,6.19515803 C1.34759653,6.27671714 1.08595924,6.52765706 0.982317526,6.858 C-0.106424054,10.2518153 0.639314998,13.9898964 2.93740954,16.6580668 C5.23550409,19.3262373 8.73501968,20.5170495 12.112033,19.78 C12.429521,19.7030854 12.7629197,19.799647 12.9959258,20.036 L14.0978969,21.178 C14.4747091,21.5683819 15.0855218,21.5683819 15.462334,21.178 L20.9123629,15.532 C21.0938537,15.3443915 21.1958527,15.0896545 21.1958527,14.824 C21.1958527,14.5583455 21.0938537,14.3036085 20.9123629,14.116 Z" id="Shape" fill="#4B61EB" fill-rule="nonzero"></path>
                <path d="M34.2865485,20.036 C34.5185768,19.7993145 34.8516082,19.7026483 35.1685113,19.78 C38.5476347,20.5193877 42.050186,19.3281296 44.3493951,16.6574756 C46.6486042,13.9868215 47.3928291,10.2452225 46.3001567,6.85 C46.196515,6.51965706 45.9348777,6.26871714 45.6090583,6.18715803 C45.2832389,6.10559891 44.9399196,6.2051061 44.7022021,6.45 L39.9758845,11.354 C39.7948856,11.5421613 39.5490734,11.6479437 39.292701,11.648 L36.5715464,11.648 C36.0386201,11.648 35.6065979,11.2002847 35.6065979,10.648 L35.6065979,7.822 C35.6061406,7.55660227 35.7075046,7.30190147 35.8883629,7.114 L40.6243299,2.2 C40.8601116,1.95557622 40.9573917,1.60230718 40.8815986,1.26573823 C40.8058054,0.92916928 40.5676846,0.657017253 40.2518598,0.546 C36.9700982,-0.619696185 33.3369856,0.133548415 30.7405643,2.51795426 C28.144143,4.90236011 26.9855883,8.54951057 27.7075299,12.066 C27.7795378,12.3949678 27.6866548,12.7393875 27.4605031,12.982 L12.9862763,27.982 C12.7532702,28.218353 12.4198715,28.3149146 12.1023835,28.238 C8.70944714,27.490711 5.19083972,28.6917301 2.89054262,31.3823113 C0.59024552,34.0728924 -0.136419586,37.8374277 0.988107216,41.238 C1.09727178,41.5704232 1.36668308,41.8191516 1.69788344,41.8932863 C2.0290838,41.9674209 2.37353696,41.8560976 2.60536082,41.6 L7.34904742,36.682 C7.53097663,36.4992114 7.77498471,36.397919 8.02837113,36.4 L10.7572454,36.4 C11.2901717,36.4 11.7221938,36.8477153 11.7221938,37.4 L11.7221938,40.226 C11.7221395,40.4916851 11.6200649,40.7464263 11.438499,40.934 L6.71218144,45.828 C6.47587146,46.0743526 6.37985215,46.4301428 6.45855249,46.7677976 C6.53725283,47.1054523 6.77939691,47.3765935 7.09816082,47.484 C8.08577428,47.8250756 9.11989805,47.9993009 10.1609072,48 C13.0612051,47.9918001 15.8037366,46.6305001 17.627798,44.2936875 C19.4518594,41.9568748 20.1634871,38.8930373 19.5652948,35.952 C19.4910763,35.6229793 19.5842532,35.27747 19.8123216,35.036 L34.2865485,20.036 Z" id="Shape" fill="#FFFFFF" fill-rule="nonzero"></path>
                <path d="M81.536,2 L64,30.544 L64,37.968 L86.272,37.968 L86.272,46.8 L94.72,46.8 L94.72,37.968 L102.016,37.968 L102.016,30.288 L94.72,30.288 L94.72,2 L81.536,2 Z M85.504,9.296 L86.272,9.296 L86.272,30.288 L72.832,30.288 L85.504,9.296 Z M108.864,20.752 L118.464,20.752 L118.464,11.024 L126.016,11.024 L126.016,20.752 L135.616,20.752 L135.616,28.048 L126.016,28.048 L126.016,37.776 L118.464,37.776 L118.464,28.048 L108.864,28.048 L108.864,20.752 Z" id="4+" fill="#FFFFFF" fill-rule="nonzero"></path>
            </g>
        </g>
    </g>
</svg>