<?xml version="1.0" encoding="UTF-8"?>
<svg width="178px" height="48px" viewBox="0 0 178 48" version="1.1" xmlns="http://www.w3.org/2000/svg" xmlns:xlink="http://www.w3.org/1999/xlink">
    <!-- Generator: Sketch 58 (84663) - https://sketch.com -->
    <title>840CSEA</title>
    <desc>Created with Sketch.</desc>
    <g id="Desktop" stroke="none" stroke-width="1" fill="none" fill-rule="evenodd">
        <g id="Main-Copy-3" transform="translate(-663.000000, -3387.000000)">
            <g id="840CSEA" transform="translate(663.000000, 3387.000000)">
                <rect id="Rectangle-Copy-3" fill="#0B0B0B" x="0" y="0" width="178" height="48"></rect>
                <path d="M36,15 C36,6.71572875 29.2842712,0 21,0 C12.7157288,0 6,6.71572875 6,15 C6,23.2842712 12.7157288,30 21,30 C29.2797033,29.9889824 35.9889824,23.2797033 36,15 L36,15 Z M21,24.2857143 C15.8742522,24.2794173 11.7205827,20.1257478 11.7142857,15 C11.724521,13.533981 12.0860518,12.0917769 12.7685714,10.7942857 C16.2837106,13.5205505 20.605834,15.0001239 25.0542857,15 C26.7989967,14.9933328 28.5354433,14.7599497 30.22,14.3057143 C30.2371429,14.54 30.2914286,14.7628571 30.2914286,15 C30.2851259,20.1279763 26.1279793,24.2825664 21,24.2857143 L21,24.2857143 Z" id="Shape" fill="#FFFFFF" fill-rule="nonzero"></path>
                <path d="M19.2333515,34.0859913 C19.3018418,33.7571931 19.5963925,33.5206131 19.9388543,33.5193388 L22.0611457,33.5193388 C22.4032089,33.5216964 22.6971524,33.7577887 22.7666485,34.0859913 L25.5626373,46.416348 C25.6298916,46.7447066 25.9234728,46.9814784 26.2652487,46.9830004 L39.8317216,47 C40.5460052,47 41.2144328,46.6551525 41.6188743,46.0782403 C42.0233159,45.5013281 42.1118949,44.7662574 41.8557052,44.1129059 C38.572561,35.6186179 30.2695056,30 21,30 C11.7304944,30 3.42743903,35.6186179 0.14429481,44.1129059 C-0.111894931,44.7662574 -0.0233158968,45.5013281 0.38112566,46.0782403 C0.785567216,46.6551525 1.45399476,47 2.1682784,47 L15.7318599,46.9830004 C16.0743216,46.9817261 16.3688723,46.7451461 16.4373627,46.416348 L19.2333515,34.0859913 Z" id="Shape" fill="#4B61EB" fill-rule="nonzero"></path>
                <path d="M56.3530847,13.528 C56.3530847,18.968 59.7450847,21.912 63.5210847,23.512 L63.5210847,24.28 C59.8090847,25.368 55.7130847,28.888 55.7130847,34.904 C55.7130847,42.712 62.7530847,47.896 72.4810847,47.896 C82.2090847,47.896 89.2490847,42.712 89.2490847,34.904 C89.2490847,28.888 85.1530847,25.368 81.4410847,24.28 L81.4410847,23.512 C85.2170847,21.912 88.6090847,18.968 88.6090847,13.528 C88.6090847,6.488 82.0810847,1.304 72.4810847,1.304 C62.8810847,1.304 56.3530847,6.488 56.3530847,13.528 Z M64.8010847,14.552 C64.8010847,10.968 67.9370847,8.856 72.4810847,8.856 C77.0250847,8.856 80.1610847,10.968 80.1610847,14.552 C80.1610847,18.136 77.0250847,20.248 72.4810847,20.248 C67.9370847,20.248 64.8010847,18.136 64.8010847,14.552 Z M64.1610847,34.072 C64.1610847,30.36 67.1050847,27.8 72.4810847,27.8 C77.8570847,27.8 80.8010847,30.36 80.8010847,34.072 C80.8010847,37.784 77.8570847,40.344 72.4810847,40.344 C67.1050847,40.344 64.1610847,37.784 64.1610847,34.072 Z M108.577085,2.2 L91.0410847,30.744 L91.0410847,38.168 L113.313085,38.168 L113.313085,47 L121.761085,47 L121.761085,38.168 L129.057085,38.168 L129.057085,30.488 L121.761085,30.488 L121.761085,2.2 L108.577085,2.2 Z M112.545085,9.496 L113.313085,9.496 L113.313085,30.488 L99.8730847,30.488 L112.545085,9.496 Z M131.361085,19.352 L131.361085,29.848 C131.361085,41.624 138.273085,47.896 148.513085,47.896 C158.753085,47.896 165.665085,41.624 165.665085,29.848 L165.665085,19.352 C165.665085,7.96 158.753085,1.304 148.513085,1.304 C138.273085,1.304 131.361085,7.96 131.361085,19.352 Z M139.809085,18.968 C139.809085,13.016 143.009085,8.856 148.513085,8.856 C153.825085,8.856 157.217085,12.76 157.217085,18.968 L157.217085,30.232 C157.217085,36.312 154.529085,40.344 148.513085,40.344 C142.689085,40.344 139.809085,36.568 139.809085,30.232 L139.809085,18.968 Z" id="840" fill="#FFFFFF" fill-rule="nonzero"></path>
            </g>
        </g>
    </g>
</svg>