<?xml version="1.0" encoding="UTF-8"?>
<svg width="84px" height="84px" viewBox="0 0 84 84" version="1.1" xmlns="http://www.w3.org/2000/svg" xmlns:xlink="http://www.w3.org/1999/xlink">
    <!-- Generator: Sketch 58 (84663) - https://sketch.com -->
    <title>Group</title>
    <desc>Created with Sketch.</desc>
    <g id="Desktop" stroke="none" stroke-width="1" fill="none" fill-rule="evenodd">
        <g id="Main-Copy-3" transform="translate(-259.000000, -3158.000000)" fill-rule="nonzero">
            <g id="Group" transform="translate(259.000000, 3158.000000)">
                <g id="Bold">
                    <path d="M14.2420213,75.9574468 C14.766398,75.9574468 15.1914894,75.2803782 15.1914894,74.4451718 L15.1914894,62.3469722 C15.1914894,59.0061466 13.491124,56.2978723 11.393617,56.2978723 L3.79787234,56.2978723 C1.70036537,56.2978723 0,59.0061466 0,62.3469722 L0,74.4451718 C0,75.2803782 0.425091341,75.9574468 0.949468085,75.9574468 L14.2420213,75.9574468 Z" id="Shape" fill="#FFFFFF"></path>
                    <path d="M37.4760638,75.9574468 C38.0004406,75.9574468 38.4255319,75.5209894 38.4255319,74.9825919 L38.4255319,47.6866538 C38.4255319,45.5330637 36.7251665,43.787234 34.6276596,43.787234 L27.0319149,43.787234 C24.9344079,43.787234 23.2340426,45.5330637 23.2340426,47.6866538 L23.2340426,74.9825919 C23.2340426,75.5209894 23.6591339,75.9574468 24.1835106,75.9574468 L37.4760638,75.9574468 Z" id="Shape" fill="#FFFFFF"></path>
                    <path d="M59.8164894,75.9574468 C60.3408661,75.9574468 60.7659574,75.4933471 60.7659574,74.9208511 L60.7659574,54.1889362 C60.7659574,51.8989521 59.0655921,50.0425532 56.9680851,50.0425532 L49.3723404,50.0425532 C47.2748335,50.0425532 45.5744681,51.8989521 45.5744681,54.1889362 L45.5744681,74.9208511 C45.5744681,75.4933471 45.9995594,75.9574468 46.5239362,75.9574468 L59.8164894,75.9574468 Z" id="Shape" fill="#FFFFFF"></path>
                    <path d="M83.0505319,75.9574468 C83.5749087,75.9574468 84,75.5196169 84,74.9795263 L84,28.0393416 C84,25.8789793 82.2996346,24.1276596 80.2021277,24.1276596 L72.606383,24.1276596 C70.508876,24.1276596 68.8085106,25.8789793 68.8085106,28.0393416 L68.8085106,74.9795263 C68.8085106,75.5196169 69.233602,75.9574468 69.7579787,75.9574468 L83.0505319,75.9574468 Z" id="Shape" fill="#FFFFFF"></path>
                    <path d="M8.1177523,49.1489362 C12.2926062,49.1489362 15.676994,45.889165 15.676994,41.8680335 C15.6685051,41.1255436 15.5410152,40.3887699 15.2990319,39.6837627 L27.2690911,30.0729713 C30.3674832,31.7161732 34.2403331,31.0140808 36.5064844,28.3983637 L45.9555365,31.4345001 C46.3519121,35.2497353 49.7523776,38.115068 53.7310026,37.9863377 C57.7096276,37.8576074 60.9027865,34.7789348 61.032444,30.9466796 C61.0249749,29.7881962 60.7253481,28.6488113 60.1593515,27.626588 L72.5829652,13.6654572 C75.5742226,15.2012873 79.2619742,14.6246795 81.5952173,12.2563236 C83.9284604,9.88796769 84.3330327,6.31066658 82.5839247,3.51399404 C80.8348167,0.717321494 77.3624474,-0.61051975 74.0980311,0.268970648 C70.8336147,1.14846105 68.580456,4.01885886 68.5916856,7.283746 C68.6015665,7.98956822 68.7200222,8.69008094 68.9431904,9.36244371 L55.8543634,24.0735075 C52.9542008,23.0780187 49.7173564,23.9415276 47.7621952,26.2322951 L38.3131431,23.1997992 C38.1507827,20.3839481 36.3106695,17.913213 33.5934279,16.8625991 C30.8761864,15.8119852 27.7731564,16.3714675 25.6344516,18.2976181 C23.4957468,20.2237686 22.7080942,23.168295 23.6141977,25.8500477 L11.6554774,35.475401 C10.5709078,34.9014473 9.35520679,34.5962029 8.1177523,34.5871309 C3.94289841,34.5871309 0.558510638,37.846902 0.558510638,41.8680335 C0.558510638,45.889165 3.94289841,49.1489362 8.1177523,49.1489362 Z" id="Shape" fill="#4B61EB"></path>
                    <path d="M81.6136364,79.5319149 L2.86363636,79.5319149 C0.899562459,79.5583355 0.0306942467,79.9737979 0,81.6644101 C0,83.366087 0.648071634,83.5617369 2.625,83.5617369 L81.375,83.5617369 C83.3519284,83.5617369 84,83.366087 84,81.6644101 C83.971171,79.9731186 83.5784995,79.55673 81.6136364,79.5319149 Z" id="Shape" fill="#4B61EB"></path>
                </g>
            </g>
        </g>
    </g>
</svg>