<?xml version="1.0" encoding="UTF-8"?>
<svg width="63px" height="80px" viewBox="0 0 63 80" version="1.1" xmlns="http://www.w3.org/2000/svg" xmlns:xlink="http://www.w3.org/1999/xlink">
    <!-- Generator: Sketch 57.1 (83088) - https://sketch.com -->
    <title>Bold</title>
    <desc>Created with Sketch.</desc>
    <g id="Desktop" stroke="none" stroke-width="1" fill="none" fill-rule="evenodd">
        <g id="ArtboardX" transform="translate(-437.000000, -427.000000)">
            <g id="Group-2-Copy-4" transform="translate(148.000000, 91.000000)">
                <g id="Bold" transform="translate(283.000000, 333.000000)">
                    <rect id="Rectangle-Copy" x="0" y="0" width="84" height="84"></rect>
                    <path d="M10.2,83 C12.5195959,83 14.4,81.1238599 14.4,78.8095238 L14.4,12.4285714 C14.4,11.8499874 14.870101,11.3809524 15.45,11.3809524 L51.5112,11.3809524 L60.6,20.4491429 L60.6,78.8095238 C60.6,81.1238599 62.4804041,83 64.8,83 C67.1195959,83 69,81.1238599 69,78.8095238 L69,18.7142857 C69,17.6029932 68.5571074,16.5373029 67.7694,15.751619 L57.45,5.464 C55.8738324,3.89296536 53.7391211,3.00727654 51.5112,3 L14.4,3 C9.7608081,3 6,6.75228019 6,11.3809524 L6,78.8095238 C6,81.1238599 7.88040405,83 10.2,83 Z" id="Shape" fill="#FFFFFF" fill-rule="nonzero"></path>
                    <path d="M26.2142857,21 C24.4390847,21 23,22.3431458 23,24 C23,25.6568542 24.4390847,27 26.2142857,27 L49.7857143,27 C51.5609153,27 53,25.6568542 53,24 C53,22.3431458 51.5609153,21 49.7857143,21 L26.2142857,21 Z" id="Shape" fill="#E69E3F" fill-rule="nonzero"></path>
                    <path d="M41.8571429,35 L26.1428571,35 C24.4071051,35 23,36.3431458 23,38 C23,39.6568542 24.4071051,41 26.1428571,41 L41.8571429,41 C43.5928949,41 45,39.6568542 45,38 C45,36.3431458 43.5928949,35 41.8571429,35 L41.8571429,35 Z" id="Shape" fill="#E69E3F" fill-rule="nonzero"></path>
                </g>
            </g>
        </g>
    </g>
</svg>