<?xml version="1.0" encoding="UTF-8"?>
<svg width="349px" height="140px" viewBox="0 0 349 140" version="1.1" xmlns="http://www.w3.org/2000/svg" xmlns:xlink="http://www.w3.org/1999/xlink">
    <!-- Generator: Sketch 61.2 (89653) - https://sketch.com -->
    <title>Group 5</title>
    <desc>Created with Sketch.</desc>
    <g id="Desktop" stroke="none" stroke-width="1" fill="none" fill-rule="evenodd">
        <g id="Main-Copy-3" transform="translate(-758.000000, -2417.000000)" fill-rule="nonzero">
            <g id="Group-5" transform="translate(758.000000, 2417.000000)">
                <polygon id="→" fill="#FFFFFF" points="177.429688 60.171875 192.617188 44.984375 177.429688 29.796875 177.429688 42.3828125 136.226562 42.3828125 136.226562 47.5859375 177.429688 47.5859375"></polygon>
                <g id="anguish-copy">
                    <circle id="Oval" fill="#FFFFFF" cx="40.9600029" cy="40.9600029" r="40.9600029"></circle>
                    <path d="M40.9600029,46.0800033 C30.6841622,46.0800033 22.0825616,53.4476838 20.5107215,63.6108845 C20.3980814,64.3481646 20.6131215,65.1008046 21.0995215,65.6640046 C21.5808015,66.2374447 22.2924816,66.5600047 23.0400016,66.5600047 L58.8800042,66.5600047 C59.6275242,66.5600047 60.3392043,66.2374447 60.8256043,65.6640046 C61.3120043,65.1008046 61.5270444,64.3430446 61.4092843,63.6108845 C59.8374442,53.4476838 51.2358436,46.0800033 40.9600029,46.0800033 Z" id="Path" fill="#0B0B0B"></path>
                    <g id="Group" transform="translate(20.320001, 20.320001)" fill="#0B0B0B">
                        <path d="M38.5600027,20.6400015 C38.0275227,20.6400015 37.4848027,20.4710414 37.0240026,20.1280014 L26.7840019,12.4480009 C26.1388819,11.9667208 25.7600018,11.2038408 25.7600018,10.4000007 C25.7600018,9.59616068 26.1388819,8.83328063 26.7840019,8.35200059 L37.0240026,0.672000048 C38.1504027,-0.172800012 39.7529628,0.0473600034 40.6080029,1.18400008 C41.4528029,2.31552016 41.2224029,3.91808028 40.0908828,4.76800034 L32.5849623,10.4000007 L40.0960028,16.0320011 C41.2275229,16.8819212 41.4579229,18.4844813 40.6131229,19.6160014 C40.1062428,20.2867214 39.3331228,20.6400015 38.5600027,20.6400015 Z" id="Path"></path>
                        <path d="M2.72000019,20.6400015 C1.94176014,20.6400015 1.17376008,20.2867214 0.672000048,19.6160014 C-0.177920013,18.4844813 0.0524800037,16.8819212 1.18400008,16.0320011 L8.69504062,10.4000007 L1.18400008,4.76800034 C0.0524800037,3.91808028 -0.177920013,2.31552016 0.672000048,1.18400008 C1.52192011,0.0524800037 3.12448022,-0.177920013 4.2560003,0.672000048 L14.496001,8.35200059 C15.1411211,8.83328063 15.5200011,9.59616068 15.5200011,10.4000007 C15.5200011,11.2038408 15.1411211,11.9667208 14.496001,12.4480009 L4.2560003,20.1280014 C3.79520027,20.4710414 3.25760023,20.6400015 2.72000019,20.6400015 Z" id="Path"></path>
                    </g>
                </g>
                <g id="curious" transform="translate(246.000000, 0.000000)">
                    <circle id="Oval" fill="#FFFFFF" cx="40.9213567" cy="40.9207173" r="40.920078"></circle>
                    <g id="Group" transform="translate(30.690058, 25.575049)" fill="#0B0B0B">
                        <circle id="Oval" cx="28.1338324" cy="5.11564912" r="5.11500975"></circle>
                        <path d="M17.9038129,35.8057076 L2.55878363,35.8057076 C1.14704094,35.8057076 0.00127875244,34.6599454 0.00127875244,33.2482027 C0.00127875244,31.83646 1.14704094,30.6906979 2.55878363,30.6906979 L17.9038129,30.6906979 C19.3155556,30.6906979 20.4613177,31.83646 20.4613177,33.2482027 C20.4613177,34.6599454 19.3155556,35.8057076 17.9038129,35.8057076 Z" id="Path"></path>
                    </g>
                    <path d="M2.55878363,58.8232515 C1.90406238,58.8232515 1.24934113,58.572616 0.748070175,58.07646 C-0.249356725,57.0790331 -0.249356725,55.457575 0.748070175,54.4601481 L15.4792982,39.7289201 C16.4767251,38.7314932 18.0981832,38.7314932 19.0956101,39.7289201 C20.093037,40.726347 20.093037,42.3478051 19.0956101,43.345232 L4.36438207,58.07646 C3.86822612,58.572616 3.21350487,58.8232515 2.55878363,58.8232515 Z" id="Path" fill="#E69E3F"></path>
                    <circle id="Oval" fill="#E69E3F" cx="28.1338324" cy="30.6906979" r="17.9025341"></circle>
                    <circle id="Oval" fill="#0B0B0B" cx="28.1338324" cy="30.6906979" r="5.11500975"></circle>
                </g>
                <path d="M26.632,139 L26.632,138.304 L24.688,137.92 C24.184,137.824 24.088,137.848 24.088,137.488 L24.088,131.968 L26.944,131.968 C27.424,132.4 27.952,133.696 28.144,134.488 L28.696,134.488 L28.696,128.824 L28.144,128.824 C28.048,129.568 27.448,130.648 26.944,131.032 L24.088,131.032 L24.088,125.2 C24.568,125.08 25.264,124.984 25.744,124.984 L25.984,124.984 C27.328,124.984 28.648,125.368 29.176,125.704 C29.656,126.328 30.112,127.528 30.376,128.632 L31.024,128.632 L30.592,123.856 C30.136,124 29.056,124.12 28.048,124.12 L19.168,124.12 L19.168,124.816 L20.704,125.128 C21.256,125.248 21.328,125.272 21.328,125.608 L21.328,137.536 C21.328,137.872 21.256,137.896 20.68,138.016 L19.36,138.304 L19.36,139 L26.632,139 Z M37.72,139.288 C40.096,139.288 41.392,138.136 42.232,136.408 L41.992,136.168 C41.296,137.08 40.312,137.656 39.04,137.656 C36.688,137.656 35.152,135.952 35.128,132.88 L35.128,132.424 L35.128,132.424 L42.136,132.592 C42.184,132.28 42.28,131.608 42.28,131.296 C42.28,128.872 40.432,127.456 38.056,127.456 C34.792,127.456 32.656,130.024 32.656,133.384 C32.68,136.768 34.6,139.288 37.72,139.288 Z M35.2,131.728 C35.368,129.928 36.28,128.296 37.984,128.296 C39.208,128.296 39.904,129.16 39.904,130.816 C39.904,131.056 39.856,131.344 39.784,131.512 L35.2,131.728 Z M52.72,139.288 C53.248,139.288 54.352,139.048 55.072,138.592 L55.072,138.112 C54.496,138.112 53.8,138.064 53.368,137.872 C53.236,137.41 53.2048333,137.028667 53.2005556,136.247361 L53.2,130.912 C53.2,128.416 51.784,127.456 49.408,127.456 C48.352,127.456 47.392,127.816 46.864,128.176 L46.24,128.584 C45.712,128.92 44.824,129.592 44.824,130.504 C44.824,131.296 45.232,131.8 46.024,131.8 C46.936,131.8 47.344,131.128 47.344,130.456 C47.344,130.216 47.248,129.88 47.08,129.568 L46.744,128.992 C47.224,128.656 47.872,128.512 48.448,128.512 C49.888,128.512 50.752,129.304 50.752,131.2 L50.752,132.52 L48.808,133.024 C46.792,133.552 44.344,134.344 44.344,136.456 C44.344,138.232 45.472,139.288 47.464,139.288 C49,139.288 50.056,138.568 50.776,137.416 C50.944,138.568 51.4,139.288 52.72,139.288 Z M48.496,137.944 C47.344,137.944 46.672,137.272 46.672,136.12 C46.672,134.704 48.064,134.152 49.096,133.816 L50.752,133.288 L50.752,136.648 C50.368,137.224 49.576,137.944 48.496,137.944 Z M62.704,139 L62.704,138.424 L61.192,138.136 C60.544,137.992 60.448,137.944 60.448,137.632 L60.448,130.744 C60.688,130.144 61.6,129.496 62.416,129.496 C63.16,129.496 63.496,130.048 63.688,130.36 C63.688,130.36 64.792,129.736 64.792,128.632 C64.792,127.96 64.072,127.456 63.376,127.456 C62.128,127.456 60.952,128.584 60.448,130.072 L60.448,127.456 L59.728,127.456 L56.416,128.128 L56.416,128.608 L57.016,128.872 C57.88,129.256 57.976,129.424 57.976,129.904 L57.976,137.728 C57.976,138.064 57.88,138.04 57.208,138.208 L56.392,138.424 L56.392,139 L62.704,139 Z" id="Fear" fill="#FFFFFF"></path>
                <path d="M233.788,139 L233.788,138.304 L231.844,137.92 C231.34,137.824 231.244,137.848 231.244,137.488 L231.244,131.968 L234.1,131.968 C234.58,132.4 235.108,133.696 235.3,134.488 L235.852,134.488 L235.852,128.824 L235.3,128.824 C235.204,129.568 234.604,130.648 234.1,131.032 L231.244,131.032 L231.244,125.2 C231.724,125.08 232.42,124.984 232.9,124.984 L233.14,124.984 C234.484,124.984 235.804,125.368 236.332,125.704 C236.812,126.328 237.268,127.528 237.532,128.632 L238.18,128.632 L237.748,123.856 C237.292,124 236.212,124.12 235.204,124.12 L226.324,124.12 L226.324,124.816 L227.86,125.128 C228.412,125.248 228.484,125.272 228.484,125.608 L228.484,137.536 C228.484,137.872 228.412,137.896 227.836,138.016 L226.516,138.304 L226.516,139 L233.788,139 Z M248.092,139.288 C248.62,139.288 249.724,139.048 250.444,138.592 L250.444,138.112 C249.868,138.112 249.172,138.064 248.74,137.872 C248.608,137.41 248.576833,137.028667 248.572556,136.247361 L248.572,130.912 C248.572,128.416 247.156,127.456 244.78,127.456 C243.724,127.456 242.764,127.816 242.236,128.176 L241.612,128.584 C241.084,128.92 240.196,129.592 240.196,130.504 C240.196,131.296 240.604,131.8 241.396,131.8 C242.308,131.8 242.716,131.128 242.716,130.456 C242.716,130.216 242.62,129.88 242.452,129.568 L242.116,128.992 C242.596,128.656 243.244,128.512 243.82,128.512 C245.26,128.512 246.124,129.304 246.124,131.2 L246.124,132.52 L244.18,133.024 C242.164,133.552 239.716,134.344 239.716,136.456 C239.716,138.232 240.844,139.288 242.836,139.288 C244.372,139.288 245.428,138.568 246.148,137.416 C246.316,138.568 246.772,139.288 248.092,139.288 Z M243.868,137.944 C242.716,137.944 242.044,137.272 242.044,136.12 C242.044,134.704 243.436,134.152 244.468,133.816 L246.124,133.288 L246.124,136.648 C245.74,137.224 244.948,137.944 243.868,137.944 Z M252.892,139.288 L253.228,138.616 C253.876,139.048 254.836,139.288 256.108,139.288 C258.412,139.288 260.332,138.16 260.332,135.832 C260.332,134.224 258.916,133.336 257.98,132.928 L255.916,132.04 C255.028,131.656 254.716,130.984 254.716,130.024 C254.716,128.968 255.628,128.176 256.708,128.176 C257.5,128.176 258.172,128.704 258.484,129.112 C258.724,129.592 259.012,130.192 259.132,131.104 L259.804,131.104 L259.804,127.456 L259.228,127.456 L258.892,128.08 C258.388,127.768 257.596,127.456 256.564,127.456 C254.356,127.456 252.364,128.704 252.364,130.888 C252.364,132.496 253.516,133.504 254.692,133.96 L256.54,134.68 C257.092,134.896 257.884,135.448 257.884,136.6 C257.884,137.704 257.044,138.472 255.796,138.472 C255.148,138.472 254.548,138.16 253.948,137.608 C253.612,137.08 253.204,136.216 252.868,135.064 L252.196,135.064 L252.316,139.288 L252.892,139.288 Z M267.388,139.288 C269.596,139.288 270.892,138.136 271.66,136.456 L271.396,136.192 C270.676,137.2 269.74,137.656 268.636,137.656 C266.356,137.656 264.94,135.736 264.94,132.88 C264.94,130.648 265.972,128.32 267.988,128.32 C268.996,128.32 269.476,128.776 269.692,129.04 L269.38,129.544 C269.188,129.832 269.068,130.216 269.068,130.48 C269.068,131.224 269.668,131.8 270.412,131.8 C271.132,131.8 271.732,131.272 271.732,130.336 C271.732,129.616 271.204,128.896 270.748,128.488 C270.028,127.816 269.02,127.456 267.988,127.456 C264.724,127.456 262.444,130.072 262.444,133.36 C262.444,136.744 264.316,139.288 267.388,139.288 Z M276.508,125.032 C277.324,125.032 278.02,124.384 278.02,123.52 C278.02,122.704 277.348,122.008 276.508,122.008 C275.668,122.008 274.972,122.704 274.972,123.52 C274.972,124.384 275.668,125.032 276.508,125.032 Z M279.244,139 L279.244,138.424 L278.428,138.208 C277.78,138.04 277.684,138.064 277.684,137.728 L277.684,127.456 L276.964,127.456 L273.652,128.128 L273.652,128.608 L274.252,128.872 C275.116,129.256 275.212,129.424 275.212,129.904 L275.212,137.728 C275.212,138.064 275.116,138.04 274.444,138.208 L273.628,138.424 L273.628,139 L279.244,139 Z M286.468,139 L286.468,138.424 L285.652,138.208 C285.004,138.04 284.908,138.064 284.908,137.728 L284.908,130.672 C285.292,129.808 286.18,128.848 287.524,128.848 C289.468,128.848 289.78,130.408 289.78,132.016 L289.78,137.728 C289.78,138.064 289.708,138.016 289.012,138.208 L288.196,138.424 L288.196,139 L293.788,139 L293.788,138.424 L292.972,138.208 C292.324,138.04 292.228,138.064 292.228,137.728 L292.228,131.392 C292.228,129.016 291.028,127.456 288.58,127.456 C286.708,127.456 285.58,128.584 284.908,129.928 L284.908,127.456 L284.188,127.456 L280.876,128.128 L280.876,128.608 L281.476,128.872 C282.34,129.256 282.436,129.424 282.436,129.904 L282.436,137.728 C282.436,138.064 282.34,138.04 281.668,138.208 L280.852,138.424 L280.852,139 L286.468,139 Z M303.772,139.288 C304.3,139.288 305.404,139.048 306.124,138.592 L306.124,138.112 C305.548,138.112 304.852,138.064 304.42,137.872 C304.288,137.41 304.256833,137.028667 304.252556,136.247361 L304.252,130.912 C304.252,128.416 302.836,127.456 300.46,127.456 C299.404,127.456 298.444,127.816 297.916,128.176 L297.292,128.584 C296.764,128.92 295.876,129.592 295.876,130.504 C295.876,131.296 296.284,131.8 297.076,131.8 C297.988,131.8 298.396,131.128 298.396,130.456 C298.396,130.216 298.3,129.88 298.132,129.568 L297.796,128.992 C298.276,128.656 298.924,128.512 299.5,128.512 C300.94,128.512 301.804,129.304 301.804,131.2 L301.804,132.52 L299.86,133.024 C297.844,133.552 295.396,134.344 295.396,136.456 C295.396,138.232 296.524,139.288 298.516,139.288 C300.052,139.288 301.108,138.568 301.828,137.416 C301.996,138.568 302.452,139.288 303.772,139.288 Z M299.548,137.944 C298.396,137.944 297.724,137.272 297.724,136.12 C297.724,134.704 299.116,134.152 300.148,133.816 L301.804,133.288 L301.804,136.648 C301.42,137.224 300.628,137.944 299.548,137.944 Z M311.476,139.288 C313.012,139.288 314.14,138.544 314.788,137.464 L314.548,137.176 C314.164,137.536 313.564,137.944 312.844,137.944 C311.452,137.944 310.924,137.368 310.924,135.808 L310.924,129.16 L314.044,129.16 L314.044,128.056 L310.924,128.056 L310.924,124.816 L310.012,124.816 C309.796,125.464 309.124,127.12 308.74,127.624 C308.26,127.96 307.612,128.176 307.204,128.344 L307.204,129.16 L308.476,129.16 L308.476,136.384 C308.476,138.256 309.556,139.288 311.476,139.288 Z M318.436,125.032 C319.252,125.032 319.948,124.384 319.948,123.52 C319.948,122.704 319.276,122.008 318.436,122.008 C317.596,122.008 316.9,122.704 316.9,123.52 C316.9,124.384 317.596,125.032 318.436,125.032 Z M321.172,139 L321.172,138.424 L320.356,138.208 C319.708,138.04 319.612,138.064 319.612,137.728 L319.612,127.456 L318.892,127.456 L315.58,128.128 L315.58,128.608 L316.18,128.872 C317.044,129.256 317.14,129.424 317.14,129.904 L317.14,137.728 C317.14,138.064 317.044,138.04 316.372,138.208 L315.556,138.424 L315.556,139 L321.172,139 Z M328.468,139.288 C331.852,139.288 334.108,136.648 334.108,133.336 C334.108,129.832 331.852,127.456 328.468,127.456 C325.084,127.456 322.804,130.048 322.804,133.36 C322.804,136.888 325.084,139.288 328.468,139.288 Z M328.468,138.496 C326.5,138.496 325.516,135.856 325.516,133.336 C325.516,130.144 326.692,128.32 328.468,128.32 C330.436,128.32 331.42,130.792 331.42,133.312 C331.42,136.576 330.244,138.496 328.468,138.496 Z M341.572,139 L341.572,138.424 L340.756,138.208 C340.108,138.04 340.012,138.064 340.012,137.728 L340.012,130.672 C340.396,129.808 341.284,128.848 342.628,128.848 C344.572,128.848 344.884,130.408 344.884,132.016 L344.884,137.728 C344.884,138.064 344.812,138.016 344.116,138.208 L343.3,138.424 L343.3,139 L348.892,139 L348.892,138.424 L348.076,138.208 C347.428,138.04 347.332,138.064 347.332,137.728 L347.332,131.392 C347.332,129.016 346.132,127.456 343.684,127.456 C341.812,127.456 340.684,128.584 340.012,129.928 L340.012,127.456 L339.292,127.456 L335.98,128.128 L335.98,128.608 L336.58,128.872 C337.444,129.256 337.54,129.424 337.54,129.904 L337.54,137.728 C337.54,138.064 337.444,138.04 336.772,138.208 L335.956,138.424 L335.956,139 L341.572,139 Z" id="Fascination" fill="#FFFFFF"></path>
            </g>
        </g>
    </g>
</svg>