<?xml version="1.0" encoding="UTF-8"?>
<svg width="82px" height="82px" viewBox="0 0 82 82" version="1.1" xmlns="http://www.w3.org/2000/svg" xmlns:xlink="http://www.w3.org/1999/xlink">
    <!-- Generator: Sketch 61.2 (89653) - https://sketch.com -->
    <title>Group 6</title>
    <desc>Created with Sketch.</desc>
    <g id="Desktop" stroke="none" stroke-width="1" fill="none" fill-rule="evenodd">
        <g id="Main-Copy-3" transform="translate(-758.000000, -2595.000000)">
            <g id="Group-6" transform="translate(758.000000, 2595.000000)">
                <rect id="Rectangle-Copy-10" fill="#0B0B0B" x="0" y="0" width="82" height="82"></rect>
                <g id="anguish-copy" transform="translate(11.000000, 11.000000)" fill-rule="nonzero">
                    <circle id="Oval" fill="#FFFFFF" cx="30" cy="30" r="30"></circle>
                    <path d="M29.9991694,34 C22.4728262,34 16.1727483,39.39625 15.021484,46.84 C14.938983,47.38 15.0964849,47.93125 15.4527394,48.34375 C15.8052437,48.76375 16.3265002,49 16.8740069,49 L43.1243318,49 C43.6718386,49 44.1930951,48.76375 44.5493495,48.34375 C44.9056039,47.93125 45.0631058,47.37625 44.9768548,46.84 C43.8255905,39.39625 37.5255125,34 29.9991694,34 Z" id="Path" fill="#0B0B0B"></path>
                    <g id="Group" transform="translate(15.000000, 15.000000)" fill="#0B0B0B">
                        <path d="M28.4609544,14.7428582 C28.0679334,14.7428582 27.6673543,14.6221725 27.32724,14.3771439 L19.7691443,8.8914292 C19.2929842,8.54765775 19.0133347,8.00274342 19.0133347,7.42857195 C19.0133347,6.85440049 19.2929842,6.30948616 19.7691443,5.96571471 L27.32724,0.480000034 C28.1586306,-0.12342858 29.3414726,0.0338285738 29.9725736,0.845714346 C30.5961165,1.65394297 30.4260593,2.79862877 29.5908897,3.40571453 L24.0508055,7.42857195 L29.5946688,11.4514294 C30.4298383,12.0585151 30.5998955,13.2032009 29.9763526,14.0114296 C29.6022269,14.4905153 29.0315906,14.7428582 28.4609544,14.7428582 Z" id="Path"></path>
                        <path d="M2.00761919,14.7428582 C1.43320391,14.7428582 0.866346728,14.4905153 0.496000035,14.0114296 C-0.131321914,13.2032009 0.0387352408,12.0585151 0.873904824,11.4514294 L6.41776807,7.42857195 L0.873904824,3.40571453 C0.0387352408,2.79862877 -0.131321914,1.65394297 0.496000035,0.845714346 C1.12332198,0.0374857169 2.30616397,-0.127085723 3.14133356,0.480000034 L10.6994293,5.96571471 C11.1755894,6.30948616 11.4552389,6.85440049 11.4552389,7.42857195 C11.4552389,8.00274342 11.1755894,8.54765775 10.6994293,8.8914292 L3.14133356,14.3771439 C2.80121925,14.6221725 2.40441922,14.7428582 2.00761919,14.7428582 Z" id="Path"></path>
                    </g>
                </g>
            </g>
        </g>
    </g>
</svg>