<?xml version="1.0" encoding="UTF-8"?>
<svg width="78px" height="80px" viewBox="0 0 78 80" version="1.1" xmlns="http://www.w3.org/2000/svg" xmlns:xlink="http://www.w3.org/1999/xlink">
    <!-- Generator: Sketch 57.1 (83088) - https://sketch.com -->
    <title>Bold</title>
    <desc>Created with Sketch.</desc>
    <g id="Desktop" stroke="none" stroke-width="1" fill="none" fill-rule="evenodd">
        <g id="ArtboardX" transform="translate(-151.000000, -427.000000)">
            <g id="Group-2-Copy-4" transform="translate(148.000000, 91.000000)">
                <g id="Bold" transform="translate(0.000000, 336.000000)">
                    <rect id="Rectangle" x="0" y="0" width="80" height="80"></rect>
                    <path d="M60.1281649,46.6133333 L58.3044124,44.7233333 C57.676392,44.0726968 56.6583709,44.0726968 56.0303505,44.7233333 L46.9469691,54.1366667 C46.3191383,54.7874998 46.3191383,55.8425002 46.9469691,56.4933333 L48.7803711,58.3933333 C49.1584431,58.7970363 49.3144806,59.3711533 49.195299,59.92 C48.198425,64.8211589 49.3840726,69.9269716 52.4234447,73.821523 C55.4628169,77.7160745 60.0327961,79.9853327 64.8660619,80 C66.6053441,79.999628 68.3332399,79.7092505 69.9835052,79.14 C70.5147783,78.9609892 70.9183518,78.5090872 71.049519,77.9463293 C71.1806863,77.3835714 71.0206541,76.7905876 70.6268041,76.38 L62.7496082,68.2166667 C62.4481778,67.9034976 62.2792377,67.4789962 62.28,67.0366667 L62.28,62.3333333 C62.28,61.4128588 63.0000369,60.6666667 63.8882474,60.6666667 L68.4235052,60.6666667 C68.8492161,60.6667604 69.2575245,60.8417702 69.5589278,61.1533333 L77.4618557,69.3333333 C77.8549496,69.7405775 78.4230936,69.9086004 78.9643798,69.7776898 C79.5056659,69.6467793 79.9433537,69.2354951 80.1218969,68.69 C81.9938937,63.0225473 80.7819486,56.7497499 76.9486976,52.2661234 C73.1154465,47.7824969 67.2525695,45.7801098 61.5981031,47.0233333 C61.0727803,47.1508453 60.5207609,46.9968742 60.1281649,46.6133333 Z" id="Shape" fill="#E69E3F" fill-rule="nonzero"></path>
                    <path d="M37.8539381,23.5266667 L36.0205361,21.63 C35.640422,21.2275501 35.4851271,20.6517012 35.6088247,20.1033333 C36.808664,14.2445413 34.8777316,8.16952992 30.5529063,4.19663356 C26.2280809,0.223737192 20.1766852,-1.03402441 14.7080412,0.903333333 C14.1806371,1.08967205 13.7838864,1.54564929 13.6594055,2.10850843 C13.5349245,2.67136758 13.700453,3.26089576 14.0969072,3.66666667 L21.9966186,11.8566667 C22.2949039,12.170104 22.4614136,12.5931111 22.4597938,13.0333333 L22.4597938,17.7466667 C22.4597938,18.6671412 21.7397569,19.4133333 20.8515464,19.4133333 L16.3130722,19.4133333 C15.8857848,19.4132395 15.4760978,19.2369355 15.174433,18.9233333 L7.30045361,10.7633333 C6.90425772,10.3551768 6.33205894,10.1893315 5.78902658,10.3252634 C5.24599422,10.4611952 4.80993206,10.8794284 4.63719588,11.43 C2.82262658,17.0863588 4.065525,23.316494 7.89568257,27.7634447 C11.7258401,32.2103954 17.5583661,34.1950825 23.1867216,32.9666667 C23.7158684,32.8384757 24.2715329,32.9994117 24.6598763,33.3933333 L26.4964948,35.2966667 C27.1245152,35.9473032 28.1425363,35.9473032 28.7705567,35.2966667 L37.8539381,25.8866667 C38.1564228,25.5739858 38.3264212,25.1494242 38.3264212,24.7066667 C38.3264212,24.2639091 38.1564228,23.8393475 37.8539381,23.5266667 Z" id="Shape" fill="#E69E3F" fill-rule="nonzero"></path>
                    <path d="M59.3647107,33.382409 C59.7514246,32.9879332 60.3064769,32.8268228 60.8346488,32.9557423 C66.4665211,34.1880551 72.3041065,32.202625 76.1361217,27.751535 C79.9681369,23.3004449 81.2085118,17.0644465 79.3873911,11.4057423 C79.2146549,10.8551708 78.7785928,10.4369376 78.2355604,10.3010057 C77.692528,10.1650739 77.1203293,10.3309192 76.7241334,10.7390757 L68.8469375,18.912409 C68.5452726,19.2260112 68.1355857,19.4023152 67.7082983,19.402409 L63.1730406,19.402409 C62.2848301,19.402409 61.5647932,18.6562169 61.5647932,17.7357423 L61.5647932,13.0257423 C61.5640309,12.5834128 61.732971,12.1589114 62.0344014,11.8457423 L69.9276798,3.65574234 C70.3206493,3.24836937 70.4827828,2.65958763 70.3564609,2.09863938 C70.230139,1.53769114 69.8332709,1.08410442 69.3068963,0.899075669 C63.8372937,-1.04375131 57.7821059,0.211656361 53.4547371,4.18566611 C49.1273682,8.15967586 47.1964438,14.23826 48.3996798,20.0990757 C48.519693,20.6473554 48.3648879,21.2213882 47.9879684,21.6257423 L23.8642571,46.6257423 C23.4759137,47.019664 22.9202492,47.1805999 22.3911024,47.052409 C16.7362085,45.8069274 10.8718628,47.8086259 7.0380343,52.2929278 C3.2042058,56.7772297 1.99309729,63.0514551 3.86730863,68.7190757 C4.04924956,69.2731143 4.4982684,69.6876617 5.050269,69.8112195 C5.6022696,69.9347772 6.1763582,69.7492384 6.56273131,69.322409 L14.4688756,61.1257423 C14.772091,60.8210946 15.1787711,60.6522741 15.6010818,60.6557423 L20.1492055,60.6557423 C21.0374161,60.6557423 21.757453,61.4019344 21.757453,62.322409 L21.757453,67.032409 C21.7573624,67.4752175 21.5872382,67.8997862 21.2846282,68.212409 L13.4074323,76.3690757 C13.0135824,76.7796633 12.8535502,77.3726471 12.9847174,77.935405 C13.1158847,78.4981629 13.5194581,78.9500649 14.0507313,79.1290757 C15.6967537,79.6975349 17.4202934,79.9879104 19.1553086,79.9890757 C23.9891385,79.9754092 28.5600243,77.7065758 31.6001266,73.8118881 C34.6402289,69.9172004 35.826275,64.8108045 34.829288,59.9090757 C34.7055904,59.3607078 34.8608852,58.7848589 35.2409994,58.382409 L59.3647107,33.382409 Z" id="Shape" fill="#FFFFFF" fill-rule="nonzero"></path>
                </g>
            </g>
        </g>
    </g>
</svg>