<?xml version="1.0" encoding="UTF-8"?>
<svg width="300px" height="160px" viewBox="0 0 300 160" version="1.1" xmlns="http://www.w3.org/2000/svg" xmlns:xlink="http://www.w3.org/1999/xlink">
    <!-- Generator: Sketch 61.2 (89653) - https://sketch.com -->
    <title>Artboard Copy 5</title>
    <desc>Created with Sketch.</desc>
    <g id="Artboard-Copy-5" stroke="none" stroke-width="1" fill="none" fill-rule="evenodd">
        <rect fill="#0B0B0B" x="0" y="0" width="300" height="160"></rect>
        <circle id="Oval-Copy" fill-opacity="0.989592439" fill="#E69E3F" opacity="0.299990699" cx="53" cy="80" r="53"></circle>
        <path d="M53.3359547,27.0010424 C69.5722127,27.1018256 84.0767999,34.5032948 93.732279,46.0880126 L53.3359954,79.984444 Z" id="Combined-Shape" fill-opacity="0.989592439" fill="#E69E3F"></path>
        <path d="M150.16,65 L150.16,42.6 L143.76,42.6 L138,52.712 L142.416,52.712 L145.552,47.08 L145.936,47.08 L145.936,65 L150.16,65 Z M161.168,65.448 C166.16,65.448 169.616,62.504 169.616,57.96 C169.616,53.896 166.832,51.752 163.728,51.752 L162.896,51.752 L162.896,51.368 L169.104,46.312 L169.104,42.6 L153.232,42.6 L153.232,46.44 L163.376,46.44 L157.84,50.984 L157.84,54.76 L161.744,54.76 C163.888,54.76 165.392,55.816 165.392,57.96 C165.392,60.104 163.824,61.672 161.168,61.672 C158.32,61.672 156.816,59.88 156.816,57.704 L156.816,56.936 L152.592,56.936 L152.592,57.832 C152.592,62.28 155.824,65.448 161.168,65.448 Z M174.832,65.448 C176.56,65.448 177.872,64.2 177.872,62.408 C177.872,60.616 176.56,59.368 174.832,59.368 C173.104,59.368 171.792,60.616 171.792,62.408 C171.792,64.2 173.104,65.448 174.832,65.448 Z M188.496,65.416 C193.36,65.352 196.816,62.28 196.816,57.64 C196.816,53.384 193.776,50.344 189.712,50.344 C186.704,50.344 185.456,51.688 184.912,52.456 L184.528,52.456 L184.528,49.896 C184.528,47.336 186.032,45.928 188.688,45.928 C191.12,45.928 192.336,47.336 192.336,49.256 L196.624,49.256 C196.624,44.776 193.328,42.152 188.688,42.152 C183.92,42.152 180.304,44.872 180.304,50.152 L180.304,57.992 C180.304,62.376 183.792,65.48 188.496,65.416 Z M188.56,61.64 C186.224,61.64 184.528,60.136 184.528,57.64 C184.528,55.208 186.16,53.64 188.56,53.64 C190.96,53.64 192.592,55.208 192.592,57.64 C192.592,60.072 190.896,61.64 188.56,61.64 Z M212.624,51.752 L219.12,44.52 L215.824,42.056 L210.576,50.216 L212.624,51.752 Z M203.856,52.904 C207.152,52.904 209.104,51.016 209.104,47.88 L209.104,47.272 C209.104,44.136 207.056,42.216 203.856,42.216 C200.56,42.216 198.608,44.136 198.608,47.272 L198.608,47.88 C198.608,51.016 200.56,52.904 203.856,52.904 Z M203.856,50.152 C202.576,50.152 201.936,49.32 201.936,48.008 L201.936,47.112 C201.936,45.8 202.576,44.968 203.856,44.968 C205.136,44.968 205.776,45.8 205.776,47.112 L205.776,48.008 C205.776,49.32 205.136,50.152 203.856,50.152 Z M215.28,65.384 C218.576,65.384 220.528,63.496 220.528,60.36 L220.528,59.752 C220.528,56.616 218.48,54.696 215.28,54.696 C211.984,54.696 210.032,56.616 210.032,59.752 L210.032,60.36 C210.032,63.496 211.984,65.384 215.28,65.384 Z M203.152,65.48 L208.4,57.32 L206.352,55.784 L199.856,63.016 L203.152,65.48 Z M215.28,62.632 C214,62.632 213.36,61.8 213.36,60.488 L213.36,59.592 C213.36,58.28 214,57.448 215.28,57.448 C216.56,57.448 217.2,58.28 217.2,59.592 L217.2,60.488 C217.2,61.8 216.56,62.632 215.28,62.632 Z" id="13.6%" fill="#E69E3F" fill-rule="nonzero"></path>
        <path d="M146.064,127 L154.768,108.312 L154.768,104.6 L138.128,104.6 L138.128,108.44 L149.968,108.44 L141.392,127 L146.064,127 Z M164.048,127.416 C168.912,127.352 172.368,124.28 172.368,119.64 C172.368,115.384 169.328,112.344 165.264,112.344 C162.256,112.344 161.008,113.688 160.464,114.456 L160.08,114.456 L160.08,111.896 C160.08,109.336 161.584,107.928 164.24,107.928 C166.672,107.928 167.888,109.336 167.888,111.256 L172.176,111.256 C172.176,106.776 168.88,104.152 164.24,104.152 C159.472,104.152 155.856,106.872 155.856,112.152 L155.856,119.992 C155.856,124.376 159.344,127.48 164.048,127.416 Z M164.112,123.64 C161.776,123.64 160.08,122.136 160.08,119.64 C160.08,117.208 161.712,115.64 164.112,115.64 C166.512,115.64 168.144,117.208 168.144,119.64 C168.144,122.072 166.448,123.64 164.112,123.64 Z M177.52,127.448 C179.248,127.448 180.56,126.2 180.56,124.408 C180.56,122.616 179.248,121.368 177.52,121.368 C175.792,121.368 174.48,122.616 174.48,124.408 C174.48,126.2 175.792,127.448 177.52,127.448 Z M197.584,127 L197.584,122.584 L201.232,122.584 L201.232,118.744 L197.584,118.744 L197.584,104.6 L190.992,104.6 L182.224,118.872 L182.224,122.584 L193.36,122.584 L193.36,127 L197.584,127 Z M193.36,118.744 L186.64,118.744 L192.976,108.248 L193.36,108.248 L193.36,118.744 Z M216.592,113.752 L223.088,106.52 L219.792,104.056 L214.544,112.216 L216.592,113.752 Z M207.824,114.904 C211.12,114.904 213.072,113.016 213.072,109.88 L213.072,109.272 C213.072,106.136 211.024,104.216 207.824,104.216 C204.528,104.216 202.576,106.136 202.576,109.272 L202.576,109.88 C202.576,113.016 204.528,114.904 207.824,114.904 Z M207.824,112.152 C206.544,112.152 205.904,111.32 205.904,110.008 L205.904,109.112 C205.904,107.8 206.544,106.968 207.824,106.968 C209.104,106.968 209.744,107.8 209.744,109.112 L209.744,110.008 C209.744,111.32 209.104,112.152 207.824,112.152 Z M219.248,127.384 C222.544,127.384 224.496,125.496 224.496,122.36 L224.496,121.752 C224.496,118.616 222.448,116.696 219.248,116.696 C215.952,116.696 214,118.616 214,121.752 L214,122.36 C214,125.496 215.952,127.384 219.248,127.384 Z M207.12,127.48 L212.368,119.32 L210.32,117.784 L203.824,125.016 L207.12,127.48 Z M219.248,124.632 C217.968,124.632 217.328,123.8 217.328,122.488 L217.328,121.592 C217.328,120.28 217.968,119.448 219.248,119.448 C220.528,119.448 221.168,120.28 221.168,121.592 L221.168,122.488 C221.168,123.8 220.528,124.632 219.248,124.632 Z" id="76.4%" fill="#4B361A" fill-rule="nonzero"></path>
        <path d="M138.56,32.112 C140.04,32.112 140.768,31.32 140.768,30.08 L140.768,29.888 L139.712,29.888 L139.712,30.096 C139.712,30.728 139.4,31.168 138.56,31.168 C137.736,31.168 137.296,30.656 137.296,29.888 L137.296,28.512 C137.296,27.808 137.768,27.232 138.56,27.232 C139.328,27.232 139.712,27.664 139.712,28.304 L139.712,28.512 L140.768,28.512 L140.768,28.32 C140.768,27.072 139.976,26.288 138.56,26.288 C137.144,26.288 136.24,27.168 136.24,28.56 L136.24,29.84 C136.24,31.328 137.184,32.112 138.56,32.112 Z M145.334286,32.112 C146.766286,32.112 147.638286,31.264 147.638286,29.792 L147.638286,28.608 C147.638286,27.176 146.766286,26.288 145.334286,26.288 C143.902286,26.288 143.030286,27.176 143.030286,28.608 L143.030286,29.792 C143.030286,31.264 143.902286,32.112 145.334286,32.112 Z M145.334286,31.168 C144.486286,31.168 144.086286,30.648 144.086286,29.84 L144.086286,28.56 C144.086286,27.8 144.526286,27.232 145.334286,27.232 C146.118286,27.232 146.582286,27.768 146.582286,28.56 L146.582286,29.84 C146.582286,30.616 146.206286,31.168 145.334286,31.168 Z M151.180572,32 L151.180572,27.52 L151.276572,27.52 L152.436572,32 L153.988572,32 L155.148572,27.52 L155.244572,27.52 L155.244572,32 L156.268572,32 L156.268572,26.4 L154.444572,26.4 L153.260572,30.896 L153.164572,30.896 L151.980572,26.4 L150.156572,26.4 L150.156572,32 L151.180572,32 Z M160.066858,32 L160.066858,29.952 L161.314858,29.952 C162.346858,29.952 163.106858,29.248 163.106858,28.176 C163.106858,27.104 162.370858,26.4 161.314858,26.4 L159.010858,26.4 L159.010858,32 L160.066858,32 Z M161.210858,28.992 L160.066858,28.992 L160.066858,27.36 L161.210858,27.36 C161.714858,27.36 162.050858,27.68 162.050858,28.176 C162.050858,28.672 161.714858,28.992 161.210858,28.992 Z M169.129144,32 L169.129144,31.04 L166.537144,31.04 L166.537144,26.4 L165.481144,26.4 L165.481144,32 L169.129144,32 Z M175.23143,32 L175.23143,31.04 L172.55943,31.04 L172.55943,29.656 L174.95943,29.656 L174.95943,28.696 L172.55943,28.696 L172.55943,27.36 L175.18343,27.36 L175.18343,26.4 L171.50343,26.4 L171.50343,32 L175.23143,32 Z M180.085716,32 L180.085716,27.36 L181.781716,27.36 L181.781716,26.4 L177.333716,26.4 L177.333716,27.36 L179.029716,27.36 L179.029716,32 L180.085716,32 Z M187.852002,32 L187.852002,31.04 L185.180002,31.04 L185.180002,29.656 L187.580002,29.656 L187.580002,28.696 L185.180002,28.696 L185.180002,27.36 L187.804002,27.36 L187.804002,26.4 L184.124002,26.4 L184.124002,32 L187.852002,32 Z M197.976574,32 L197.976574,31.04 L195.384574,31.04 L195.384574,26.4 L194.328574,26.4 L194.328574,32 L197.976574,32 Z M202.43086,32.112 C203.86286,32.112 204.73486,31.264 204.73486,29.792 L204.73486,28.608 C204.73486,27.176 203.86286,26.288 202.43086,26.288 C200.99886,26.288 200.12686,27.176 200.12686,28.608 L200.12686,29.792 C200.12686,31.264 200.99886,32.112 202.43086,32.112 Z M202.43086,31.168 C201.58286,31.168 201.18286,30.648 201.18286,29.84 L201.18286,28.56 C201.18286,27.8 201.62286,27.232 202.43086,27.232 C203.21486,27.232 203.67886,27.768 203.67886,28.56 L203.67886,29.84 C203.67886,30.616 203.30286,31.168 202.43086,31.168 Z M209.261146,32.112 C210.453146,32.112 211.333146,31.48 211.333146,30.352 C211.333146,29.336 210.653146,28.928 209.501146,28.672 L209.429146,28.656 C208.757146,28.504 208.261146,28.408 208.261146,27.88 C208.261146,27.496 208.605146,27.216 209.165146,27.216 C209.805146,27.216 210.213146,27.496 210.213146,28.136 L210.213146,28.304 L211.237146,28.304 L211.237146,28.064 C211.237146,26.944 210.365146,26.288 209.165146,26.288 C208.077146,26.288 207.221146,26.912 207.221146,27.912 C207.221146,28.928 207.909146,29.328 209.069146,29.584 L209.141146,29.6 C209.877146,29.76 210.293146,29.92 210.293146,30.408 C210.293146,30.824 209.973146,31.184 209.293146,31.184 C208.445146,31.184 208.053146,30.72 208.053146,30.032 L208.053146,29.888 L207.013146,29.888 L207.013146,30.064 C207.013146,31.376 207.893146,32.112 209.261146,32.112 Z M215.907432,32.112 C217.099432,32.112 217.979432,31.48 217.979432,30.352 C217.979432,29.336 217.299432,28.928 216.147432,28.672 L216.075432,28.656 C215.403432,28.504 214.907432,28.408 214.907432,27.88 C214.907432,27.496 215.251432,27.216 215.811432,27.216 C216.451432,27.216 216.859432,27.496 216.859432,28.136 L216.859432,28.304 L217.883432,28.304 L217.883432,28.064 C217.883432,26.944 217.011432,26.288 215.811432,26.288 C214.723432,26.288 213.867432,26.912 213.867432,27.912 C213.867432,28.928 214.555432,29.328 215.715432,29.584 L215.787432,29.6 C216.523432,29.76 216.939432,29.92 216.939432,30.408 C216.939432,30.824 216.619432,31.184 215.939432,31.184 C215.091432,31.184 214.699432,30.72 214.699432,30.032 L214.699432,29.888 L213.659432,29.888 L213.659432,30.064 C213.659432,31.376 214.539432,32.112 215.907432,32.112 Z M226.600004,32.112 C228.032004,32.112 228.904004,31.264 228.904004,29.792 L228.904004,28.608 C228.904004,27.176 228.032004,26.288 226.600004,26.288 C225.168004,26.288 224.296004,27.176 224.296004,28.608 L224.296004,29.792 C224.296004,31.264 225.168004,32.112 226.600004,32.112 Z M226.600004,31.168 C225.752004,31.168 225.352004,30.648 225.352004,29.84 L225.352004,28.56 C225.352004,27.8 225.792004,27.232 226.600004,27.232 C227.384004,27.232 227.848004,27.768 227.848004,28.56 L227.848004,29.84 C227.848004,30.616 227.472004,31.168 226.600004,31.168 Z M232.47829,32 L232.47829,29.672 L234.83029,29.672 L234.83029,28.712 L232.47829,28.712 L232.47829,27.36 L234.99029,27.36 L234.99029,26.4 L231.42229,26.4 L231.42229,32 L232.47829,32 Z M244.162862,32 L245.722862,26.4 L244.634862,26.4 L243.386862,31.064 L243.290862,31.064 L242.042862,26.4 L240.954862,26.4 L242.514862,32 L244.162862,32 Z M249.073148,32 L249.073148,26.4 L248.017148,26.4 L248.017148,32 L249.073148,32 Z M253.823434,32.112 C255.015434,32.112 255.895434,31.48 255.895434,30.352 C255.895434,29.336 255.215434,28.928 254.063434,28.672 L253.991434,28.656 C253.319434,28.504 252.823434,28.408 252.823434,27.88 C252.823434,27.496 253.167434,27.216 253.727434,27.216 C254.367434,27.216 254.775434,27.496 254.775434,28.136 L254.775434,28.304 L255.799434,28.304 L255.799434,28.064 C255.799434,26.944 254.927434,26.288 253.727434,26.288 C252.639434,26.288 251.783434,26.912 251.783434,27.912 C251.783434,28.928 252.471434,29.328 253.631434,29.584 L253.703434,29.6 C254.439434,29.76 254.855434,29.92 254.855434,30.408 C254.855434,30.824 254.535434,31.184 253.855434,31.184 C253.007434,31.184 252.615434,30.72 252.615434,30.032 L252.615434,29.888 L251.575434,29.888 L251.575434,30.064 C251.575434,31.376 252.455434,32.112 253.823434,32.112 Z M259.51772,32 L259.51772,26.4 L258.46172,26.4 L258.46172,32 L259.51772,32 Z M264.340006,32.112 C265.772006,32.112 266.644006,31.264 266.644006,29.792 L266.644006,28.608 C266.644006,27.176 265.772006,26.288 264.340006,26.288 C262.908006,26.288 262.036006,27.176 262.036006,28.608 L262.036006,29.792 C262.036006,31.264 262.908006,32.112 264.340006,32.112 Z M264.340006,31.168 C263.492006,31.168 263.092006,30.648 263.092006,29.84 L263.092006,28.56 C263.092006,27.8 263.532006,27.232 264.340006,27.232 C265.124006,27.232 265.588006,27.768 265.588006,28.56 L265.588006,29.84 C265.588006,30.616 265.212006,31.168 264.340006,31.168 Z M270.218292,32 L270.218292,27.392 L270.314292,27.392 L271.594292,32 L273.466292,32 L273.466292,26.4 L272.410292,26.4 L272.410292,31.008 L272.314292,31.008 L271.034292,26.4 L269.162292,26.4 L269.162292,32 L270.218292,32 Z" id="COMPLETELOSSOFVISION" fill="#FFFFFF" fill-rule="nonzero"></path>
        <path d="M138.544,94.112 C139.976,94.112 140.848,93.264 140.848,91.792 L140.848,90.608 C140.848,89.176 139.976,88.288 138.544,88.288 C137.112,88.288 136.24,89.176 136.24,90.608 L136.24,91.792 C136.24,93.264 137.112,94.112 138.544,94.112 Z M138.544,93.168 C137.696,93.168 137.296,92.648 137.296,91.84 L137.296,90.56 C137.296,89.8 137.736,89.232 138.544,89.232 C139.328,89.232 139.792,89.768 139.792,90.56 L139.792,91.84 C139.792,92.616 139.416,93.168 138.544,93.168 Z M145.598286,94 L145.598286,89.36 L147.294286,89.36 L147.294286,88.4 L142.846286,88.4 L142.846286,89.36 L144.542286,89.36 L144.542286,94 L145.598286,94 Z M150.692572,94 L150.692572,91.672 L152.804572,91.672 L152.804572,94 L153.860572,94 L153.860572,88.4 L152.804572,88.4 L152.804572,90.712 L150.692572,90.712 L150.692572,88.4 L149.636572,88.4 L149.636572,94 L150.692572,94 Z M160.330858,94 L160.330858,93.04 L157.658858,93.04 L157.658858,91.656 L160.058858,91.656 L160.058858,90.696 L157.658858,90.696 L157.658858,89.36 L160.282858,89.36 L160.282858,88.4 L156.602858,88.4 L156.602858,94 L160.330858,94 Z M163.889144,94 L163.889144,91.928 L164.825144,91.928 L165.857144,94 L167.025144,94 L165.889144,91.84 C166.609144,91.624 167.089144,91.016 167.089144,90.168 C167.089144,89.104 166.353144,88.408 165.297144,88.408 L162.833144,88.408 L162.833144,94 L163.889144,94 Z M165.193144,90.968 L163.889144,90.968 L163.889144,89.368 L165.193144,89.368 C165.697144,89.368 166.033144,89.68 166.033144,90.168 C166.033144,90.656 165.697144,90.968 165.193144,90.968 Z M176.309716,94 L177.869716,88.4 L176.781716,88.4 L175.533716,93.064 L175.437716,93.064 L174.189716,88.4 L173.101716,88.4 L174.661716,94 L176.309716,94 Z M181.220002,94 L181.220002,88.4 L180.164002,88.4 L180.164002,94 L181.220002,94 Z M185.970288,94.112 C187.162288,94.112 188.042288,93.48 188.042288,92.352 C188.042288,91.336 187.362288,90.928 186.210288,90.672 L186.138288,90.656 C185.466288,90.504 184.970288,90.408 184.970288,89.88 C184.970288,89.496 185.314288,89.216 185.874288,89.216 C186.514288,89.216 186.922288,89.496 186.922288,90.136 L186.922288,90.304 L187.946288,90.304 L187.946288,90.064 C187.946288,88.944 187.074288,88.288 185.874288,88.288 C184.786288,88.288 183.930288,88.912 183.930288,89.912 C183.930288,90.928 184.618288,91.328 185.778288,91.584 L185.850288,91.6 C186.586288,91.76 187.002288,91.92 187.002288,92.408 C187.002288,92.824 186.682288,93.184 186.002288,93.184 C185.154288,93.184 184.762288,92.72 184.762288,92.032 L184.762288,91.888 L183.722288,91.888 L183.722288,92.064 C183.722288,93.376 184.602288,94.112 185.970288,94.112 Z M192.768574,94.112 C194.168574,94.112 194.960574,93.296 194.960574,92.016 L194.960574,88.4 L193.904574,88.4 L193.904574,92.064 C193.904574,92.744 193.496574,93.168 192.768574,93.168 C192.040574,93.168 191.632574,92.744 191.632574,92.064 L191.632574,88.4 L190.576574,88.4 L190.576574,92.016 C190.576574,93.296 191.368574,94.112 192.768574,94.112 Z M198.23086,94 L198.56686,92.752 L200.51886,92.752 L200.85486,94 L201.94286,94 L200.39086,88.4 L198.69486,88.4 L197.14286,94 L198.23086,94 Z M200.27086,91.792 L198.81486,91.792 L199.49486,89.28 L199.59086,89.28 L200.27086,91.792 Z M207.885146,94 L207.885146,93.04 L205.293146,93.04 L205.293146,88.4 L204.237146,88.4 L204.237146,94 L207.885146,94 Z M215.289718,94 L215.289718,88.4 L214.233718,88.4 L214.233718,94 L215.289718,94 Z M219.056004,94 L219.056004,89.52 L219.152004,89.52 L220.312004,94 L221.864004,94 L223.024004,89.52 L223.120004,89.52 L223.120004,94 L224.144004,94 L224.144004,88.4 L222.320004,88.4 L221.136004,92.896 L221.040004,92.896 L219.856004,88.4 L218.032004,88.4 L218.032004,94 L219.056004,94 Z M227.94229,94 L227.94229,91.952 L229.19029,91.952 C230.22229,91.952 230.98229,91.248 230.98229,90.176 C230.98229,89.104 230.24629,88.4 229.19029,88.4 L226.88629,88.4 L226.88629,94 L227.94229,94 Z M229.08629,90.992 L227.94229,90.992 L227.94229,89.36 L229.08629,89.36 C229.59029,89.36 229.92629,89.68 229.92629,90.176 C229.92629,90.672 229.59029,90.992 229.08629,90.992 Z M233.516576,94 L233.852576,92.752 L235.804576,92.752 L236.140576,94 L237.228576,94 L235.676576,88.4 L233.980576,88.4 L232.428576,94 L233.516576,94 Z M235.556576,91.792 L234.100576,91.792 L234.780576,89.28 L234.876576,89.28 L235.556576,91.792 Z M240.578862,94 L240.578862,88.4 L239.522862,88.4 L239.522862,94 L240.578862,94 Z M244.377148,94 L244.377148,91.928 L245.313148,91.928 L246.345148,94 L247.513148,94 L246.377148,91.84 C247.097148,91.624 247.577148,91.016 247.577148,90.168 C247.577148,89.104 246.841148,88.408 245.785148,88.408 L243.321148,88.408 L243.321148,94 L244.377148,94 Z M245.681148,90.968 L244.377148,90.968 L244.377148,89.368 L245.681148,89.368 C246.185148,89.368 246.521148,89.68 246.521148,90.168 C246.521148,90.656 246.185148,90.968 245.681148,90.968 Z M251.087434,94 L251.087434,89.52 L251.183434,89.52 L252.343434,94 L253.895434,94 L255.055434,89.52 L255.151434,89.52 L255.151434,94 L256.175434,94 L256.175434,88.4 L254.351434,88.4 L253.167434,92.896 L253.071434,92.896 L251.887434,88.4 L250.063434,88.4 L250.063434,94 L251.087434,94 Z M262.64572,94 L262.64572,93.04 L259.97372,93.04 L259.97372,91.656 L262.37372,91.656 L262.37372,90.696 L259.97372,90.696 L259.97372,89.36 L262.59772,89.36 L262.59772,88.4 L258.91772,88.4 L258.91772,94 L262.64572,94 Z M266.204006,94 L266.204006,89.392 L266.300006,89.392 L267.580006,94 L269.452006,94 L269.452006,88.4 L268.396006,88.4 L268.396006,93.008 L268.300006,93.008 L267.020006,88.4 L265.148006,88.4 L265.148006,94 L266.204006,94 Z M274.546292,94 L274.546292,89.36 L276.242292,89.36 L276.242292,88.4 L271.794292,88.4 L271.794292,89.36 L273.490292,89.36 L273.490292,94 L274.546292,94 Z M280.472578,94.112 C281.664578,94.112 282.544578,93.48 282.544578,92.352 C282.544578,91.336 281.864578,90.928 280.712578,90.672 L280.640578,90.656 C279.968578,90.504 279.472578,90.408 279.472578,89.88 C279.472578,89.496 279.816578,89.216 280.376578,89.216 C281.016578,89.216 281.424578,89.496 281.424578,90.136 L281.424578,90.304 L282.448578,90.304 L282.448578,90.064 C282.448578,88.944 281.576578,88.288 280.376578,88.288 C279.288578,88.288 278.432578,88.912 278.432578,89.912 C278.432578,90.928 279.120578,91.328 280.280578,91.584 L280.352578,91.6 C281.088578,91.76 281.504578,91.92 281.504578,92.408 C281.504578,92.824 281.184578,93.184 280.504578,93.184 C279.656578,93.184 279.264578,92.72 279.264578,92.032 L279.264578,91.888 L278.224578,91.888 L278.224578,92.064 C278.224578,93.376 279.104578,94.112 280.472578,94.112 Z" id="OTHERVISUALIMPAIRMENTS" fill="#FFFFFF" fill-rule="nonzero"></path>
    </g>
</svg>