<?xml version="1.0" encoding="UTF-8"?>
<svg width="300px" height="160px" viewBox="0 0 300 160" version="1.1" xmlns="http://www.w3.org/2000/svg" xmlns:xlink="http://www.w3.org/1999/xlink">
    <!-- Generator: Sketch 61.2 (89653) - https://sketch.com -->
    <title>Artboard Copy 7</title>
    <desc>Created with Sketch.</desc>
    <g id="Artboard-Copy-7" stroke="none" stroke-width="1" fill="none" fill-rule="evenodd">
        <rect fill="#0B0B0B" x="0" y="0" width="300" height="160"></rect>
        <g id="DUMBBELL-Copy-2" opacity="0.195870536" transform="translate(55.487067, 34.000000) rotate(-315.000000) translate(-55.487067, -34.000000) translate(24.987067, 3.000000)" fill-rule="nonzero">
            <path d="M59.3518056,16.9732724 L54.7827815,12.4042374 L58.2174815,8.97082411 C58.5211622,8.66746643 58.6918882,8.25640652 58.6918882,7.82646094 C58.6918882,7.39651537 58.5211622,6.98545546 58.2175894,6.68198986 L53.6189958,2.08338524 C53.0119582,1.47634612 51.9369889,1.47634612 51.3299512,2.08338524 L47.8965462,5.51809352 L43.3268746,0.948195105 C42.0626175,-0.316065035 40.0127187,-0.316065035 38.7483537,0.948195105 C37.4838808,2.21245525 37.4838808,4.2623589 38.7483537,5.52672696 L54.7731768,21.5518043 C56.0376497,22.8160644 58.0875485,22.8160644 59.3518056,21.5518043 C60.6160627,20.2875442 60.6160627,18.2376405 59.3518056,16.9732724 Z" id="Path" fill="#FFFFFF"></path>
            <path d="M21.5516447,55.67319 L5.52682163,39.6481895 C4.26234868,38.3839355 2.21266578,38.3839355 0.948192831,39.6481895 C-0.316064277,40.9126594 -0.316064277,42.9625533 0.948192831,44.2268073 L5.51797237,48.7965759 L2.08996323,52.2231739 C1.78639044,52.526746 1.61566447,52.937696 1.61566447,53.3676395 C1.61566447,53.797583 1.78639044,54.208641 2.08996323,54.5121051 L6.68855682,59.1091768 C7.00464807,59.4254832 7.41883662,59.5835824 7.83302516,59.5835824 C8.2472137,59.5835824 8.66140225,59.4254832 8.9774935,59.1092847 L12.4040997,55.6826868 L16.9731238,60.2518078 C18.2373809,61.5160619 20.2872797,61.5160619 21.5516447,60.2518078 C22.8161176,58.9873379 22.8161176,56.9374441 21.5516447,55.67319 Z" id="Path" fill="#FFFFFF"></path>
            <polygon id="Path" fill="#FFFFFF" points="36.2904066 20.6999995 21.5999994 35.3904066 24.9095918 38.699999 39.599999 24.0095918"></polygon>
            <path d="M53.9544033,25.9892149 L33.4107934,5.4454413 C32.1502149,4.18485274 30.1061731,4.18485274 28.8455946,5.4454413 C27.5848008,6.70624508 27.5848008,8.74998034 28.8455946,10.0107841 L49.3892044,30.5545577 C50.649783,31.8151463 52.6937171,31.8151463 53.9544033,30.5545577 C55.215197,29.2939692 55.215197,27.2500187 53.9544033,25.9892149 Z" id="Path" fill="#E69E3F"></path>
            <path d="M31.4544038,50.2893219 L10.9106864,29.7454407 C9.65010785,28.4848521 7.60617367,28.4848521 6.34559515,29.7454407 C5.08480143,31.0062444 5.08480143,33.0501949 6.34559515,34.3107835 L26.889205,54.8545571 C28.1497835,56.1151457 30.1937177,56.1151457 31.4544038,54.8545571 C32.7151976,53.5939685 32.7151976,51.5500181 31.4544038,50.2893219 Z" id="Path" fill="#E69E3F"></path>
        </g>
        <g id="DUMBBELL-Copy-6" opacity="0.195870536" transform="translate(141.487067, 32.000000) rotate(-315.000000) translate(-141.487067, -32.000000) translate(110.987067, 1.000000)" fill-rule="nonzero">
            <path d="M59.3518056,16.9732724 L54.7827815,12.4042374 L58.2174815,8.97082411 C58.5211622,8.66746643 58.6918882,8.25640652 58.6918882,7.82646094 C58.6918882,7.39651537 58.5211622,6.98545546 58.2175894,6.68198986 L53.6189958,2.08338524 C53.0119582,1.47634612 51.9369889,1.47634612 51.3299512,2.08338524 L47.8965462,5.51809352 L43.3268746,0.948195105 C42.0626175,-0.316065035 40.0127187,-0.316065035 38.7483537,0.948195105 C37.4838808,2.21245525 37.4838808,4.2623589 38.7483537,5.52672696 L54.7731768,21.5518043 C56.0376497,22.8160644 58.0875485,22.8160644 59.3518056,21.5518043 C60.6160627,20.2875442 60.6160627,18.2376405 59.3518056,16.9732724 Z" id="Path" fill="#FFFFFF"></path>
            <path d="M21.5516447,55.67319 L5.52682163,39.6481895 C4.26234868,38.3839355 2.21266578,38.3839355 0.948192831,39.6481895 C-0.316064277,40.9126594 -0.316064277,42.9625533 0.948192831,44.2268073 L5.51797237,48.7965759 L2.08996323,52.2231739 C1.78639044,52.526746 1.61566447,52.937696 1.61566447,53.3676395 C1.61566447,53.797583 1.78639044,54.208641 2.08996323,54.5121051 L6.68855682,59.1091768 C7.00464807,59.4254832 7.41883662,59.5835824 7.83302516,59.5835824 C8.2472137,59.5835824 8.66140225,59.4254832 8.9774935,59.1092847 L12.4040997,55.6826868 L16.9731238,60.2518078 C18.2373809,61.5160619 20.2872797,61.5160619 21.5516447,60.2518078 C22.8161176,58.9873379 22.8161176,56.9374441 21.5516447,55.67319 Z" id="Path" fill="#FFFFFF"></path>
            <polygon id="Path" fill="#FFFFFF" points="36.2904066 20.6999995 21.5999994 35.3904066 24.9095918 38.699999 39.599999 24.0095918"></polygon>
            <path d="M53.9544033,25.9892149 L33.4107934,5.4454413 C32.1502149,4.18485274 30.1061731,4.18485274 28.8455946,5.4454413 C27.5848008,6.70624508 27.5848008,8.74998034 28.8455946,10.0107841 L49.3892044,30.5545577 C50.649783,31.8151463 52.6937171,31.8151463 53.9544033,30.5545577 C55.215197,29.2939692 55.215197,27.2500187 53.9544033,25.9892149 Z" id="Path" fill="#E69E3F"></path>
            <path d="M31.4544038,50.2893219 L10.9106864,29.7454407 C9.65010785,28.4848521 7.60617367,28.4848521 6.34559515,29.7454407 C5.08480143,31.0062444 5.08480143,33.0501949 6.34559515,34.3107835 L26.889205,54.8545571 C28.1497835,56.1151457 30.1937177,56.1151457 31.4544038,54.8545571 C32.7151976,53.5939685 32.7151976,51.5500181 31.4544038,50.2893219 Z" id="Path" fill="#E69E3F"></path>
        </g>
        <g id="DUMBBELL-Copy-8" opacity="0.195870536" transform="translate(141.487067, 126.000000) rotate(-315.000000) translate(-141.487067, -126.000000) translate(110.987067, 95.000000)" fill-rule="nonzero">
            <path d="M59.3518056,16.9732724 L54.7827815,12.4042374 L58.2174815,8.97082411 C58.5211622,8.66746643 58.6918882,8.25640652 58.6918882,7.82646094 C58.6918882,7.39651537 58.5211622,6.98545546 58.2175894,6.68198986 L53.6189958,2.08338524 C53.0119582,1.47634612 51.9369889,1.47634612 51.3299512,2.08338524 L47.8965462,5.51809352 L43.3268746,0.948195105 C42.0626175,-0.316065035 40.0127187,-0.316065035 38.7483537,0.948195105 C37.4838808,2.21245525 37.4838808,4.2623589 38.7483537,5.52672696 L54.7731768,21.5518043 C56.0376497,22.8160644 58.0875485,22.8160644 59.3518056,21.5518043 C60.6160627,20.2875442 60.6160627,18.2376405 59.3518056,16.9732724 Z" id="Path" fill="#FFFFFF"></path>
            <path d="M21.5516447,55.67319 L5.52682163,39.6481895 C4.26234868,38.3839355 2.21266578,38.3839355 0.948192831,39.6481895 C-0.316064277,40.9126594 -0.316064277,42.9625533 0.948192831,44.2268073 L5.51797237,48.7965759 L2.08996323,52.2231739 C1.78639044,52.526746 1.61566447,52.937696 1.61566447,53.3676395 C1.61566447,53.797583 1.78639044,54.208641 2.08996323,54.5121051 L6.68855682,59.1091768 C7.00464807,59.4254832 7.41883662,59.5835824 7.83302516,59.5835824 C8.2472137,59.5835824 8.66140225,59.4254832 8.9774935,59.1092847 L12.4040997,55.6826868 L16.9731238,60.2518078 C18.2373809,61.5160619 20.2872797,61.5160619 21.5516447,60.2518078 C22.8161176,58.9873379 22.8161176,56.9374441 21.5516447,55.67319 Z" id="Path" fill="#FFFFFF"></path>
            <polygon id="Path" fill="#FFFFFF" points="36.2904066 20.6999995 21.5999994 35.3904066 24.9095918 38.699999 39.599999 24.0095918"></polygon>
            <path d="M53.9544033,25.9892149 L33.4107934,5.4454413 C32.1502149,4.18485274 30.1061731,4.18485274 28.8455946,5.4454413 C27.5848008,6.70624508 27.5848008,8.74998034 28.8455946,10.0107841 L49.3892044,30.5545577 C50.649783,31.8151463 52.6937171,31.8151463 53.9544033,30.5545577 C55.215197,29.2939692 55.215197,27.2500187 53.9544033,25.9892149 Z" id="Path" fill="#E69E3F"></path>
            <path d="M31.4544038,50.2893219 L10.9106864,29.7454407 C9.65010785,28.4848521 7.60617367,28.4848521 6.34559515,29.7454407 C5.08480143,31.0062444 5.08480143,33.0501949 6.34559515,34.3107835 L26.889205,54.8545571 C28.1497835,56.1151457 30.1937177,56.1151457 31.4544038,54.8545571 C32.7151976,53.5939685 32.7151976,51.5500181 31.4544038,50.2893219 Z" id="Path" fill="#E69E3F"></path>
        </g>
        <g id="DUMBBELL-Copy-9" opacity="0.195870536" transform="translate(228.487067, 126.000000) rotate(-315.000000) translate(-228.487067, -126.000000) translate(197.987067, 95.000000)" fill-rule="nonzero">
            <path d="M59.3518056,16.9732724 L54.7827815,12.4042374 L58.2174815,8.97082411 C58.5211622,8.66746643 58.6918882,8.25640652 58.6918882,7.82646094 C58.6918882,7.39651537 58.5211622,6.98545546 58.2175894,6.68198986 L53.6189958,2.08338524 C53.0119582,1.47634612 51.9369889,1.47634612 51.3299512,2.08338524 L47.8965462,5.51809352 L43.3268746,0.948195105 C42.0626175,-0.316065035 40.0127187,-0.316065035 38.7483537,0.948195105 C37.4838808,2.21245525 37.4838808,4.2623589 38.7483537,5.52672696 L54.7731768,21.5518043 C56.0376497,22.8160644 58.0875485,22.8160644 59.3518056,21.5518043 C60.6160627,20.2875442 60.6160627,18.2376405 59.3518056,16.9732724 Z" id="Path" fill="#FFFFFF"></path>
            <path d="M21.5516447,55.67319 L5.52682163,39.6481895 C4.26234868,38.3839355 2.21266578,38.3839355 0.948192831,39.6481895 C-0.316064277,40.9126594 -0.316064277,42.9625533 0.948192831,44.2268073 L5.51797237,48.7965759 L2.08996323,52.2231739 C1.78639044,52.526746 1.61566447,52.937696 1.61566447,53.3676395 C1.61566447,53.797583 1.78639044,54.208641 2.08996323,54.5121051 L6.68855682,59.1091768 C7.00464807,59.4254832 7.41883662,59.5835824 7.83302516,59.5835824 C8.2472137,59.5835824 8.66140225,59.4254832 8.9774935,59.1092847 L12.4040997,55.6826868 L16.9731238,60.2518078 C18.2373809,61.5160619 20.2872797,61.5160619 21.5516447,60.2518078 C22.8161176,58.9873379 22.8161176,56.9374441 21.5516447,55.67319 Z" id="Path" fill="#FFFFFF"></path>
            <polygon id="Path" fill="#FFFFFF" points="36.2904066 20.6999995 21.5999994 35.3904066 24.9095918 38.699999 39.599999 24.0095918"></polygon>
            <path d="M53.9544033,25.9892149 L33.4107934,5.4454413 C32.1502149,4.18485274 30.1061731,4.18485274 28.8455946,5.4454413 C27.5848008,6.70624508 27.5848008,8.74998034 28.8455946,10.0107841 L49.3892044,30.5545577 C50.649783,31.8151463 52.6937171,31.8151463 53.9544033,30.5545577 C55.215197,29.2939692 55.215197,27.2500187 53.9544033,25.9892149 Z" id="Path" fill="#E69E3F"></path>
            <path d="M31.4544038,50.2893219 L10.9106864,29.7454407 C9.65010785,28.4848521 7.60617367,28.4848521 6.34559515,29.7454407 C5.08480143,31.0062444 5.08480143,33.0501949 6.34559515,34.3107835 L26.889205,54.8545571 C28.1497835,56.1151457 30.1937177,56.1151457 31.4544038,54.8545571 C32.7151976,53.5939685 32.7151976,51.5500181 31.4544038,50.2893219 Z" id="Path" fill="#E69E3F"></path>
        </g>
        <g id="DUMBBELL-Copy-7" opacity="0.195870536" transform="translate(228.487067, 32.000000) rotate(-315.000000) translate(-228.487067, -32.000000) translate(197.987067, 1.000000)" fill-rule="nonzero">
            <path d="M59.3518056,16.9732724 L54.7827815,12.4042374 L58.2174815,8.97082411 C58.5211622,8.66746643 58.6918882,8.25640652 58.6918882,7.82646094 C58.6918882,7.39651537 58.5211622,6.98545546 58.2175894,6.68198986 L53.6189958,2.08338524 C53.0119582,1.47634612 51.9369889,1.47634612 51.3299512,2.08338524 L47.8965462,5.51809352 L43.3268746,0.948195105 C42.0626175,-0.316065035 40.0127187,-0.316065035 38.7483537,0.948195105 C37.4838808,2.21245525 37.4838808,4.2623589 38.7483537,5.52672696 L54.7731768,21.5518043 C56.0376497,22.8160644 58.0875485,22.8160644 59.3518056,21.5518043 C60.6160627,20.2875442 60.6160627,18.2376405 59.3518056,16.9732724 Z" id="Path" fill="#FFFFFF"></path>
            <path d="M21.5516447,55.67319 L5.52682163,39.6481895 C4.26234868,38.3839355 2.21266578,38.3839355 0.948192831,39.6481895 C-0.316064277,40.9126594 -0.316064277,42.9625533 0.948192831,44.2268073 L5.51797237,48.7965759 L2.08996323,52.2231739 C1.78639044,52.526746 1.61566447,52.937696 1.61566447,53.3676395 C1.61566447,53.797583 1.78639044,54.208641 2.08996323,54.5121051 L6.68855682,59.1091768 C7.00464807,59.4254832 7.41883662,59.5835824 7.83302516,59.5835824 C8.2472137,59.5835824 8.66140225,59.4254832 8.9774935,59.1092847 L12.4040997,55.6826868 L16.9731238,60.2518078 C18.2373809,61.5160619 20.2872797,61.5160619 21.5516447,60.2518078 C22.8161176,58.9873379 22.8161176,56.9374441 21.5516447,55.67319 Z" id="Path" fill="#FFFFFF"></path>
            <polygon id="Path" fill="#FFFFFF" points="36.2904066 20.6999995 21.5999994 35.3904066 24.9095918 38.699999 39.599999 24.0095918"></polygon>
            <path d="M53.9544033,25.9892149 L33.4107934,5.4454413 C32.1502149,4.18485274 30.1061731,4.18485274 28.8455946,5.4454413 C27.5848008,6.70624508 27.5848008,8.74998034 28.8455946,10.0107841 L49.3892044,30.5545577 C50.649783,31.8151463 52.6937171,31.8151463 53.9544033,30.5545577 C55.215197,29.2939692 55.215197,27.2500187 53.9544033,25.9892149 Z" id="Path" fill="#E69E3F"></path>
            <path d="M31.4544038,50.2893219 L10.9106864,29.7454407 C9.65010785,28.4848521 7.60617367,28.4848521 6.34559515,29.7454407 C5.08480143,31.0062444 5.08480143,33.0501949 6.34559515,34.3107835 L26.889205,54.8545571 C28.1497835,56.1151457 30.1937177,56.1151457 31.4544038,54.8545571 C32.7151976,53.5939685 32.7151976,51.5500181 31.4544038,50.2893219 Z" id="Path" fill="#E69E3F"></path>
        </g>
        <g id="DUMBBELL-Copy-3" opacity="0.195870536" transform="translate(55.487067, 80.000000) rotate(-315.000000) translate(-55.487067, -80.000000) translate(24.987067, 49.000000)" fill-rule="nonzero">
            <path d="M59.3518056,16.9732724 L54.7827815,12.4042374 L58.2174815,8.97082411 C58.5211622,8.66746643 58.6918882,8.25640652 58.6918882,7.82646094 C58.6918882,7.39651537 58.5211622,6.98545546 58.2175894,6.68198986 L53.6189958,2.08338524 C53.0119582,1.47634612 51.9369889,1.47634612 51.3299512,2.08338524 L47.8965462,5.51809352 L43.3268746,0.948195105 C42.0626175,-0.316065035 40.0127187,-0.316065035 38.7483537,0.948195105 C37.4838808,2.21245525 37.4838808,4.2623589 38.7483537,5.52672696 L54.7731768,21.5518043 C56.0376497,22.8160644 58.0875485,22.8160644 59.3518056,21.5518043 C60.6160627,20.2875442 60.6160627,18.2376405 59.3518056,16.9732724 Z" id="Path" fill="#FFFFFF"></path>
            <path d="M21.5516447,55.67319 L5.52682163,39.6481895 C4.26234868,38.3839355 2.21266578,38.3839355 0.948192831,39.6481895 C-0.316064277,40.9126594 -0.316064277,42.9625533 0.948192831,44.2268073 L5.51797237,48.7965759 L2.08996323,52.2231739 C1.78639044,52.526746 1.61566447,52.937696 1.61566447,53.3676395 C1.61566447,53.797583 1.78639044,54.208641 2.08996323,54.5121051 L6.68855682,59.1091768 C7.00464807,59.4254832 7.41883662,59.5835824 7.83302516,59.5835824 C8.2472137,59.5835824 8.66140225,59.4254832 8.9774935,59.1092847 L12.4040997,55.6826868 L16.9731238,60.2518078 C18.2373809,61.5160619 20.2872797,61.5160619 21.5516447,60.2518078 C22.8161176,58.9873379 22.8161176,56.9374441 21.5516447,55.67319 Z" id="Path" fill="#FFFFFF"></path>
            <polygon id="Path" fill="#FFFFFF" points="36.2904066 20.6999995 21.5999994 35.3904066 24.9095918 38.699999 39.599999 24.0095918"></polygon>
            <path d="M53.9544033,25.9892149 L33.4107934,5.4454413 C32.1502149,4.18485274 30.1061731,4.18485274 28.8455946,5.4454413 C27.5848008,6.70624508 27.5848008,8.74998034 28.8455946,10.0107841 L49.3892044,30.5545577 C50.649783,31.8151463 52.6937171,31.8151463 53.9544033,30.5545577 C55.215197,29.2939692 55.215197,27.2500187 53.9544033,25.9892149 Z" id="Path" fill="#E69E3F"></path>
            <path d="M31.4544038,50.2893219 L10.9106864,29.7454407 C9.65010785,28.4848521 7.60617367,28.4848521 6.34559515,29.7454407 C5.08480143,31.0062444 5.08480143,33.0501949 6.34559515,34.3107835 L26.889205,54.8545571 C28.1497835,56.1151457 30.1937177,56.1151457 31.4544038,54.8545571 C32.7151976,53.5939685 32.7151976,51.5500181 31.4544038,50.2893219 Z" id="Path" fill="#E69E3F"></path>
        </g>
        <g id="DUMBBELL-Copy-5" opacity="0.195870536" transform="translate(55.487067, 126.000000) rotate(-315.000000) translate(-55.487067, -126.000000) translate(24.987067, 95.000000)" fill-rule="nonzero">
            <path d="M59.3518056,16.9732724 L54.7827815,12.4042374 L58.2174815,8.97082411 C58.5211622,8.66746643 58.6918882,8.25640652 58.6918882,7.82646094 C58.6918882,7.39651537 58.5211622,6.98545546 58.2175894,6.68198986 L53.6189958,2.08338524 C53.0119582,1.47634612 51.9369889,1.47634612 51.3299512,2.08338524 L47.8965462,5.51809352 L43.3268746,0.948195105 C42.0626175,-0.316065035 40.0127187,-0.316065035 38.7483537,0.948195105 C37.4838808,2.21245525 37.4838808,4.2623589 38.7483537,5.52672696 L54.7731768,21.5518043 C56.0376497,22.8160644 58.0875485,22.8160644 59.3518056,21.5518043 C60.6160627,20.2875442 60.6160627,18.2376405 59.3518056,16.9732724 Z" id="Path" fill="#FFFFFF"></path>
            <path d="M21.5516447,55.67319 L5.52682163,39.6481895 C4.26234868,38.3839355 2.21266578,38.3839355 0.948192831,39.6481895 C-0.316064277,40.9126594 -0.316064277,42.9625533 0.948192831,44.2268073 L5.51797237,48.7965759 L2.08996323,52.2231739 C1.78639044,52.526746 1.61566447,52.937696 1.61566447,53.3676395 C1.61566447,53.797583 1.78639044,54.208641 2.08996323,54.5121051 L6.68855682,59.1091768 C7.00464807,59.4254832 7.41883662,59.5835824 7.83302516,59.5835824 C8.2472137,59.5835824 8.66140225,59.4254832 8.9774935,59.1092847 L12.4040997,55.6826868 L16.9731238,60.2518078 C18.2373809,61.5160619 20.2872797,61.5160619 21.5516447,60.2518078 C22.8161176,58.9873379 22.8161176,56.9374441 21.5516447,55.67319 Z" id="Path" fill="#FFFFFF"></path>
            <polygon id="Path" fill="#FFFFFF" points="36.2904066 20.6999995 21.5999994 35.3904066 24.9095918 38.699999 39.599999 24.0095918"></polygon>
            <path d="M53.9544033,25.9892149 L33.4107934,5.4454413 C32.1502149,4.18485274 30.1061731,4.18485274 28.8455946,5.4454413 C27.5848008,6.70624508 27.5848008,8.74998034 28.8455946,10.0107841 L49.3892044,30.5545577 C50.649783,31.8151463 52.6937171,31.8151463 53.9544033,30.5545577 C55.215197,29.2939692 55.215197,27.2500187 53.9544033,25.9892149 Z" id="Path" fill="#E69E3F"></path>
            <path d="M31.4544038,50.2893219 L10.9106864,29.7454407 C9.65010785,28.4848521 7.60617367,28.4848521 6.34559515,29.7454407 C5.08480143,31.0062444 5.08480143,33.0501949 6.34559515,34.3107835 L26.889205,54.8545571 C28.1497835,56.1151457 30.1937177,56.1151457 31.4544038,54.8545571 C32.7151976,53.5939685 32.7151976,51.5500181 31.4544038,50.2893219 Z" id="Path" fill="#E69E3F"></path>
        </g>
        <g id="Group-Copy" transform="translate(55.500000, 80.500000) scale(-1, 1) rotate(-180.000000) translate(-55.500000, -80.500000) translate(28.000000, 55.000000)" fill-rule="nonzero">
            <g id="Bold" transform="translate(0.770292, 0.729708)">
                <path d="M54,22.7927419 C54,21.2777284 53.4073678,19.8247658 52.3524756,18.7534895 C51.2975835,17.6822131 49.8668428,17.0803763 48.375,17.0803763 L34.17525,17.0803763 C33.9950863,17.0799955 33.8260039,16.9919976 33.720487,16.8436977 C33.6149702,16.6953978 33.5857884,16.5047431 33.642,16.330914 C34.8841707,13.1338749 35.2873339,9.66399798 34.812,6.26115591 C33.489,1.47419355 30.6855,0.0918010753 28.49175,0.400268817 C26.2628899,0.785384118 24.6614466,2.79016378 24.75,5.0844086 C24.75,11.358871 19.95975,18.2137097 15.6735,21.218414 C15.3688685,21.4319156 15.1874995,21.7839286 15.1874995,22.1598118 L15.1874995,45.274328 C15.1874995,45.8216948 15.5695729,46.2922369 16.09875,46.3962366 C16.902,46.5538978 17.631,46.7047043 18.3195,46.8532258 C21.3470867,47.585739 24.450223,47.947053 27.5625,47.9294355 L42.1874995,47.9294355 C46.59075,47.9294355 47.25,45.4159946 47.25,43.9307796 C47.2504355,43.1429933 47.0717982,42.3657371 46.728,41.659543 C49.2012593,40.3870417 50.2047837,37.3297092 48.978,34.8047043 C50.6781253,33.9275773 51.7493556,32.1553762 51.75,30.2188172 C51.7514692,29.3628483 51.5401955,28.5203463 51.13575,27.7693548 C52.9051059,26.7571712 54,24.8550559 54,22.7927419 L54,22.7927419 Z" id="Shape" fill="#FFFFFF"></path>
                <path d="M11.8125,22.2215054 C11.8125,20.9595644 10.8051407,19.9365591 9.5625,19.9365591 L2.25,19.9365591 C1.00735931,19.9365591 0,20.9595644 0,22.2215054 L0,47.355914 C0,48.6178549 1.00735931,49.6408602 2.25,49.6408602 L9.5625,49.6408602 C10.8051407,49.6408602 11.8125,48.6178549 11.8125,47.355914 L11.8125,22.2215054 Z M8.4375,43.3572581 C8.4375,44.3037138 7.68198052,45.0709677 6.75,45.0709677 C5.81801948,45.0709677 5.0625,44.3037138 5.0625,43.3572581 C5.0625,42.4108023 5.81801948,41.6435484 6.75,41.6435484 C7.68198052,41.6435484 8.4375,42.4108023 8.4375,43.3572581 Z" id="Shape" fill="#E69E3F"></path>
            </g>
        </g>
        <path d="M122.816,77 L122.816,72.36 L124.512,72.36 L124.512,71.4 L120.064,71.4 L120.064,72.36 L121.76,72.36 L121.76,77 L122.816,77 Z M127.207111,77 L127.207111,74.672 L129.319111,74.672 L129.319111,77 L130.375111,77 L130.375111,71.4 L129.319111,71.4 L129.319111,73.712 L127.207111,73.712 L127.207111,71.4 L126.151111,71.4 L126.151111,77 L127.207111,77 Z M136.142223,77 L136.142223,76.04 L133.470223,76.04 L133.470223,74.656 L135.870223,74.656 L135.870223,73.696 L133.470223,73.696 L133.470223,72.36 L136.094223,72.36 L136.094223,71.4 L132.414223,71.4 L132.414223,77 L136.142223,77 Z M142.268445,77 L142.268445,71.4 L141.212445,71.4 L141.212445,77 L142.268445,77 Z M145.363557,77 L145.363557,72.392 L145.459557,72.392 L146.739557,77 L148.611557,77 L148.611557,71.4 L147.555557,71.4 L147.555557,76.008 L147.459557,76.008 L146.179557,71.4 L144.307557,71.4 L144.307557,77 L145.363557,77 Z M151.290668,77 L151.626668,75.752 L153.578668,75.752 L153.914668,77 L155.002668,77 L153.450668,71.4 L151.754668,71.4 L150.202668,77 L151.290668,77 Z M153.330668,74.792 L151.874668,74.792 L152.554668,72.28 L152.650668,72.28 L153.330668,74.792 Z M158.569779,77.112 C160.049779,77.112 160.777779,76.32 160.777779,75.08 L160.777779,74.888 L159.721779,74.888 L159.721779,75.096 C159.721779,75.728 159.409779,76.168 158.569779,76.168 C157.745779,76.168 157.305779,75.656 157.305779,74.888 L157.305779,73.512 C157.305779,72.808 157.777779,72.232 158.569779,72.232 C159.337779,72.232 159.721779,72.664 159.721779,73.304 L159.721779,73.512 L160.777779,73.512 L160.777779,73.32 C160.777779,72.072 159.985779,71.288 158.569779,71.288 C157.153779,71.288 156.249779,72.168 156.249779,73.56 L156.249779,74.84 C156.249779,76.328 157.193779,77.112 158.569779,77.112 Z M164.656891,77.112 C166.136891,77.112 166.864891,76.32 166.864891,75.08 L166.864891,74.888 L165.808891,74.888 L165.808891,75.096 C165.808891,75.728 165.496891,76.168 164.656891,76.168 C163.832891,76.168 163.392891,75.656 163.392891,74.888 L163.392891,73.512 C163.392891,72.808 163.864891,72.232 164.656891,72.232 C165.424891,72.232 165.808891,72.664 165.808891,73.304 L165.808891,73.512 L166.864891,73.512 L166.864891,73.32 C166.864891,72.072 166.072891,71.288 164.656891,71.288 C163.240891,71.288 162.336891,72.168 162.336891,73.56 L162.336891,74.84 C162.336891,76.328 163.280891,77.112 164.656891,77.112 Z M172.376002,77 L172.376002,76.04 L169.704002,76.04 L169.704002,74.656 L172.104002,74.656 L172.104002,73.696 L169.704002,73.696 L169.704002,72.36 L172.328002,72.36 L172.328002,71.4 L168.648002,71.4 L168.648002,77 L172.376002,77 Z M176.183113,77.112 C177.375113,77.112 178.255113,76.48 178.255113,75.352 C178.255113,74.336 177.575113,73.928 176.423113,73.672 L176.351113,73.656 C175.679113,73.504 175.183113,73.408 175.183113,72.88 C175.183113,72.496 175.527113,72.216 176.087113,72.216 C176.727113,72.216 177.135113,72.496 177.135113,73.136 L177.135113,73.304 L178.159113,73.304 L178.159113,73.064 C178.159113,71.944 177.287113,71.288 176.087113,71.288 C174.999113,71.288 174.143113,71.912 174.143113,72.912 C174.143113,73.928 174.831113,74.328 175.991113,74.584 L176.063113,74.6 C176.799113,74.76 177.215113,74.92 177.215113,75.408 C177.215113,75.824 176.895113,76.184 176.215113,76.184 C175.367113,76.184 174.975113,75.72 174.975113,75.032 L174.975113,74.888 L173.935113,74.888 L173.935113,75.064 C173.935113,76.376 174.815113,77.112 176.183113,77.112 Z M182.126225,77.112 C183.318225,77.112 184.198225,76.48 184.198225,75.352 C184.198225,74.336 183.518225,73.928 182.366225,73.672 L182.294225,73.656 C181.622225,73.504 181.126225,73.408 181.126225,72.88 C181.126225,72.496 181.470225,72.216 182.030225,72.216 C182.670225,72.216 183.078225,72.496 183.078225,73.136 L183.078225,73.304 L184.102225,73.304 L184.102225,73.064 C184.102225,71.944 183.230225,71.288 182.030225,71.288 C180.942225,71.288 180.086225,71.912 180.086225,72.912 C180.086225,73.928 180.774225,74.328 181.934225,74.584 L182.006225,74.6 C182.742225,74.76 183.158225,74.92 183.158225,75.408 C183.158225,75.824 182.838225,76.184 182.158225,76.184 C181.310225,76.184 180.918225,75.72 180.918225,75.032 L180.918225,74.888 L179.878225,74.888 L179.878225,75.064 C179.878225,76.376 180.758225,77.112 182.126225,77.112 Z M187.117336,77 L187.117336,71.4 L186.061336,71.4 L186.061336,77 L187.117336,77 Z M191.708447,77 C192.668447,77 193.364447,76.416 193.364447,75.488 C193.364447,74.808 192.964447,74.392 192.420447,74.24 L192.420447,74.144 C192.964447,73.992 193.364447,73.576 193.364447,72.904 C193.364447,71.944 192.676447,71.4 191.708447,71.4 L189.156447,71.4 L189.156447,77 L191.708447,77 Z M191.604447,73.712 L190.212447,73.712 L190.212447,72.36 L191.604447,72.36 C192.052447,72.36 192.356447,72.576 192.356447,73.032 C192.356447,73.488 192.052447,73.712 191.604447,73.712 Z M191.604447,76.04 L190.212447,76.04 L190.212447,74.672 L191.604447,74.672 C192.052447,74.672 192.356447,74.904 192.356447,75.36 C192.356447,75.816 192.052447,76.04 191.604447,76.04 Z M198.827559,77 L198.827559,76.04 L196.235559,76.04 L196.235559,71.4 L195.179559,71.4 L195.179559,77 L198.827559,77 Z M204.22667,77 L204.22667,76.04 L201.55467,76.04 L201.55467,74.656 L203.95467,74.656 L203.95467,73.696 L201.55467,73.696 L201.55467,72.36 L204.17867,72.36 L204.17867,71.4 L200.49867,71.4 L200.49867,77 L204.22667,77 Z M210.352893,77 L210.352893,72.392 L210.448893,72.392 L211.728893,77 L213.600893,77 L213.600893,71.4 L212.544893,71.4 L212.544893,76.008 L212.448893,76.008 L211.168893,71.4 L209.296893,71.4 L209.296893,77 L210.352893,77 Z M216.280004,77 L216.616004,75.752 L218.568004,75.752 L218.904004,77 L219.992004,77 L218.440004,71.4 L216.744004,71.4 L215.192004,77 L216.280004,77 Z M218.320004,74.792 L216.864004,74.792 L217.544004,72.28 L217.640004,72.28 L218.320004,74.792 Z M223.455115,77 L223.455115,72.36 L225.151115,72.36 L225.151115,71.4 L220.703115,71.4 L220.703115,72.36 L222.399115,72.36 L222.399115,77 L223.455115,77 Z M228.950227,77.112 C230.350227,77.112 231.142227,76.296 231.142227,75.016 L231.142227,71.4 L230.086227,71.4 L230.086227,75.064 C230.086227,75.744 229.678227,76.168 228.950227,76.168 C228.222227,76.168 227.814227,75.744 227.814227,75.064 L227.814227,71.4 L226.758227,71.4 L226.758227,75.016 C226.758227,76.296 227.550227,77.112 228.950227,77.112 Z M234.205338,77 L234.205338,74.928 L235.141338,74.928 L236.173338,77 L237.341338,77 L236.205338,74.84 C236.925338,74.624 237.405338,74.016 237.405338,73.168 C237.405338,72.104 236.669338,71.408 235.613338,71.408 L233.149338,71.408 L233.149338,77 L234.205338,77 Z M235.509338,73.968 L234.205338,73.968 L234.205338,72.368 L235.509338,72.368 C236.013338,72.368 236.349338,72.68 236.349338,73.168 C236.349338,73.656 236.013338,73.968 235.509338,73.968 Z M242.916449,77 L242.916449,76.04 L240.244449,76.04 L240.244449,74.656 L242.644449,74.656 L242.644449,73.696 L240.244449,73.696 L240.244449,72.36 L242.868449,72.36 L242.868449,71.4 L239.188449,71.4 L239.188449,77 L242.916449,77 Z M250.066672,77.112 C251.498672,77.112 252.370672,76.264 252.370672,74.792 L252.370672,73.608 C252.370672,72.176 251.498672,71.288 250.066672,71.288 C248.634672,71.288 247.762672,72.176 247.762672,73.608 L247.762672,74.792 C247.762672,76.264 248.634672,77.112 250.066672,77.112 Z M250.066672,76.168 C249.218672,76.168 248.818672,75.648 248.818672,74.84 L248.818672,73.56 C248.818672,72.8 249.258672,72.232 250.066672,72.232 C250.850672,72.232 251.314672,72.768 251.314672,73.56 L251.314672,74.84 C251.314672,75.616 250.938672,76.168 250.066672,76.168 Z M255.241783,77 L255.241783,74.672 L257.593783,74.672 L257.593783,73.712 L255.241783,73.712 L255.241783,72.36 L257.753783,72.36 L257.753783,71.4 L254.185783,71.4 L254.185783,77 L255.241783,77 Z M122.816,89 L122.816,84.36 L124.512,84.36 L124.512,83.4 L120.064,83.4 L120.064,84.36 L121.76,84.36 L121.76,89 L122.816,89 Z M127.207111,89 L127.207111,86.928 L128.143111,86.928 L129.175111,89 L130.343111,89 L129.207111,86.84 C129.927111,86.624 130.407111,86.016 130.407111,85.168 C130.407111,84.104 129.671111,83.408 128.615111,83.408 L126.151111,83.408 L126.151111,89 L127.207111,89 Z M128.511111,85.968 L127.207111,85.968 L127.207111,84.368 L128.511111,84.368 C129.015111,84.368 129.351111,84.68 129.351111,85.168 C129.351111,85.656 129.015111,85.968 128.511111,85.968 Z M132.790223,89 L133.126223,87.752 L135.078223,87.752 L135.414223,89 L136.502223,89 L134.950223,83.4 L133.254223,83.4 L131.702223,89 L132.790223,89 Z M134.830223,86.792 L133.374223,86.792 L134.054223,84.28 L134.150223,84.28 L134.830223,86.792 Z M140.013334,89 C141.517334,89 142.317334,88.256 142.317334,86.728 L142.317334,85.672 C142.317334,84.144 141.517334,83.4 140.013334,83.4 L138.093334,83.4 L138.093334,89 L140.013334,89 Z M140.029334,88.04 L139.149334,88.04 L139.149334,84.36 L140.029334,84.36 C140.933334,84.36 141.261334,84.824 141.261334,85.64 L141.261334,86.76 C141.261334,87.576 140.933334,88.04 140.029334,88.04 Z M145.188445,89 L145.188445,83.4 L144.132445,83.4 L144.132445,89 L145.188445,89 Z M149.579557,89 L149.579557,84.36 L151.275557,84.36 L151.275557,83.4 L146.827557,83.4 L146.827557,84.36 L148.523557,84.36 L148.523557,89 L149.579557,89 Z M153.970668,89 L153.970668,83.4 L152.914668,83.4 L152.914668,89 L153.970668,89 Z M158.089779,89.112 C159.521779,89.112 160.393779,88.264 160.393779,86.792 L160.393779,85.608 C160.393779,84.176 159.521779,83.288 158.089779,83.288 C156.657779,83.288 155.785779,84.176 155.785779,85.608 L155.785779,86.792 C155.785779,88.264 156.657779,89.112 158.089779,89.112 Z M158.089779,88.168 C157.241779,88.168 156.841779,87.648 156.841779,86.84 L156.841779,85.56 C156.841779,84.8 157.281779,84.232 158.089779,84.232 C158.873779,84.232 159.337779,84.768 159.337779,85.56 L159.337779,86.84 C159.337779,87.616 158.961779,88.168 158.089779,88.168 Z M163.264891,89 L163.264891,84.392 L163.360891,84.392 L164.640891,89 L166.512891,89 L166.512891,83.4 L165.456891,83.4 L165.456891,88.008 L165.360891,88.008 L164.080891,83.4 L162.208891,83.4 L162.208891,89 L163.264891,89 Z M169.192002,89 L169.528002,87.752 L171.480002,87.752 L171.816002,89 L172.904002,89 L171.352002,83.4 L169.656002,83.4 L168.104002,89 L169.192002,89 Z M171.232002,86.792 L169.776002,86.792 L170.456002,84.28 L170.552002,84.28 L171.232002,86.792 Z M178.143113,89 L178.143113,88.04 L175.551113,88.04 L175.551113,83.4 L174.495113,83.4 L174.495113,89 L178.143113,89 Z M185.181336,89.112 C186.629336,89.112 187.405336,88.368 187.405336,87.032 L187.405336,86.104 L184.989336,86.104 L184.989336,87.032 L186.349336,87.032 L186.349336,87.088 C186.349336,87.76 186.021336,88.168 185.181336,88.168 C184.357336,88.168 183.917336,87.656 183.917336,86.888 L183.917336,85.512 C183.917336,84.808 184.389336,84.232 185.181336,84.232 C185.949336,84.232 186.349336,84.68 186.349336,85.352 L186.349336,85.432 L187.405336,85.432 L187.405336,85.368 C187.405336,84.056 186.597336,83.288 185.181336,83.288 C183.765336,83.288 182.861336,84.168 182.861336,85.56 L182.861336,86.84 C182.861336,88.328 183.805336,89.112 185.181336,89.112 Z M191.532447,89 L191.532447,87.104 L193.500447,83.4 L192.300447,83.4 L191.076447,85.784 L190.932447,85.784 L189.708447,83.4 L188.508447,83.4 L190.476447,87.104 L190.476447,89 L191.532447,89 Z M196.051559,89 L196.051559,84.52 L196.147559,84.52 L197.307559,89 L198.859559,89 L200.019559,84.52 L200.115559,84.52 L200.115559,89 L201.139559,89 L201.139559,83.4 L199.315559,83.4 L198.131559,87.896 L198.035559,87.896 L196.851559,83.4 L195.027559,83.4 L195.027559,89 L196.051559,89 Z M210.177781,89 L210.177781,88.04 L207.505781,88.04 L207.505781,86.656 L209.905781,86.656 L209.905781,85.696 L207.505781,85.696 L207.505781,84.36 L210.129781,84.36 L210.129781,83.4 L206.449781,83.4 L206.449781,89 L210.177781,89 Z M215.232893,90.44 L215.232893,89.528 L214.808893,89.528 C214.664893,89.528 214.584893,89.448 214.584893,89.288 L214.584893,89.072 C215.696893,88.88 216.360893,88.072 216.360893,86.792 L216.360893,85.608 C216.360893,84.176 215.488893,83.288 214.056893,83.288 C212.624893,83.288 211.752893,84.176 211.752893,85.608 L211.752893,86.792 C211.752893,88.072 212.416893,88.88 213.528893,89.072 L213.528893,89.672 C213.528893,90.12 213.864893,90.44 214.312893,90.44 L215.232893,90.44 Z M214.056893,88.168 C213.208893,88.168 212.808893,87.648 212.808893,86.84 L212.808893,85.56 C212.808893,84.8 213.248893,84.232 214.056893,84.232 C214.840893,84.232 215.304893,84.768 215.304893,85.56 L215.304893,86.84 C215.304893,87.616 214.928893,88.168 214.056893,88.168 Z M220.336004,89.112 C221.736004,89.112 222.528004,88.296 222.528004,87.016 L222.528004,83.4 L221.472004,83.4 L221.472004,87.064 C221.472004,87.744 221.064004,88.168 220.336004,88.168 C219.608004,88.168 219.200004,87.744 219.200004,87.064 L219.200004,83.4 L218.144004,83.4 L218.144004,87.016 C218.144004,88.296 218.936004,89.112 220.336004,89.112 Z M225.591115,89 L225.591115,83.4 L224.535115,83.4 L224.535115,89 L225.591115,89 Z M228.686227,89 L228.686227,86.952 L229.934227,86.952 C230.966227,86.952 231.726227,86.248 231.726227,85.176 C231.726227,84.104 230.990227,83.4 229.934227,83.4 L227.630227,83.4 L227.630227,89 L228.686227,89 Z M229.830227,85.992 L228.686227,85.992 L228.686227,84.36 L229.830227,84.36 C230.334227,84.36 230.670227,84.68 230.670227,85.176 C230.670227,85.672 230.334227,85.992 229.830227,85.992 Z M234.421338,89 L234.421338,84.52 L234.517338,84.52 L235.677338,89 L237.229338,89 L238.389338,84.52 L238.485338,84.52 L238.485338,89 L239.509338,89 L239.509338,83.4 L237.685338,83.4 L236.501338,87.896 L236.405338,87.896 L235.221338,83.4 L233.397338,83.4 L233.397338,89 L234.421338,89 Z M245.276449,89 L245.276449,88.04 L242.604449,88.04 L242.604449,86.656 L245.004449,86.656 L245.004449,85.696 L242.604449,85.696 L242.604449,84.36 L245.228449,84.36 L245.228449,83.4 L241.548449,83.4 L241.548449,89 L245.276449,89 Z M248.131561,89 L248.131561,84.392 L248.227561,84.392 L249.507561,89 L251.379561,89 L251.379561,83.4 L250.323561,83.4 L250.323561,88.008 L250.227561,88.008 L248.947561,83.4 L247.075561,83.4 L247.075561,89 L248.131561,89 Z M255.770672,89 L255.770672,84.36 L257.466672,84.36 L257.466672,83.4 L253.018672,83.4 L253.018672,84.36 L254.714672,84.36 L254.714672,89 L255.770672,89 Z M260.993783,89.112 C262.185783,89.112 263.065783,88.48 263.065783,87.352 C263.065783,86.336 262.385783,85.928 261.233783,85.672 L261.161783,85.656 C260.489783,85.504 259.993783,85.408 259.993783,84.88 C259.993783,84.496 260.337783,84.216 260.897783,84.216 C261.537783,84.216 261.945783,84.496 261.945783,85.136 L261.945783,85.304 L262.969783,85.304 L262.969783,85.064 C262.969783,83.944 262.097783,83.288 260.897783,83.288 C259.809783,83.288 258.953783,83.912 258.953783,84.912 C258.953783,85.928 259.641783,86.328 260.801783,86.584 L260.873783,86.6 C261.609783,86.76 262.025783,86.92 262.025783,87.408 C262.025783,87.824 261.705783,88.184 261.025783,88.184 C260.177783,88.184 259.785783,87.72 259.785783,87.032 L259.785783,86.888 L258.745783,86.888 L258.745783,87.064 C258.745783,88.376 259.625783,89.112 260.993783,89.112 Z" id="THEINACCESSIBLENATUREOFTRADITIONALGYMEQUIPMENTS" fill="#FFFFFF" fill-rule="nonzero"></path>
    </g>
</svg>