<?xml version="1.0" encoding="UTF-8"?>
<svg width="300px" height="160px" viewBox="0 0 300 160" version="1.1" xmlns="http://www.w3.org/2000/svg" xmlns:xlink="http://www.w3.org/1999/xlink">
    <!-- Generator: Sketch 61.2 (89653) - https://sketch.com -->
    <title>DDef6</title>
    <desc>Created with Sketch.</desc>
    <g id="DDef6" stroke="none" stroke-width="1" fill="none" fill-rule="evenodd">
        <rect fill="#0B0B0B" x="0" y="0" width="300" height="160"></rect>
        <g id="DUMBBELL-Copy-2" opacity="0.195870536" transform="translate(55.487067, 34.000000) rotate(-315.000000) translate(-55.487067, -34.000000) translate(24.987067, 3.000000)" fill-rule="nonzero">
            <path d="M59.3518056,16.9732724 L54.7827815,12.4042374 L58.2174815,8.97082411 C58.5211622,8.66746643 58.6918882,8.25640652 58.6918882,7.82646094 C58.6918882,7.39651537 58.5211622,6.98545546 58.2175894,6.68198986 L53.6189958,2.08338524 C53.0119582,1.47634612 51.9369889,1.47634612 51.3299512,2.08338524 L47.8965462,5.51809352 L43.3268746,0.948195105 C42.0626175,-0.316065035 40.0127187,-0.316065035 38.7483537,0.948195105 C37.4838808,2.21245525 37.4838808,4.2623589 38.7483537,5.52672696 L54.7731768,21.5518043 C56.0376497,22.8160644 58.0875485,22.8160644 59.3518056,21.5518043 C60.6160627,20.2875442 60.6160627,18.2376405 59.3518056,16.9732724 Z" id="Path" fill="#FFFFFF"></path>
            <path d="M21.5516447,55.67319 L5.52682163,39.6481895 C4.26234868,38.3839355 2.21266578,38.3839355 0.948192831,39.6481895 C-0.316064277,40.9126594 -0.316064277,42.9625533 0.948192831,44.2268073 L5.51797237,48.7965759 L2.08996323,52.2231739 C1.78639044,52.526746 1.61566447,52.937696 1.61566447,53.3676395 C1.61566447,53.797583 1.78639044,54.208641 2.08996323,54.5121051 L6.68855682,59.1091768 C7.00464807,59.4254832 7.41883662,59.5835824 7.83302516,59.5835824 C8.2472137,59.5835824 8.66140225,59.4254832 8.9774935,59.1092847 L12.4040997,55.6826868 L16.9731238,60.2518078 C18.2373809,61.5160619 20.2872797,61.5160619 21.5516447,60.2518078 C22.8161176,58.9873379 22.8161176,56.9374441 21.5516447,55.67319 Z" id="Path" fill="#FFFFFF"></path>
            <polygon id="Path" fill="#FFFFFF" points="36.2904066 20.6999995 21.5999994 35.3904066 24.9095918 38.699999 39.599999 24.0095918"></polygon>
            <path d="M53.9544033,25.9892149 L33.4107934,5.4454413 C32.1502149,4.18485274 30.1061731,4.18485274 28.8455946,5.4454413 C27.5848008,6.70624508 27.5848008,8.74998034 28.8455946,10.0107841 L49.3892044,30.5545577 C50.649783,31.8151463 52.6937171,31.8151463 53.9544033,30.5545577 C55.215197,29.2939692 55.215197,27.2500187 53.9544033,25.9892149 Z" id="Path" fill="#E69E3F"></path>
            <path d="M31.4544038,50.2893219 L10.9106864,29.7454407 C9.65010785,28.4848521 7.60617367,28.4848521 6.34559515,29.7454407 C5.08480143,31.0062444 5.08480143,33.0501949 6.34559515,34.3107835 L26.889205,54.8545571 C28.1497835,56.1151457 30.1937177,56.1151457 31.4544038,54.8545571 C32.7151976,53.5939685 32.7151976,51.5500181 31.4544038,50.2893219 Z" id="Path" fill="#E69E3F"></path>
        </g>
        <g id="DUMBBELL-Copy-6" opacity="0.195870536" transform="translate(141.487067, 32.000000) rotate(-315.000000) translate(-141.487067, -32.000000) translate(110.987067, 1.000000)" fill-rule="nonzero">
            <path d="M59.3518056,16.9732724 L54.7827815,12.4042374 L58.2174815,8.97082411 C58.5211622,8.66746643 58.6918882,8.25640652 58.6918882,7.82646094 C58.6918882,7.39651537 58.5211622,6.98545546 58.2175894,6.68198986 L53.6189958,2.08338524 C53.0119582,1.47634612 51.9369889,1.47634612 51.3299512,2.08338524 L47.8965462,5.51809352 L43.3268746,0.948195105 C42.0626175,-0.316065035 40.0127187,-0.316065035 38.7483537,0.948195105 C37.4838808,2.21245525 37.4838808,4.2623589 38.7483537,5.52672696 L54.7731768,21.5518043 C56.0376497,22.8160644 58.0875485,22.8160644 59.3518056,21.5518043 C60.6160627,20.2875442 60.6160627,18.2376405 59.3518056,16.9732724 Z" id="Path" fill="#FFFFFF"></path>
            <path d="M21.5516447,55.67319 L5.52682163,39.6481895 C4.26234868,38.3839355 2.21266578,38.3839355 0.948192831,39.6481895 C-0.316064277,40.9126594 -0.316064277,42.9625533 0.948192831,44.2268073 L5.51797237,48.7965759 L2.08996323,52.2231739 C1.78639044,52.526746 1.61566447,52.937696 1.61566447,53.3676395 C1.61566447,53.797583 1.78639044,54.208641 2.08996323,54.5121051 L6.68855682,59.1091768 C7.00464807,59.4254832 7.41883662,59.5835824 7.83302516,59.5835824 C8.2472137,59.5835824 8.66140225,59.4254832 8.9774935,59.1092847 L12.4040997,55.6826868 L16.9731238,60.2518078 C18.2373809,61.5160619 20.2872797,61.5160619 21.5516447,60.2518078 C22.8161176,58.9873379 22.8161176,56.9374441 21.5516447,55.67319 Z" id="Path" fill="#FFFFFF"></path>
            <polygon id="Path" fill="#FFFFFF" points="36.2904066 20.6999995 21.5999994 35.3904066 24.9095918 38.699999 39.599999 24.0095918"></polygon>
            <path d="M53.9544033,25.9892149 L33.4107934,5.4454413 C32.1502149,4.18485274 30.1061731,4.18485274 28.8455946,5.4454413 C27.5848008,6.70624508 27.5848008,8.74998034 28.8455946,10.0107841 L49.3892044,30.5545577 C50.649783,31.8151463 52.6937171,31.8151463 53.9544033,30.5545577 C55.215197,29.2939692 55.215197,27.2500187 53.9544033,25.9892149 Z" id="Path" fill="#E69E3F"></path>
            <path d="M31.4544038,50.2893219 L10.9106864,29.7454407 C9.65010785,28.4848521 7.60617367,28.4848521 6.34559515,29.7454407 C5.08480143,31.0062444 5.08480143,33.0501949 6.34559515,34.3107835 L26.889205,54.8545571 C28.1497835,56.1151457 30.1937177,56.1151457 31.4544038,54.8545571 C32.7151976,53.5939685 32.7151976,51.5500181 31.4544038,50.2893219 Z" id="Path" fill="#E69E3F"></path>
        </g>
        <g id="DUMBBELL-Copy-10" opacity="0.195870536" transform="translate(141.487067, 80.487067) rotate(-315.000000) translate(-141.487067, -80.487067) translate(110.987067, 49.487067)" fill-rule="nonzero">
            <path d="M59.3518056,16.9732724 L54.7827815,12.4042374 L58.2174815,8.97082411 C58.5211622,8.66746643 58.6918882,8.25640652 58.6918882,7.82646094 C58.6918882,7.39651537 58.5211622,6.98545546 58.2175894,6.68198986 L53.6189958,2.08338524 C53.0119582,1.47634612 51.9369889,1.47634612 51.3299512,2.08338524 L47.8965462,5.51809352 L43.3268746,0.948195105 C42.0626175,-0.316065035 40.0127187,-0.316065035 38.7483537,0.948195105 C37.4838808,2.21245525 37.4838808,4.2623589 38.7483537,5.52672696 L54.7731768,21.5518043 C56.0376497,22.8160644 58.0875485,22.8160644 59.3518056,21.5518043 C60.6160627,20.2875442 60.6160627,18.2376405 59.3518056,16.9732724 Z" id="Path" fill="#FFFFFF"></path>
            <path d="M21.5516447,55.67319 L5.52682163,39.6481895 C4.26234868,38.3839355 2.21266578,38.3839355 0.948192831,39.6481895 C-0.316064277,40.9126594 -0.316064277,42.9625533 0.948192831,44.2268073 L5.51797237,48.7965759 L2.08996323,52.2231739 C1.78639044,52.526746 1.61566447,52.937696 1.61566447,53.3676395 C1.61566447,53.797583 1.78639044,54.208641 2.08996323,54.5121051 L6.68855682,59.1091768 C7.00464807,59.4254832 7.41883662,59.5835824 7.83302516,59.5835824 C8.2472137,59.5835824 8.66140225,59.4254832 8.9774935,59.1092847 L12.4040997,55.6826868 L16.9731238,60.2518078 C18.2373809,61.5160619 20.2872797,61.5160619 21.5516447,60.2518078 C22.8161176,58.9873379 22.8161176,56.9374441 21.5516447,55.67319 Z" id="Path" fill="#FFFFFF"></path>
            <polygon id="Path" fill="#FFFFFF" points="36.2904066 20.6999995 21.5999994 35.3904066 24.9095918 38.699999 39.599999 24.0095918"></polygon>
            <path d="M53.9544033,25.9892149 L33.4107934,5.4454413 C32.1502149,4.18485274 30.1061731,4.18485274 28.8455946,5.4454413 C27.5848008,6.70624508 27.5848008,8.74998034 28.8455946,10.0107841 L49.3892044,30.5545577 C50.649783,31.8151463 52.6937171,31.8151463 53.9544033,30.5545577 C55.215197,29.2939692 55.215197,27.2500187 53.9544033,25.9892149 Z" id="Path" fill="#E69E3F"></path>
            <path d="M31.4544038,50.2893219 L10.9106864,29.7454407 C9.65010785,28.4848521 7.60617367,28.4848521 6.34559515,29.7454407 C5.08480143,31.0062444 5.08480143,33.0501949 6.34559515,34.3107835 L26.889205,54.8545571 C28.1497835,56.1151457 30.1937177,56.1151457 31.4544038,54.8545571 C32.7151976,53.5939685 32.7151976,51.5500181 31.4544038,50.2893219 Z" id="Path" fill="#E69E3F"></path>
        </g>
        <g id="DUMBBELL-Copy-8" opacity="0.195870536" transform="translate(141.487067, 126.000000) rotate(-315.000000) translate(-141.487067, -126.000000) translate(110.987067, 95.000000)" fill-rule="nonzero">
            <path d="M59.3518056,16.9732724 L54.7827815,12.4042374 L58.2174815,8.97082411 C58.5211622,8.66746643 58.6918882,8.25640652 58.6918882,7.82646094 C58.6918882,7.39651537 58.5211622,6.98545546 58.2175894,6.68198986 L53.6189958,2.08338524 C53.0119582,1.47634612 51.9369889,1.47634612 51.3299512,2.08338524 L47.8965462,5.51809352 L43.3268746,0.948195105 C42.0626175,-0.316065035 40.0127187,-0.316065035 38.7483537,0.948195105 C37.4838808,2.21245525 37.4838808,4.2623589 38.7483537,5.52672696 L54.7731768,21.5518043 C56.0376497,22.8160644 58.0875485,22.8160644 59.3518056,21.5518043 C60.6160627,20.2875442 60.6160627,18.2376405 59.3518056,16.9732724 Z" id="Path" fill="#FFFFFF"></path>
            <path d="M21.5516447,55.67319 L5.52682163,39.6481895 C4.26234868,38.3839355 2.21266578,38.3839355 0.948192831,39.6481895 C-0.316064277,40.9126594 -0.316064277,42.9625533 0.948192831,44.2268073 L5.51797237,48.7965759 L2.08996323,52.2231739 C1.78639044,52.526746 1.61566447,52.937696 1.61566447,53.3676395 C1.61566447,53.797583 1.78639044,54.208641 2.08996323,54.5121051 L6.68855682,59.1091768 C7.00464807,59.4254832 7.41883662,59.5835824 7.83302516,59.5835824 C8.2472137,59.5835824 8.66140225,59.4254832 8.9774935,59.1092847 L12.4040997,55.6826868 L16.9731238,60.2518078 C18.2373809,61.5160619 20.2872797,61.5160619 21.5516447,60.2518078 C22.8161176,58.9873379 22.8161176,56.9374441 21.5516447,55.67319 Z" id="Path" fill="#FFFFFF"></path>
            <polygon id="Path" fill="#FFFFFF" points="36.2904066 20.6999995 21.5999994 35.3904066 24.9095918 38.699999 39.599999 24.0095918"></polygon>
            <path d="M53.9544033,25.9892149 L33.4107934,5.4454413 C32.1502149,4.18485274 30.1061731,4.18485274 28.8455946,5.4454413 C27.5848008,6.70624508 27.5848008,8.74998034 28.8455946,10.0107841 L49.3892044,30.5545577 C50.649783,31.8151463 52.6937171,31.8151463 53.9544033,30.5545577 C55.215197,29.2939692 55.215197,27.2500187 53.9544033,25.9892149 Z" id="Path" fill="#E69E3F"></path>
            <path d="M31.4544038,50.2893219 L10.9106864,29.7454407 C9.65010785,28.4848521 7.60617367,28.4848521 6.34559515,29.7454407 C5.08480143,31.0062444 5.08480143,33.0501949 6.34559515,34.3107835 L26.889205,54.8545571 C28.1497835,56.1151457 30.1937177,56.1151457 31.4544038,54.8545571 C32.7151976,53.5939685 32.7151976,51.5500181 31.4544038,50.2893219 Z" id="Path" fill="#E69E3F"></path>
        </g>
        <g id="DUMBBELL-Copy-9" opacity="0.195870536" transform="translate(228.487067, 126.000000) rotate(-315.000000) translate(-228.487067, -126.000000) translate(197.987067, 95.000000)" fill-rule="nonzero">
            <path d="M59.3518056,16.9732724 L54.7827815,12.4042374 L58.2174815,8.97082411 C58.5211622,8.66746643 58.6918882,8.25640652 58.6918882,7.82646094 C58.6918882,7.39651537 58.5211622,6.98545546 58.2175894,6.68198986 L53.6189958,2.08338524 C53.0119582,1.47634612 51.9369889,1.47634612 51.3299512,2.08338524 L47.8965462,5.51809352 L43.3268746,0.948195105 C42.0626175,-0.316065035 40.0127187,-0.316065035 38.7483537,0.948195105 C37.4838808,2.21245525 37.4838808,4.2623589 38.7483537,5.52672696 L54.7731768,21.5518043 C56.0376497,22.8160644 58.0875485,22.8160644 59.3518056,21.5518043 C60.6160627,20.2875442 60.6160627,18.2376405 59.3518056,16.9732724 Z" id="Path" fill="#FFFFFF"></path>
            <path d="M21.5516447,55.67319 L5.52682163,39.6481895 C4.26234868,38.3839355 2.21266578,38.3839355 0.948192831,39.6481895 C-0.316064277,40.9126594 -0.316064277,42.9625533 0.948192831,44.2268073 L5.51797237,48.7965759 L2.08996323,52.2231739 C1.78639044,52.526746 1.61566447,52.937696 1.61566447,53.3676395 C1.61566447,53.797583 1.78639044,54.208641 2.08996323,54.5121051 L6.68855682,59.1091768 C7.00464807,59.4254832 7.41883662,59.5835824 7.83302516,59.5835824 C8.2472137,59.5835824 8.66140225,59.4254832 8.9774935,59.1092847 L12.4040997,55.6826868 L16.9731238,60.2518078 C18.2373809,61.5160619 20.2872797,61.5160619 21.5516447,60.2518078 C22.8161176,58.9873379 22.8161176,56.9374441 21.5516447,55.67319 Z" id="Path" fill="#FFFFFF"></path>
            <polygon id="Path" fill="#FFFFFF" points="36.2904066 20.6999995 21.5999994 35.3904066 24.9095918 38.699999 39.599999 24.0095918"></polygon>
            <path d="M53.9544033,25.9892149 L33.4107934,5.4454413 C32.1502149,4.18485274 30.1061731,4.18485274 28.8455946,5.4454413 C27.5848008,6.70624508 27.5848008,8.74998034 28.8455946,10.0107841 L49.3892044,30.5545577 C50.649783,31.8151463 52.6937171,31.8151463 53.9544033,30.5545577 C55.215197,29.2939692 55.215197,27.2500187 53.9544033,25.9892149 Z" id="Path" fill="#E69E3F"></path>
            <path d="M31.4544038,50.2893219 L10.9106864,29.7454407 C9.65010785,28.4848521 7.60617367,28.4848521 6.34559515,29.7454407 C5.08480143,31.0062444 5.08480143,33.0501949 6.34559515,34.3107835 L26.889205,54.8545571 C28.1497835,56.1151457 30.1937177,56.1151457 31.4544038,54.8545571 C32.7151976,53.5939685 32.7151976,51.5500181 31.4544038,50.2893219 Z" id="Path" fill="#E69E3F"></path>
        </g>
        <g id="DUMBBELL-Copy-7" opacity="0.195870536" transform="translate(228.487067, 32.000000) rotate(-315.000000) translate(-228.487067, -32.000000) translate(197.987067, 1.000000)" fill-rule="nonzero">
            <path d="M59.3518056,16.9732724 L54.7827815,12.4042374 L58.2174815,8.97082411 C58.5211622,8.66746643 58.6918882,8.25640652 58.6918882,7.82646094 C58.6918882,7.39651537 58.5211622,6.98545546 58.2175894,6.68198986 L53.6189958,2.08338524 C53.0119582,1.47634612 51.9369889,1.47634612 51.3299512,2.08338524 L47.8965462,5.51809352 L43.3268746,0.948195105 C42.0626175,-0.316065035 40.0127187,-0.316065035 38.7483537,0.948195105 C37.4838808,2.21245525 37.4838808,4.2623589 38.7483537,5.52672696 L54.7731768,21.5518043 C56.0376497,22.8160644 58.0875485,22.8160644 59.3518056,21.5518043 C60.6160627,20.2875442 60.6160627,18.2376405 59.3518056,16.9732724 Z" id="Path" fill="#FFFFFF"></path>
            <path d="M21.5516447,55.67319 L5.52682163,39.6481895 C4.26234868,38.3839355 2.21266578,38.3839355 0.948192831,39.6481895 C-0.316064277,40.9126594 -0.316064277,42.9625533 0.948192831,44.2268073 L5.51797237,48.7965759 L2.08996323,52.2231739 C1.78639044,52.526746 1.61566447,52.937696 1.61566447,53.3676395 C1.61566447,53.797583 1.78639044,54.208641 2.08996323,54.5121051 L6.68855682,59.1091768 C7.00464807,59.4254832 7.41883662,59.5835824 7.83302516,59.5835824 C8.2472137,59.5835824 8.66140225,59.4254832 8.9774935,59.1092847 L12.4040997,55.6826868 L16.9731238,60.2518078 C18.2373809,61.5160619 20.2872797,61.5160619 21.5516447,60.2518078 C22.8161176,58.9873379 22.8161176,56.9374441 21.5516447,55.67319 Z" id="Path" fill="#FFFFFF"></path>
            <polygon id="Path" fill="#FFFFFF" points="36.2904066 20.6999995 21.5999994 35.3904066 24.9095918 38.699999 39.599999 24.0095918"></polygon>
            <path d="M53.9544033,25.9892149 L33.4107934,5.4454413 C32.1502149,4.18485274 30.1061731,4.18485274 28.8455946,5.4454413 C27.5848008,6.70624508 27.5848008,8.74998034 28.8455946,10.0107841 L49.3892044,30.5545577 C50.649783,31.8151463 52.6937171,31.8151463 53.9544033,30.5545577 C55.215197,29.2939692 55.215197,27.2500187 53.9544033,25.9892149 Z" id="Path" fill="#E69E3F"></path>
            <path d="M31.4544038,50.2893219 L10.9106864,29.7454407 C9.65010785,28.4848521 7.60617367,28.4848521 6.34559515,29.7454407 C5.08480143,31.0062444 5.08480143,33.0501949 6.34559515,34.3107835 L26.889205,54.8545571 C28.1497835,56.1151457 30.1937177,56.1151457 31.4544038,54.8545571 C32.7151976,53.5939685 32.7151976,51.5500181 31.4544038,50.2893219 Z" id="Path" fill="#E69E3F"></path>
        </g>
        <g id="DUMBBELL-Copy-11" opacity="0.195870536" transform="translate(228.487067, 80.487067) rotate(-315.000000) translate(-228.487067, -80.487067) translate(197.987067, 49.487067)" fill-rule="nonzero">
            <path d="M59.3518056,16.9732724 L54.7827815,12.4042374 L58.2174815,8.97082411 C58.5211622,8.66746643 58.6918882,8.25640652 58.6918882,7.82646094 C58.6918882,7.39651537 58.5211622,6.98545546 58.2175894,6.68198986 L53.6189958,2.08338524 C53.0119582,1.47634612 51.9369889,1.47634612 51.3299512,2.08338524 L47.8965462,5.51809352 L43.3268746,0.948195105 C42.0626175,-0.316065035 40.0127187,-0.316065035 38.7483537,0.948195105 C37.4838808,2.21245525 37.4838808,4.2623589 38.7483537,5.52672696 L54.7731768,21.5518043 C56.0376497,22.8160644 58.0875485,22.8160644 59.3518056,21.5518043 C60.6160627,20.2875442 60.6160627,18.2376405 59.3518056,16.9732724 Z" id="Path" fill="#FFFFFF"></path>
            <path d="M21.5516447,55.67319 L5.52682163,39.6481895 C4.26234868,38.3839355 2.21266578,38.3839355 0.948192831,39.6481895 C-0.316064277,40.9126594 -0.316064277,42.9625533 0.948192831,44.2268073 L5.51797237,48.7965759 L2.08996323,52.2231739 C1.78639044,52.526746 1.61566447,52.937696 1.61566447,53.3676395 C1.61566447,53.797583 1.78639044,54.208641 2.08996323,54.5121051 L6.68855682,59.1091768 C7.00464807,59.4254832 7.41883662,59.5835824 7.83302516,59.5835824 C8.2472137,59.5835824 8.66140225,59.4254832 8.9774935,59.1092847 L12.4040997,55.6826868 L16.9731238,60.2518078 C18.2373809,61.5160619 20.2872797,61.5160619 21.5516447,60.2518078 C22.8161176,58.9873379 22.8161176,56.9374441 21.5516447,55.67319 Z" id="Path" fill="#FFFFFF"></path>
            <polygon id="Path" fill="#FFFFFF" points="36.2904066 20.6999995 21.5999994 35.3904066 24.9095918 38.699999 39.599999 24.0095918"></polygon>
            <path d="M53.9544033,25.9892149 L33.4107934,5.4454413 C32.1502149,4.18485274 30.1061731,4.18485274 28.8455946,5.4454413 C27.5848008,6.70624508 27.5848008,8.74998034 28.8455946,10.0107841 L49.3892044,30.5545577 C50.649783,31.8151463 52.6937171,31.8151463 53.9544033,30.5545577 C55.215197,29.2939692 55.215197,27.2500187 53.9544033,25.9892149 Z" id="Path" fill="#E69E3F"></path>
            <path d="M31.4544038,50.2893219 L10.9106864,29.7454407 C9.65010785,28.4848521 7.60617367,28.4848521 6.34559515,29.7454407 C5.08480143,31.0062444 5.08480143,33.0501949 6.34559515,34.3107835 L26.889205,54.8545571 C28.1497835,56.1151457 30.1937177,56.1151457 31.4544038,54.8545571 C32.7151976,53.5939685 32.7151976,51.5500181 31.4544038,50.2893219 Z" id="Path" fill="#E69E3F"></path>
        </g>
        <g id="DUMBBELL-Copy-3" opacity="0.195870536" transform="translate(55.487067, 80.000000) rotate(-315.000000) translate(-55.487067, -80.000000) translate(24.987067, 49.000000)" fill-rule="nonzero">
            <path d="M59.3518056,16.9732724 L54.7827815,12.4042374 L58.2174815,8.97082411 C58.5211622,8.66746643 58.6918882,8.25640652 58.6918882,7.82646094 C58.6918882,7.39651537 58.5211622,6.98545546 58.2175894,6.68198986 L53.6189958,2.08338524 C53.0119582,1.47634612 51.9369889,1.47634612 51.3299512,2.08338524 L47.8965462,5.51809352 L43.3268746,0.948195105 C42.0626175,-0.316065035 40.0127187,-0.316065035 38.7483537,0.948195105 C37.4838808,2.21245525 37.4838808,4.2623589 38.7483537,5.52672696 L54.7731768,21.5518043 C56.0376497,22.8160644 58.0875485,22.8160644 59.3518056,21.5518043 C60.6160627,20.2875442 60.6160627,18.2376405 59.3518056,16.9732724 Z" id="Path" fill="#FFFFFF"></path>
            <path d="M21.5516447,55.67319 L5.52682163,39.6481895 C4.26234868,38.3839355 2.21266578,38.3839355 0.948192831,39.6481895 C-0.316064277,40.9126594 -0.316064277,42.9625533 0.948192831,44.2268073 L5.51797237,48.7965759 L2.08996323,52.2231739 C1.78639044,52.526746 1.61566447,52.937696 1.61566447,53.3676395 C1.61566447,53.797583 1.78639044,54.208641 2.08996323,54.5121051 L6.68855682,59.1091768 C7.00464807,59.4254832 7.41883662,59.5835824 7.83302516,59.5835824 C8.2472137,59.5835824 8.66140225,59.4254832 8.9774935,59.1092847 L12.4040997,55.6826868 L16.9731238,60.2518078 C18.2373809,61.5160619 20.2872797,61.5160619 21.5516447,60.2518078 C22.8161176,58.9873379 22.8161176,56.9374441 21.5516447,55.67319 Z" id="Path" fill="#FFFFFF"></path>
            <polygon id="Path" fill="#FFFFFF" points="36.2904066 20.6999995 21.5999994 35.3904066 24.9095918 38.699999 39.599999 24.0095918"></polygon>
            <path d="M53.9544033,25.9892149 L33.4107934,5.4454413 C32.1502149,4.18485274 30.1061731,4.18485274 28.8455946,5.4454413 C27.5848008,6.70624508 27.5848008,8.74998034 28.8455946,10.0107841 L49.3892044,30.5545577 C50.649783,31.8151463 52.6937171,31.8151463 53.9544033,30.5545577 C55.215197,29.2939692 55.215197,27.2500187 53.9544033,25.9892149 Z" id="Path" fill="#E69E3F"></path>
            <path d="M31.4544038,50.2893219 L10.9106864,29.7454407 C9.65010785,28.4848521 7.60617367,28.4848521 6.34559515,29.7454407 C5.08480143,31.0062444 5.08480143,33.0501949 6.34559515,34.3107835 L26.889205,54.8545571 C28.1497835,56.1151457 30.1937177,56.1151457 31.4544038,54.8545571 C32.7151976,53.5939685 32.7151976,51.5500181 31.4544038,50.2893219 Z" id="Path" fill="#E69E3F"></path>
        </g>
        <g id="DUMBBELL-Copy-5" opacity="0.195870536" transform="translate(55.487067, 126.000000) rotate(-315.000000) translate(-55.487067, -126.000000) translate(24.987067, 95.000000)" fill-rule="nonzero">
            <path d="M59.3518056,16.9732724 L54.7827815,12.4042374 L58.2174815,8.97082411 C58.5211622,8.66746643 58.6918882,8.25640652 58.6918882,7.82646094 C58.6918882,7.39651537 58.5211622,6.98545546 58.2175894,6.68198986 L53.6189958,2.08338524 C53.0119582,1.47634612 51.9369889,1.47634612 51.3299512,2.08338524 L47.8965462,5.51809352 L43.3268746,0.948195105 C42.0626175,-0.316065035 40.0127187,-0.316065035 38.7483537,0.948195105 C37.4838808,2.21245525 37.4838808,4.2623589 38.7483537,5.52672696 L54.7731768,21.5518043 C56.0376497,22.8160644 58.0875485,22.8160644 59.3518056,21.5518043 C60.6160627,20.2875442 60.6160627,18.2376405 59.3518056,16.9732724 Z" id="Path" fill="#FFFFFF"></path>
            <path d="M21.5516447,55.67319 L5.52682163,39.6481895 C4.26234868,38.3839355 2.21266578,38.3839355 0.948192831,39.6481895 C-0.316064277,40.9126594 -0.316064277,42.9625533 0.948192831,44.2268073 L5.51797237,48.7965759 L2.08996323,52.2231739 C1.78639044,52.526746 1.61566447,52.937696 1.61566447,53.3676395 C1.61566447,53.797583 1.78639044,54.208641 2.08996323,54.5121051 L6.68855682,59.1091768 C7.00464807,59.4254832 7.41883662,59.5835824 7.83302516,59.5835824 C8.2472137,59.5835824 8.66140225,59.4254832 8.9774935,59.1092847 L12.4040997,55.6826868 L16.9731238,60.2518078 C18.2373809,61.5160619 20.2872797,61.5160619 21.5516447,60.2518078 C22.8161176,58.9873379 22.8161176,56.9374441 21.5516447,55.67319 Z" id="Path" fill="#FFFFFF"></path>
            <polygon id="Path" fill="#FFFFFF" points="36.2904066 20.6999995 21.5999994 35.3904066 24.9095918 38.699999 39.599999 24.0095918"></polygon>
            <path d="M53.9544033,25.9892149 L33.4107934,5.4454413 C32.1502149,4.18485274 30.1061731,4.18485274 28.8455946,5.4454413 C27.5848008,6.70624508 27.5848008,8.74998034 28.8455946,10.0107841 L49.3892044,30.5545577 C50.649783,31.8151463 52.6937171,31.8151463 53.9544033,30.5545577 C55.215197,29.2939692 55.215197,27.2500187 53.9544033,25.9892149 Z" id="Path" fill="#E69E3F"></path>
            <path d="M31.4544038,50.2893219 L10.9106864,29.7454407 C9.65010785,28.4848521 7.60617367,28.4848521 6.34559515,29.7454407 C5.08480143,31.0062444 5.08480143,33.0501949 6.34559515,34.3107835 L26.889205,54.8545571 C28.1497835,56.1151457 30.1937177,56.1151457 31.4544038,54.8545571 C32.7151976,53.5939685 32.7151976,51.5500181 31.4544038,50.2893219 Z" id="Path" fill="#E69E3F"></path>
        </g>
        <g id="Group-Copy" transform="translate(142.500000, 79.500000) scale(-1, 1) rotate(-180.000000) translate(-142.500000, -79.500000) translate(98.000000, 39.000000)" fill-rule="nonzero">
            <g id="Bold">
                <path d="M89,36.9242419 C89,34.46992 88.0232543,32.1161207 86.2846358,30.380653 C84.5460173,28.6451853 82.1879445,27.6702097 79.7291667,27.6702097 L56.325875,27.6702097 C56.0289386,27.6695928 55.7502657,27.5270361 55.5763583,27.2867903 C55.4024508,27.0465444 55.354355,26.7376838 55.447,26.4560806 C57.4942813,21.2768773 58.158754,15.6556767 57.3753333,10.1430726 C55.1948333,2.38819355 50.57425,0.148717742 46.958625,0.648435484 C43.2851333,1.27232227 40.6457175,4.52006533 40.7916667,8.23674194 C40.7916667,18.401371 32.896625,29.5062097 25.83225,34.3738306 C25.3301722,34.7197033 25.0312491,35.2899643 25.0312491,35.8988952 L25.0312491,73.3444113 C25.0312491,74.2311455 25.6609628,74.9934237 26.533125,75.1619032 C27.857,75.4173145 29.0585,75.661621 30.19325,75.9022258 C35.1831614,77.0888971 40.2975897,77.6742258 45.4270833,77.6456855 L69.5312491,77.6456855 C76.7884583,77.6456855 77.875,73.5739113 77.875,71.1678629 C77.8757178,69.8916491 77.581297,68.6324942 77.0146667,67.4884597 C81.0909644,65.4270075 82.7449213,60.474129 80.723,56.383621 C83.5250583,54.9626752 85.2906046,52.0917095 85.2916667,48.9544839 C85.2940881,47.5678143 84.9458778,46.2029609 84.2792917,44.9863548 C87.1954523,43.3466173 89,40.2651905 89,36.9242419 L89,36.9242419 Z" id="Shape" fill="#FFFFFF"></path>
                <path d="M19.46875,35.9988387 C19.46875,33.9544944 17.8084726,32.2972258 15.7604167,32.2972258 L3.70833333,32.2972258 C1.66027739,32.2972258 0,33.9544944 0,35.9988387 L0,76.7165806 C0,78.760925 1.66027739,80.4181935 3.70833333,80.4181935 L15.7604167,80.4181935 C17.8084726,80.4181935 19.46875,78.760925 19.46875,76.7165806 L19.46875,35.9988387 Z M13.90625,70.2387581 C13.90625,71.7720163 12.661042,73.0149677 11.125,73.0149677 C9.58895804,73.0149677 8.34375,71.7720163 8.34375,70.2387581 C8.34375,68.7054998 9.58895804,67.4625484 11.125,67.4625484 C12.661042,67.4625484 13.90625,68.7054998 13.90625,70.2387581 Z" id="Shape" fill="#E69E3F"></path>
            </g>
        </g>
    </g>
</svg>