<?xml version="1.0" encoding="UTF-8"?>
<svg width="300px" height="160px" viewBox="0 0 300 160" version="1.1" xmlns="http://www.w3.org/2000/svg" xmlns:xlink="http://www.w3.org/1999/xlink">
    <!-- Generator: Sketch 61.2 (89653) - https://sketch.com -->
    <title>DDef5</title>
    <desc>Created with Sketch.</desc>
    <g id="DDef5" stroke="none" stroke-width="1" fill="none" fill-rule="evenodd">
        <rect fill="#0B0B0B" x="0" y="0" width="300" height="160"></rect>
        <g id="Group" transform="translate(149.000000, 79.000000)" fill-rule="nonzero">
            <g id="Bold">
                <path d="M31.875,13.125 C31.875,5.87626266 25.9987373,0 18.75,0 C11.5012627,0 5.625,5.87626266 5.625,13.125 C5.625,20.3737373 11.5012627,26.25 18.75,26.25 C25.9947404,26.2403596 31.8653596,20.3697404 31.875,13.125 L31.875,13.125 Z M18.75,21.25 C14.2649707,21.2444901 10.6305099,17.6100293 10.625,13.125 C10.6339559,11.8422334 10.9502953,10.5803048 11.5475,9.445 C14.6232468,11.8304816 18.4051047,13.1251084 22.2975,13.125 C23.8241221,13.1191662 25.3435129,12.914956 26.8175,12.5175 C26.8325,12.7225 26.88,12.9175 26.88,13.125 C26.8744852,17.6119793 23.2369818,21.2472456 18.75,21.25 L18.75,21.25 Z" id="Shape" fill="#FFFFFF"></path>
                <path d="M17.2225,29.865 C17.2817189,29.5748767 17.5363967,29.3661244 17.8325,29.365 L19.6675,29.365 C19.9632586,29.3670803 20.2174114,29.5754022 20.2775,29.865 L22.695,40.745 C22.7531502,41.0347355 23.0069898,41.243657 23.3025,41.245 L35.0325,41.26 C35.6500921,41.26 36.2280357,40.9557152 36.5777286,40.4466622 C36.9274215,39.9376092 37.0040097,39.2890011 36.7825,38.7125 C33.94379,31.2173516 26.7647067,26.259623 18.75,26.259623 C10.7352933,26.259623 3.55620997,31.2173516 0.7175,38.7125 C0.495990276,39.2890011 0.572578501,39.9376092 0.922271417,40.4466622 C1.27196433,40.9557152 1.84990785,41.26 2.4675,41.26 L14.195,41.245 C14.4911033,41.2438756 14.7457811,41.0351233 14.805,40.745 L17.2225,29.865 Z" id="Shape" fill="#E69E3F"></path>
            </g>
        </g>
        <g id="Group-Copy-6" transform="translate(35.000000, 55.000000)" fill-rule="nonzero">
            <g id="Bold">
                <path d="M31.875,13.125 C31.875,5.87626266 25.9987373,0 18.75,0 C11.5012627,0 5.625,5.87626266 5.625,13.125 C5.625,20.3737373 11.5012627,26.25 18.75,26.25 C25.9947404,26.2403596 31.8653596,20.3697404 31.875,13.125 L31.875,13.125 Z M18.75,21.25 C14.2649707,21.2444901 10.6305099,17.6100293 10.625,13.125 C10.6339559,11.8422334 10.9502953,10.5803048 11.5475,9.445 C14.6232468,11.8304816 18.4051047,13.1251084 22.2975,13.125 C23.8241221,13.1191662 25.3435129,12.914956 26.8175,12.5175 C26.8325,12.7225 26.88,12.9175 26.88,13.125 C26.8744852,17.6119793 23.2369818,21.2472456 18.75,21.25 L18.75,21.25 Z" id="Shape" fill="#FFFFFF"></path>
                <path d="M17.2225,29.865 C17.2817189,29.5748767 17.5363967,29.3661244 17.8325,29.365 L19.6675,29.365 C19.9632586,29.3670803 20.2174114,29.5754022 20.2775,29.865 L22.695,40.745 C22.7531502,41.0347355 23.0069898,41.243657 23.3025,41.245 L35.0325,41.26 C35.6500921,41.26 36.2280357,40.9557152 36.5777286,40.4466622 C36.9274215,39.9376092 37.0040097,39.2890011 36.7825,38.7125 C33.94379,31.2173516 26.7647067,26.259623 18.75,26.259623 C10.7352933,26.259623 3.55620997,31.2173516 0.7175,38.7125 C0.495990276,39.2890011 0.572578501,39.9376092 0.922271417,40.4466622 C1.27196433,40.9557152 1.84990785,41.26 2.4675,41.26 L14.195,41.245 C14.4911033,41.2438756 14.7457811,41.0351233 14.805,40.745 L17.2225,29.865 Z" id="Shape" fill="#E6593F"></path>
            </g>
        </g>
        <g id="Group-Copy" transform="translate(193.000000, 53.000000)" fill-rule="nonzero">
            <g id="Bold">
                <path d="M31.875,13.125 C31.875,5.87626266 25.9987373,0 18.75,0 C11.5012627,0 5.625,5.87626266 5.625,13.125 C5.625,20.3737373 11.5012627,26.25 18.75,26.25 C25.9947404,26.2403596 31.8653596,20.3697404 31.875,13.125 L31.875,13.125 Z M18.75,21.25 C14.2649707,21.2444901 10.6305099,17.6100293 10.625,13.125 C10.6339559,11.8422334 10.9502953,10.5803048 11.5475,9.445 C14.6232468,11.8304816 18.4051047,13.1251084 22.2975,13.125 C23.8241221,13.1191662 25.3435129,12.914956 26.8175,12.5175 C26.8325,12.7225 26.88,12.9175 26.88,13.125 C26.8744852,17.6119793 23.2369818,21.2472456 18.75,21.25 L18.75,21.25 Z" id="Shape" fill="#FFFFFF"></path>
                <path d="M17.2225,29.865 C17.2817189,29.5748767 17.5363967,29.3661244 17.8325,29.365 L19.6675,29.365 C19.9632586,29.3670803 20.2174114,29.5754022 20.2775,29.865 L22.695,40.745 C22.7531502,41.0347355 23.0069898,41.243657 23.3025,41.245 L35.0325,41.26 C35.6500921,41.26 36.2280357,40.9557152 36.5777286,40.4466622 C36.9274215,39.9376092 37.0040097,39.2890011 36.7825,38.7125 C33.94379,31.2173516 26.7647067,26.259623 18.75,26.259623 C10.7352933,26.259623 3.55620997,31.2173516 0.7175,38.7125 C0.495990276,39.2890011 0.572578501,39.9376092 0.922271417,40.4466622 C1.27196433,40.9557152 1.84990785,41.26 2.4675,41.26 L14.195,41.245 C14.4911033,41.2438756 14.7457811,41.0351233 14.805,40.745 L17.2225,29.865 Z" id="Shape" fill="#E69E3F"></path>
            </g>
        </g>
        <g id="Group-Copy-3" transform="translate(237.000000, 32.000000)" fill-rule="nonzero">
            <g id="Bold">
                <path d="M31.875,13.125 C31.875,5.87626266 25.9987373,0 18.75,0 C11.5012627,0 5.625,5.87626266 5.625,13.125 C5.625,20.3737373 11.5012627,26.25 18.75,26.25 C25.9947404,26.2403596 31.8653596,20.3697404 31.875,13.125 L31.875,13.125 Z M18.75,21.25 C14.2649707,21.2444901 10.6305099,17.6100293 10.625,13.125 C10.6339559,11.8422334 10.9502953,10.5803048 11.5475,9.445 C14.6232468,11.8304816 18.4051047,13.1251084 22.2975,13.125 C23.8241221,13.1191662 25.3435129,12.914956 26.8175,12.5175 C26.8325,12.7225 26.88,12.9175 26.88,13.125 C26.8744852,17.6119793 23.2369818,21.2472456 18.75,21.25 L18.75,21.25 Z" id="Shape" fill="#FFFFFF"></path>
                <path d="M17.2225,29.865 C17.2817189,29.5748767 17.5363967,29.3661244 17.8325,29.365 L19.6675,29.365 C19.9632586,29.3670803 20.2174114,29.5754022 20.2775,29.865 L22.695,40.745 C22.7531502,41.0347355 23.0069898,41.243657 23.3025,41.245 L35.0325,41.26 C35.6500921,41.26 36.2280357,40.9557152 36.5777286,40.4466622 C36.9274215,39.9376092 37.0040097,39.2890011 36.7825,38.7125 C33.94379,31.2173516 26.7647067,26.259623 18.75,26.259623 C10.7352933,26.259623 3.55620997,31.2173516 0.7175,38.7125 C0.495990276,39.2890011 0.572578501,39.9376092 0.922271417,40.4466622 C1.27196433,40.9557152 1.84990785,41.26 2.4675,41.26 L14.195,41.245 C14.4911033,41.2438756 14.7457811,41.0351233 14.805,40.745 L17.2225,29.865 Z" id="Shape" fill="#E69E3F"></path>
            </g>
        </g>
        <g id="Group" transform="translate(193.000000, 99.000000)" fill-rule="nonzero">
            <g id="Bold">
                <path d="M4.8975,26.11 C5.4553227,26.4694859 6.13318705,26.5924339 6.78172778,26.4517526 C7.43026851,26.3110713 7.99626438,25.9183055 8.355,25.36 C8.97870836,24.3594955 9.47584083,23.2854542 9.835,22.1625 C12.0877743,24.9053545 15.4505996,26.4950585 19,26.4950585 C22.5494004,26.4950585 25.9122257,24.9053545 28.165,22.1625 C28.5230188,23.2858982 29.0202152,24.3600775 29.645,25.36 C30.1290949,26.1107043 30.976913,26.5461222 31.8690894,26.5022359 C32.7612659,26.4583496 33.5622578,25.9418265 33.9703394,25.1472359 C34.378421,24.3526453 34.3315949,23.4007043 33.8475,22.65 C32.7206053,20.7544922 32.1658266,18.5735781 32.25,16.37 L32.25,13.25 C32.2500001,8.51623085 29.7245644,4.14204772 25.6250001,1.77516311 C21.5254358,-0.591721494 16.4745642,-0.591721494 12.3749999,1.77516311 C8.27543558,4.14204772 5.74999988,8.51623085 5.75,13.25 L5.75,16.37 C5.83519784,18.5748045 5.27943716,20.7570335 4.15,22.6525 C3.79028271,23.2100192 3.66694322,23.8876658 3.80714912,24.5361767 C3.94735503,25.1846877 4.33960525,25.7508655 4.8975,26.11 Z M19,21.500004 C15.2721576,21.5039308 12.2011472,18.5739137 12.03,14.85 C12.0101185,14.7314414 11.9817115,14.6144713 11.945,14.5 C14.6809859,13.7640681 17.1365788,12.2317156 19,10.0975 C20.8634212,12.2317156 23.3190141,13.7640681 26.055,14.5 C26.0178698,14.610951 25.9894503,14.7246291 25.97,14.84 C25.8040365,18.5678509 22.7315416,21.5036925 19,21.500004 Z" id="Shape" fill="#FFFFFF"></path>
                <path d="M2.7225,42.5 L35.2775,42.5 C35.8950921,42.5 36.4730357,42.1957152 36.8227286,41.6866622 C37.1724215,41.1776092 37.2490097,40.5290011 37.0275,39.9525 C34.1872124,32.4619987 27.0109203,27.5082621 19,27.5082621 C10.9890797,27.5082621 3.81278762,32.4619987 0.9725,39.9525 C0.750990276,40.5290011 0.827578501,41.1776092 1.17727142,41.6866622 C1.52696433,42.1957152 2.10490785,42.5 2.7225,42.5 Z" id="Shape" fill="#E69E3F"></path>
            </g>
        </g>
        <g id="Group-Copy-4" transform="translate(238.000000, 78.000000)" fill-rule="nonzero">
            <g id="Bold">
                <path d="M4.8975,26.11 C5.4553227,26.4694859 6.13318705,26.5924339 6.78172778,26.4517526 C7.43026851,26.3110713 7.99626438,25.9183055 8.355,25.36 C8.97870836,24.3594955 9.47584083,23.2854542 9.835,22.1625 C12.0877743,24.9053545 15.4505996,26.4950585 19,26.4950585 C22.5494004,26.4950585 25.9122257,24.9053545 28.165,22.1625 C28.5230188,23.2858982 29.0202152,24.3600775 29.645,25.36 C30.1290949,26.1107043 30.976913,26.5461222 31.8690894,26.5022359 C32.7612659,26.4583496 33.5622578,25.9418265 33.9703394,25.1472359 C34.378421,24.3526453 34.3315949,23.4007043 33.8475,22.65 C32.7206053,20.7544922 32.1658266,18.5735781 32.25,16.37 L32.25,13.25 C32.2500001,8.51623085 29.7245644,4.14204772 25.6250001,1.77516311 C21.5254358,-0.591721494 16.4745642,-0.591721494 12.3749999,1.77516311 C8.27543558,4.14204772 5.74999988,8.51623085 5.75,13.25 L5.75,16.37 C5.83519784,18.5748045 5.27943716,20.7570335 4.15,22.6525 C3.79028271,23.2100192 3.66694322,23.8876658 3.80714912,24.5361767 C3.94735503,25.1846877 4.33960525,25.7508655 4.8975,26.11 Z M19,21.500004 C15.2721576,21.5039308 12.2011472,18.5739137 12.03,14.85 C12.0101185,14.7314414 11.9817115,14.6144713 11.945,14.5 C14.6809859,13.7640681 17.1365788,12.2317156 19,10.0975 C20.8634212,12.2317156 23.3190141,13.7640681 26.055,14.5 C26.0178698,14.610951 25.9894503,14.7246291 25.97,14.84 C25.8040365,18.5678509 22.7315416,21.5036925 19,21.500004 Z" id="Shape" fill="#FFFFFF"></path>
                <path d="M2.7225,42.5 L35.2775,42.5 C35.8950921,42.5 36.4730357,42.1957152 36.8227286,41.6866622 C37.1724215,41.1776092 37.2490097,40.5290011 37.0275,39.9525 C34.1872124,32.4619987 27.0109203,27.5082621 19,27.5082621 C10.9890797,27.5082621 3.81278762,32.4619987 0.9725,39.9525 C0.750990276,40.5290011 0.827578501,41.1776092 1.17727142,41.6866622 C1.52696433,42.1957152 2.10490785,42.5 2.7225,42.5 Z" id="Shape" fill="#E69E3F"></path>
            </g>
        </g>
        <g id="Group-Copy-2" transform="translate(148.000000, 30.000000)" fill-rule="nonzero">
            <g id="Bold">
                <path d="M4.8975,26.11 C5.4553227,26.4694859 6.13318705,26.5924339 6.78172778,26.4517526 C7.43026851,26.3110713 7.99626438,25.9183055 8.355,25.36 C8.97870836,24.3594955 9.47584083,23.2854542 9.835,22.1625 C12.0877743,24.9053545 15.4505996,26.4950585 19,26.4950585 C22.5494004,26.4950585 25.9122257,24.9053545 28.165,22.1625 C28.5230188,23.2858982 29.0202152,24.3600775 29.645,25.36 C30.1290949,26.1107043 30.976913,26.5461222 31.8690894,26.5022359 C32.7612659,26.4583496 33.5622578,25.9418265 33.9703394,25.1472359 C34.378421,24.3526453 34.3315949,23.4007043 33.8475,22.65 C32.7206053,20.7544922 32.1658266,18.5735781 32.25,16.37 L32.25,13.25 C32.2500001,8.51623085 29.7245644,4.14204772 25.6250001,1.77516311 C21.5254358,-0.591721494 16.4745642,-0.591721494 12.3749999,1.77516311 C8.27543558,4.14204772 5.74999988,8.51623085 5.75,13.25 L5.75,16.37 C5.83519784,18.5748045 5.27943716,20.7570335 4.15,22.6525 C3.79028271,23.2100192 3.66694322,23.8876658 3.80714912,24.5361767 C3.94735503,25.1846877 4.33960525,25.7508655 4.8975,26.11 Z M19,21.500004 C15.2721576,21.5039308 12.2011472,18.5739137 12.03,14.85 C12.0101185,14.7314414 11.9817115,14.6144713 11.945,14.5 C14.6809859,13.7640681 17.1365788,12.2317156 19,10.0975 C20.8634212,12.2317156 23.3190141,13.7640681 26.055,14.5 C26.0178698,14.610951 25.9894503,14.7246291 25.97,14.84 C25.8040365,18.5678509 22.7315416,21.5036925 19,21.500004 Z" id="Shape" fill="#FFFFFF"></path>
                <path d="M2.7225,42.5 L35.2775,42.5 C35.8950921,42.5 36.4730357,42.1957152 36.8227286,41.6866622 C37.1724215,41.1776092 37.2490097,40.5290011 37.0275,39.9525 C34.1872124,32.4619987 27.0109203,27.5082621 19,27.5082621 C10.9890797,27.5082621 3.81278762,32.4619987 0.9725,39.9525 C0.750990276,40.5290011 0.827578501,41.1776092 1.17727142,41.6866622 C1.52696433,42.1957152 2.10490785,42.5 2.7225,42.5 Z" id="Shape" fill="#E69E3F"></path>
            </g>
        </g>
    </g>
</svg>