<?xml version="1.0" encoding="UTF-8"?>
<svg width="271px" height="111px" viewBox="0 0 271 111" version="1.1" xmlns="http://www.w3.org/2000/svg" xmlns:xlink="http://www.w3.org/1999/xlink">
    <!-- Generator: Sketch 61.2 (89653) - https://sketch.com -->
    <title>Group 6</title>
    <desc>Created with Sketch.</desc>
    <g id="Desktop" stroke="none" stroke-width="1" fill="none" fill-rule="evenodd">
        <g id="Main-Copy-3" transform="translate(-749.000000, -2800.000000)" fill-rule="nonzero">
            <g id="Group-6" transform="translate(749.000000, 2799.000000)">
                <g id="Group">
                    <g id="Bold">
                        <path d="M117.037037,48.5515333 C110.592097,41.4303118 103.226767,35.2146583 95.1388889,30.0715333 L115.509259,9.56386667 C117.497315,7.55930076 117.497315,4.30989924 115.509259,2.30533333 C111.862963,-1.37013333 107.468056,3.75806667 107.335648,3.89153333 L8.70231481,103.267733 C7.45427871,105.24851 7.55158982,107.800883 8.94675926,109.679267 C10.9354159,111.683227 14.1590285,111.683227 16.1476852,109.679267 L37.2615741,88.3964667 C44.1911016,91.4461692 51.6505716,93.0843312 59.2106481,93.2166667 L60.7384259,93.2166667 C82.4125,93.2166667 103.969444,77.8988 117.016667,63.4433333 C120.790871,59.2113307 120.799649,52.7940111 117.037037,48.5515333 Z M81.9643519,62.5193333 C79.7173629,69.9177442 74.0050766,75.7294699 66.6865741,78.0630667 C61.4880872,79.733474 55.8582037,79.3874868 50.899537,77.0928667 C50.5238076,76.9079277 50.259939,76.5513209 50.1911986,76.1355786 C50.1224581,75.7198363 50.2573252,75.296242 50.5532407,74.9984667 L78.8680556,46.4622667 C79.1617566,46.1635544 79.5807745,46.0266918 79.9924609,46.0950055 C80.4041472,46.1633191 80.7575307,46.428351 80.9407407,46.8062 C83.1868205,51.7389327 83.5512318,57.3328965 81.9643519,62.5193333 L81.9643519,62.5193333 Z" id="Shape" fill="#E69E3F"></path>
                        <path d="M37.6689815,63.1866667 C37.9869318,62.8634108 38.1058675,62.3917236 37.9796296,61.9546667 C37.4129247,60.0202532 37.1113645,58.0167971 37.0833333,56 C37.0833333,43.2422223 47.3434745,32.9 60,32.9 C62.0002547,32.9211155 63.9880842,33.2199479 65.9074074,33.7880667 C66.3419173,33.9140093 66.8100019,33.7921201 67.1296296,33.4698 L77.0143519,23.5008667 C77.3298055,23.180734 77.4586358,22.718955 77.3549547,22.2800109 C77.2512737,21.8410667 76.9298201,21.4873558 76.5050926,21.3448667 C71.1726934,19.6153225 65.601559,18.7507017 60,18.7833333 C38.1018519,18.4907333 16.2037037,33.9266667 3.02916667,48.5515333 C-0.800721167,52.7575578 -0.816181009,59.2135876 2.99351852,63.4382 C8.25454277,69.2438048 14.1230839,74.4587983 20.4967593,78.9922 C21.0134727,79.3521954 21.7113857,79.2896144 22.1569444,78.8433333 L37.6689815,63.1866667 Z" id="Shape" fill="#FFFFFF"></path>
                    </g>
                </g>
                <g id="DUMBBELL" transform="translate(161.000000, 1.000000)">
                    <path d="M108.125735,30.929075 L99.7999578,22.6032776 L106.058745,16.3468355 C106.612118,15.7940504 106.923219,15.0450078 106.923219,14.2615514 C106.923219,13.478095 106.612118,12.7290525 106.058941,12.1760707 L97.6792817,3.79639098 C96.5731242,2.69023078 94.6142912,2.69023078 93.5081337,3.79639098 L87.2517066,10.0551929 L78.9247492,1.72782224 C76.6209917,-0.575940746 72.8856206,-0.575940746 70.5816665,1.72782224 C68.2775157,4.03158522 68.2775157,7.76696532 70.5816665,10.070925 L99.7824559,39.2721778 C102.086607,41.5759407 105.821978,41.5759407 108.125735,39.2721778 C110.429493,36.9684148 110.429493,33.2330347 108.125735,30.929075 Z" id="Path" fill="#FFFFFF"></path>
                    <path d="M40.1254403,99.9289267 L10.9246508,70.727814 C8.62050008,68.424062 4.88552224,68.424062 2.58137148,70.727814 C0.277614026,73.0319592 0.277614026,76.7673214 2.58137148,79.0710733 L10.9085255,87.3982074 L4.66193093,93.6422305 C4.10875383,94.1954063 3.79765316,94.9442486 3.79765316,95.7277012 C3.79765316,96.5111539 4.10875383,97.2601928 4.66193093,97.8131719 L13.0415906,106.190058 C13.6175791,106.766439 14.3723227,107.054531 15.1270663,107.054531 C15.8818099,107.054531 16.6365535,106.766439 17.212542,106.190255 L23.4565801,99.9462319 L31.7823576,108.272186 C34.0861151,110.575938 37.8214862,110.575938 40.1254403,108.272186 C42.4295911,105.968041 42.4295911,102.232679 40.1254403,99.9289267 Z" id="Path" fill="#FFFFFF"></path>
                    <polygon id="Path" fill="#FFFFFF" points="65.9698334 38 39.8535534 64.11628 45.7372734 70 71.8535534 43.88372"></polygon>
                    <path d="M99.137473,46.9989469 L61.8546244,9.71580115 C59.5669078,7.42806628 55.8573504,7.42806628 53.5696338,9.71580115 C51.2815266,12.0039266 51.2815266,15.7129277 53.5696338,18.0010531 L90.8524823,55.2841989 C93.140199,57.5719337 96.8495611,57.5719337 99.137473,55.2841989 C101.42558,52.996464 101.42558,49.2870723 99.137473,46.9989469 Z" id="Path" fill="#E69E3F"></path>
                    <path d="M57.137473,90.9991422 L19.8544292,53.7158011 C17.5667125,51.4280663 13.8573504,51.4280663 11.5696338,53.7158011 C9.28152659,56.0039266 9.28152659,59.7133183 11.5696338,62.0010531 L48.8524823,99.2841989 C51.140199,101.571934 54.8495611,101.571934 57.137473,99.2841989 C59.4255802,96.996464 59.4255802,93.2870723 57.137473,90.9991422 Z" id="Path" fill="#E69E3F"></path>
                </g>
            </g>
        </g>
    </g>
</svg>