<?xml version="1.0" encoding="UTF-8"?>
<svg width="300px" height="160px" viewBox="0 0 300 160" version="1.1" xmlns="http://www.w3.org/2000/svg" xmlns:xlink="http://www.w3.org/1999/xlink">
    <!-- Generator: Sketch 61.2 (89653) - https://sketch.com -->
    <title>DDef5 Copy 3</title>
    <desc>Created with Sketch.</desc>
    <g id="DDef5-Copy-3" stroke="none" stroke-width="1" fill="none" fill-rule="evenodd">
        <rect fill="#0B0B0B" x="0" y="0" width="300" height="160"></rect>
        <path d="M145.37994,33.9010989 L145.37994,23.3076923 L142.608809,23.3076923 L142.608809,33.9010989 L145.37994,33.9010989 Z M143.994374,39 C145.128019,39 145.988749,38.1428571 145.988749,36.9120879 C145.988749,35.6813187 145.128019,34.8241758 143.994374,34.8241758 C142.86073,34.8241758 142,35.6813187 142,36.9120879 C142,38.1428571 142.86073,39 143.994374,39 Z M154.864297,33.9010989 L154.864297,33.3296703 C154.864297,32.6923077 155.032245,32.4065934 155.536087,32.1648352 L155.913968,31.989011 C157.404501,31.3076923 159,30.2527473 159,27.6593407 L159,27.5714286 C159,24.8461538 156.774698,23 153.793633,23 C150.770582,23 148.377333,24.8461538 148.377333,27.8791209 L148.377333,28.5384615 L151.148463,28.5384615 L151.148463,28.010989 C151.148463,26.5164835 152.282108,25.7252747 153.793633,25.7252747 C155.263172,25.7252747 156.228869,26.5164835 156.228869,27.7032967 C156.228869,28.8021978 155.55708,29.2857143 154.297475,29.8791209 L153.919594,30.0549451 C152.597009,30.6703297 152.093167,31.6153846 152.093167,33.1098901 L152.093167,33.9010989 L154.864297,33.9010989 Z M153.478732,39 C154.612377,39 155.473106,38.1428571 155.473106,36.9120879 C155.473106,35.6813187 154.612377,34.8241758 153.478732,34.8241758 C152.345088,34.8241758 151.484358,35.6813187 151.484358,36.9120879 C151.484358,38.1428571 152.345088,39 153.478732,39 Z" id="!?" fill="#E69E3F" fill-rule="nonzero"></path>
        <g id="Group" transform="translate(119.000000, 50.000000)" fill-rule="nonzero">
            <g id="Bold" transform="translate(0.000000, 0.500000)">
                <path d="M7.24842105,43.7190698 C8.18791192,44.3209997 9.32957818,44.526866 10.4218573,44.2913066 C11.5141364,44.0557473 12.4673926,43.398093 13.0715789,42.4632558 C14.1220351,40.7879924 14.9593109,38.9895977 15.5642105,37.1093023 C19.3583568,41.7019889 25.0220626,44.3638189 31,44.3638189 C36.9779374,44.3638189 42.6416432,41.7019889 46.4357895,37.1093023 C47.0387686,38.9903411 47.876152,40.7889671 48.9284211,42.4632558 C49.7437387,43.7202491 51.1716429,44.4493209 52.6742559,44.3758368 C54.1768688,44.3023528 55.525908,43.4374769 56.2132032,42.1069996 C56.9004985,40.7765223 56.8216335,39.1825747 56.0063158,37.9255814 C54.108388,34.7517078 53.1740238,31.0999447 53.3157895,27.4102326 L53.3157895,22.1860465 C53.3157897,14.2597354 49.0624243,6.93552177 42.1578949,2.97236615 C35.2533655,-0.990789479 26.7466345,-0.990789479 19.8421051,2.97236615 C12.9375757,6.93552177 8.68421032,14.2597354 8.68421053,22.1860465 L8.68421053,27.4102326 C8.82770162,31.1019982 7.89168364,34.7559631 5.98947368,37.9297674 C5.38363405,38.8632879 5.17590436,39.997952 5.41204063,41.0838308 C5.64817689,42.1697096 6.30880884,43.1177283 7.24842105,43.7190698 Z M31,36.0000066 C24.7215286,36.0065818 19.5493005,31.1005067 19.2610526,24.8651163 C19.227568,24.6665996 19.1797246,24.4707426 19.1178947,24.2790698 C23.7258711,23.0468118 27.8616063,20.4810121 31,16.9074419 C34.1383937,20.4810121 38.2741289,23.0468118 42.8821053,24.2790698 C42.8195702,24.4648481 42.7717058,24.6551928 42.7389474,24.8483721 C42.4594299,31.090355 37.2847016,36.0061828 31,36.0000066 Z" id="Shape" fill="#FFFFFF"></path>
                <path d="M3.58526316,71.1627907 L58.4147368,71.1627907 C59.454892,71.1627907 60.4282706,70.6532905 61.0172271,69.8009227 C61.6061836,68.9485549 61.7351743,67.8625135 61.3621053,66.8972093 C56.578463,54.3549745 44.4920763,46.0603459 31,46.0603459 C17.5079237,46.0603459 5.42153705,54.3549745 0.637894737,66.8972093 C0.264825728,67.8625135 0.393816422,68.9485549 0.982772913,69.8009227 C1.5717294,70.6532905 2.54510796,71.1627907 3.58526316,71.1627907 Z" id="Shape" fill="#E69E3F"></path>
            </g>
        </g>
        <g id="Group-Copy-3" transform="translate(72.646447, 86.500000) scale(1, -1) rotate(-315.000000) translate(-72.646447, -86.500000) translate(36.646447, 51.000000)" fill="#E69E3F" fill-rule="nonzero">
            <g id="Bold" transform="translate(0.353553, 0.353553)">
                <path d="M5.9760012,0 C3.1129569,0 0.792000914,2.31434357 0.792000914,5.16923105 C0.792000914,8.02411853 3.1129569,10.3384621 5.9760012,10.3384621 C36.023755,10.372646 60.3737226,34.6532405 60.4080042,64.6153881 C60.4080042,67.4702756 62.7289602,69.7846192 65.5920045,69.7846192 C68.4550488,69.7846192 70.7760047,67.4702756 70.7760047,64.6153881 C70.7331575,28.947007 41.746292,0.042725198 5.9760012,0 Z" id="Shape" fill-opacity="0.199956294"></path>
                <path d="M5.9760012,31.0153863 C24.5763159,31.0381717 39.6491525,46.0680658 39.672003,64.6153881 C39.672003,67.4702756 41.992959,69.7846192 44.8560033,69.7846192 C47.7190476,69.7846192 50.0400036,67.4702756 50.0400036,64.6153881 C50.0114375,40.3606531 30.3000354,20.705409 5.9760012,20.6769242 C3.1129569,20.6769242 0.792000914,22.9912678 0.792000914,25.8461553 C0.792000914,28.7010427 3.1129569,31.0153863 5.9760012,31.0153863 Z" id="Shape" fill-opacity="0.199956294"></path>
                <path d="M5.9760012,51.6923105 C13.1336119,51.6923105 18.9360019,57.4781695 18.9360019,64.6153881 C18.936002,67.4702755 21.256958,69.784619 24.1200022,69.784619 C26.9830464,69.784619 29.3040025,67.4702755 29.3040025,64.6153881 C29.2897176,51.7742992 18.8537789,41.3680926 5.9760012,41.3538484 C3.1129569,41.3538484 0.792000914,43.668192 0.792000914,46.5230795 C0.792000914,49.3779669 3.1129569,51.6923105 5.9760012,51.6923105 Z" id="Shape"></path>
            </g>
        </g>
        <g id="Group-Copy-4" transform="translate(227.000000, 86.500000) scale(-1, -1) rotate(-315.000000) translate(-227.000000, -86.500000) translate(191.000000, 51.000000)" fill="#E69E3F" fill-rule="nonzero">
            <g id="Bold" transform="translate(0.353553, 0.353553)">
                <path d="M5.9760012,0 C3.1129569,0 0.792000914,2.31434357 0.792000914,5.16923105 C0.792000914,8.02411853 3.1129569,10.3384621 5.9760012,10.3384621 C36.023755,10.372646 60.3737226,34.6532405 60.4080042,64.6153881 C60.4080042,67.4702756 62.7289602,69.7846192 65.5920045,69.7846192 C68.4550488,69.7846192 70.7760047,67.4702756 70.7760047,64.6153881 C70.7331575,28.947007 41.746292,0.042725198 5.9760012,0 Z" id="Shape" fill-opacity="0.199956294"></path>
                <path d="M5.9760012,31.0153863 C24.5763159,31.0381717 39.6491525,46.0680658 39.672003,64.6153881 C39.672003,67.4702756 41.992959,69.7846192 44.8560033,69.7846192 C47.7190476,69.7846192 50.0400036,67.4702756 50.0400036,64.6153881 C50.0114375,40.3606531 30.3000354,20.705409 5.9760012,20.6769242 C3.1129569,20.6769242 0.792000914,22.9912678 0.792000914,25.8461553 C0.792000914,28.7010427 3.1129569,31.0153863 5.9760012,31.0153863 Z" id="Shape" fill-opacity="0.199956294"></path>
                <path d="M5.9760012,51.6923105 C13.1336119,51.6923105 18.9360019,57.4781695 18.9360019,64.6153881 C18.936002,67.4702755 21.256958,69.784619 24.1200022,69.784619 C26.9830464,69.784619 29.3040025,67.4702755 29.3040025,64.6153881 C29.2897176,51.7742992 18.8537789,41.3680926 5.9760012,41.3538484 C3.1129569,41.3538484 0.792000914,43.668192 0.792000914,46.5230795 C0.792000914,49.3779669 3.1129569,51.6923105 5.9760012,51.6923105 Z" id="Shape"></path>
            </g>
        </g>
    </g>
</svg>