<?xml version="1.0" encoding="UTF-8"?>
<svg width="300px" height="160px" viewBox="0 0 300 160" version="1.1" xmlns="http://www.w3.org/2000/svg" xmlns:xlink="http://www.w3.org/1999/xlink">
    <!-- Generator: Sketch 61.2 (89653) - https://sketch.com -->
    <title>RFindSVG1</title>
    <desc>Created with Sketch.</desc>
    <g id="RFindSVG1" stroke="none" stroke-width="1" fill="none" fill-rule="evenodd">
        <rect fill="#0B0B0B" x="0" y="0" width="300" height="160"></rect>
        <g id="Group-2" transform="translate(0.000000, 44.000000)" fill-rule="nonzero">
            <g id="smiling">
                <circle id="Oval" fill="#FFFFFF" cx="36.1799969" cy="36.1799969" r="36.1799969"></circle>
                <g id="Group" transform="translate(13.499999, 18.359998)" fill="#0B0B0B">
                    <path d="M43.053843,11.244799 C41.8058072,11.244799 40.7929086,10.2412791 40.7929086,9.00479922 C40.7929086,6.53631944 38.7671114,4.52479961 36.2710399,4.52479961 C33.7749683,4.52479961 31.7491711,6.53631944 31.7491711,9.00479922 C31.7491711,10.2412791 30.7362725,11.244799 29.4882367,11.244799 C28.2402009,11.244799 27.2273023,10.2412791 27.2273023,9.00479922 C27.2273023,4.06335965 31.2834186,0.0447999961 36.2710399,0.0447999961 C41.2586611,0.0447999961 45.3147774,4.06335965 45.3147774,9.00479922 C45.3147774,10.2457591 44.3018788,11.244799 43.053843,11.244799 Z" id="Path"></path>
                    <path d="M15.9226304,11.244799 C14.6745946,11.244799 13.661696,10.2412791 13.661696,9.00479922 C13.661696,6.53631944 11.6313769,4.52479961 9.13982725,4.52479961 C6.64827756,4.52479961 4.61795848,6.53631944 4.61795848,9.00479922 C4.61795848,10.2412791 3.60505988,11.244799 2.3570241,11.244799 C1.10898832,11.244799 0.0960897114,10.2412791 0.0960897114,9.00479922 C0.0960897114,4.06335965 4.152206,0.0447999961 9.13982725,0.0447999961 C14.1274485,0.0447999961 18.1835648,4.06335965 18.1835648,9.00479922 C18.1835648,10.2457591 17.1706662,11.244799 15.9226304,11.244799 Z" id="Path"></path>
                </g>
                <path d="M61.6421971,41.4026604 C61.2124722,40.8356605 60.5475294,40.4999965 59.8418759,40.4999965 L11.9840915,40.4999965 C11.2739145,40.4999965 10.6089718,40.8311245 10.1837703,41.3981244 C9.74952196,41.9696604 9.61381936,42.6999563 9.803803,43.3848923 C13.0742357,55.0378753 23.812835,63.1799946 35.9084603,63.1799946 C48.0040856,63.1799946 58.7426848,55.0378753 62.0131175,43.3848923 C62.2076246,42.6999563 62.071922,41.9696604 61.6421971,41.4026604 Z" id="Path" fill="#0B0B0B"></path>
            </g>
            <path d="M107.561241,44.4824962 L99.3599914,36.2812469 L107.561241,28.0799976 L107.561241,34.8764032 L125.929677,34.8764032 L125.929677,28.0799976 L134.130926,36.2812469 L125.929677,44.4824962 L125.929677,37.6860905 L107.561241,37.6860905 L107.561241,44.4824962 Z" id="Combined-Shape" fill="#FFFFFF"></path>
            <g id="tired" transform="translate(160.919986, 0.000000)">
                <circle id="Oval" fill="#FFFFFF" cx="36.1799969" cy="36.1799969" r="36.1799969"></circle>
                <path d="M43.0649963,58.8599949 L29.2949975,58.8599949 C28.0281576,58.8599949 26.9999977,57.892315 26.9999977,56.6999951 C26.9999977,55.5076752 28.0281576,54.5399953 29.2949975,54.5399953 L43.0649963,54.5399953 C44.3318362,54.5399953 45.3599961,55.5076752 45.3599961,56.6999951 C45.3599961,57.892315 44.3318362,58.8599949 43.0649963,58.8599949 Z" id="Path" fill="#0B0B0B"></path>
                <g id="Group" fill="#E69E3F">
                    <path d="M29.5842832,13.6542845 L20.4814268,13.6542845 C19.2252326,13.6542845 18.2057127,12.6347646 18.2057127,11.3785704 L18.2057127,2.27571409 C18.2057127,1.01951991 19.2252326,0 20.4814268,0 C21.737621,0 22.7571409,1.01951991 22.7571409,2.27571409 L22.7571409,9.10285636 L29.5842832,9.10285636 C30.8404773,9.10285636 31.8599973,10.1223763 31.8599973,11.3785704 C31.8599973,12.6347646 30.8404773,13.6542845 29.5842832,13.6542845 Z" id="Path"></path>
                    <path d="M20.4814268,31.8599973 C19.2252326,31.8599973 18.2057127,30.8404773 18.2057127,29.5842832 L18.2057127,20.4814268 C18.2057127,19.2252326 19.2252326,18.2057127 20.4814268,18.2057127 L29.5842832,18.2057127 C30.8404773,18.2057127 31.8599973,19.2252326 31.8599973,20.4814268 C31.8599973,21.737621 30.8404773,22.7571409 29.5842832,22.7571409 L22.7571409,22.7571409 L22.7571409,29.5842832 C22.7571409,30.8404773 21.737621,31.8599973 20.4814268,31.8599973 Z" id="Path"></path>
                    <path d="M11.3785704,13.6542845 L2.27571409,13.6542845 C1.01951991,13.6542845 0,12.6347646 0,11.3785704 C0,10.1223763 1.01951991,9.10285636 2.27571409,9.10285636 L9.10285636,9.10285636 L9.10285636,2.27571409 C9.10285636,1.01951991 10.1223763,0 11.3785704,0 C12.6347646,0 13.6542845,1.01951991 13.6542845,2.27571409 L13.6542845,11.3785704 C13.6542845,12.6347646 12.6347646,13.6542845 11.3785704,13.6542845 Z" id="Path"></path>
                    <path d="M11.3785704,31.8599973 C10.1223763,31.8599973 9.10285636,30.8404773 9.10285636,29.5842832 L9.10285636,22.7571409 L2.27571409,22.7571409 C1.01951991,22.7571409 0,21.737621 0,20.4814268 C0,19.2252326 1.01951991,18.2057127 2.27571409,18.2057127 L11.3785704,18.2057127 C12.6347646,18.2057127 13.6542845,19.2252326 13.6542845,20.4814268 L13.6542845,29.5842832 C13.6542845,30.8404773 12.6347646,31.8599973 11.3785704,31.8599973 Z" id="Path"></path>
                </g>
                <g id="Group" transform="translate(16.199999, 36.179997)" fill="#0B0B0B">
                    <path d="M11.249999,4.31999963 L2.24999981,4.31999963 C1.00799991,4.31999963 0,3.35231971 0,2.15999981 C0,0.967679917 1.00799991,0 2.24999981,0 L11.249999,0 C12.4919989,0 13.5,0.967679917 13.5,2.15999981 C13.5,3.35231971 12.4919989,4.31999963 11.249999,4.31999963 Z" id="Path"></path>
                    <path d="M38.2499967,4.31999963 L29.2499975,4.31999963 C28.0079976,4.31999963 26.9999977,3.35231971 26.9999977,2.15999981 C26.9999977,0.967679917 28.0079976,0 29.2499975,0 L38.2499967,0 C39.4919966,0 40.4999977,0.967679917 40.4999977,2.15999981 C40.4999977,3.35231971 39.4919966,4.31999963 38.2499967,4.31999963 Z" id="Path"></path>
                </g>
            </g>
        </g>
    </g>
</svg>