<?xml version="1.0" encoding="UTF-8"?>
<svg width="300px" height="160px" viewBox="0 0 300 160" version="1.1" xmlns="http://www.w3.org/2000/svg" xmlns:xlink="http://www.w3.org/1999/xlink">
    <!-- Generator: Sketch 61.2 (89653) - https://sketch.com -->
    <title>RFindSVG2</title>
    <desc>Created with Sketch.</desc>
    <g id="RFindSVG2" stroke="none" stroke-width="1" fill="none" fill-rule="evenodd">
        <rect fill="#0B0B0B" x="0" y="0" width="300" height="160"></rect>
        <g id="Group-Copy" transform="translate(0.000000, 37.000000)">
            <path d="M19.2415994,22.9599982 C19.0301994,22.9599982 18.8185194,22.9015049 18.6328794,22.7842449 L12.3199991,18.7913919 L6.00711876,22.7842449 C5.61567874,23.0316116 5.10859871,23.0163049 4.7333987,22.7465249 C4.35819868,22.4764716 4.19383867,22.007705 4.32039868,21.5695517 L6.29691877,14.7312989 L0.39703849,9.86295924 C0.0492784737,9.57595927 -0.0859615327,9.11211264 0.055158474,8.689266 C0.196278481,8.2666927 0.585478499,7.96930606 1.03963852,7.93759939 L8.11635886,7.4404061 L11.301359,0.638779951 C11.483639,0.249553314 11.881799,0 12.3199991,0 C12.7581991,0 13.1563591,0.249553314 13.3386391,0.638779951 L16.5236393,7.4404061 L23.6003596,7.93759939 C24.0545196,7.96930606 24.4437196,8.2666927 24.5848396,8.689266 C24.7259596,9.11211264 24.5907196,9.57595927 24.2429596,9.86295924 L18.3430793,14.7312989 L20.3195994,21.5695517 C20.4461594,22.007705 20.2817994,22.4764716 19.9065994,22.7465249 C19.7094794,22.8883849 19.4759594,22.9599982 19.2415994,22.9599982" id="star" fill="#E69E3F"></path>
            <path d="M185.641589,22.9599982 C185.430189,22.9599982 185.218509,22.9015049 185.032869,22.7842449 L178.719989,18.7913919 L172.407109,22.7842449 C172.015669,23.0316116 171.508589,23.0163049 171.133389,22.7465249 C170.758189,22.4764716 170.593829,22.007705 170.720389,21.5695517 L172.696909,14.7312989 L166.797029,9.86295924 C166.449269,9.57595927 166.314029,9.11211264 166.455149,8.689266 C166.596269,8.2666927 166.985469,7.96930606 167.439629,7.93759939 L174.516349,7.4404061 L177.701349,0.638779951 C177.883629,0.249553314 178.281789,0 178.719989,0 C179.158189,0 179.556349,0.249553314 179.738629,0.638779951 L182.923629,7.4404061 L190.00035,7.93759939 C190.45451,7.96930606 190.84371,8.2666927 190.98483,8.689266 C191.12595,9.11211264 190.99071,9.57595927 190.64295,9.86295924 L184.743069,14.7312989 L186.71959,21.5695517 C186.84615,22.007705 186.68179,22.4764716 186.306589,22.7465249 C186.109469,22.8883849 185.875949,22.9599982 185.641589,22.9599982" id="star-copy-3" fill="#E69E3F"></path>
            <path d="M52.2815969,22.9599982 C52.0701968,22.9599982 51.8585168,22.9015049 51.6728768,22.7842449 L45.3599965,18.7913919 L39.0471162,22.7842449 C38.6556762,23.0316116 38.1485962,23.0163049 37.7733962,22.7465249 C37.3981961,22.4764716 37.2338361,22.007705 37.3603961,21.5695517 L39.3369162,14.7312989 L33.437036,9.86295924 C33.0892759,9.57595927 32.9540359,9.11211264 33.0951559,8.689266 C33.2362759,8.2666927 33.625476,7.96930606 34.079636,7.93759939 L41.1563563,7.4404061 L44.3413565,0.638779951 C44.5236365,0.249553314 44.9217965,0 45.3599965,0 C45.7981965,0 46.1963566,0.249553314 46.3786366,0.638779951 L49.5636367,7.4404061 L56.6403571,7.93759939 C57.0945171,7.96930606 57.4837171,8.2666927 57.6248371,8.689266 C57.7659571,9.11211264 57.6307171,9.57595927 57.2829571,9.86295924 L51.3830768,14.7312989 L53.3595969,21.5695517 C53.4861569,22.007705 53.3217969,22.4764716 52.9465969,22.7465249 C52.7494769,22.8883849 52.5159569,22.9599982 52.2815969,22.9599982" id="star-copy-4" fill="#FFFFFF" opacity="0.200823103"></path>
            <path d="M85.8815943,22.9599982 C85.6701943,22.9599982 85.4585143,22.9015049 85.2728742,22.7842449 L78.9599939,18.7913919 L72.6471136,22.7842449 C72.2556736,23.0316116 71.7485936,23.0163049 71.3733936,22.7465249 C70.9981936,22.4764716 70.8338336,22.007705 70.9603936,21.5695517 L72.9369137,14.7312989 L67.0370334,9.86295924 C66.6892734,9.57595927 66.5540334,9.11211264 66.6951534,8.689266 C66.8362734,8.2666927 67.2254734,7.96930606 67.6796334,7.93759939 L74.7563537,7.4404061 L77.9413539,0.638779951 C78.1236339,0.249553314 78.5217939,0 78.9599939,0 C79.398194,0 79.796354,0.249553314 79.978634,0.638779951 L83.1636341,7.4404061 L90.2403545,7.93759939 C90.6945145,7.96930606 91.0837145,8.2666927 91.2248345,8.689266 C91.3659545,9.11211264 91.2307145,9.57595927 90.8829545,9.86295924 L84.9830742,14.7312989 L86.9595943,21.5695517 C87.0861543,22.007705 86.9217943,22.4764716 86.5465943,22.7465249 C86.3494743,22.8883849 86.1159543,22.9599982 85.8815943,22.9599982" id="star-copy-8" fill="#FFFFFF" opacity="0.200823103"></path>
            <path d="M118.921592,22.9599982 C118.710192,22.9599982 118.498512,22.9015049 118.312872,22.7842449 L111.999991,18.7913919 L105.687111,22.7842449 C105.295671,23.0316116 104.788591,23.0163049 104.413391,22.7465249 C104.038191,22.4764716 103.873831,22.007705 104.000391,21.5695517 L105.976911,14.7312989 L100.077031,9.86295924 C99.7292708,9.57595927 99.5940308,9.11211264 99.7351508,8.689266 C99.8762708,8.2666927 100.265471,7.96930606 100.719631,7.93759939 L107.796351,7.4404061 L110.981351,0.638779951 C111.163631,0.249553314 111.561791,0 111.999991,0 C112.438191,0 112.836351,0.249553314 113.018631,0.638779951 L116.203632,7.4404061 L123.280352,7.93759939 C123.734512,7.96930606 124.123712,8.2666927 124.264832,8.689266 C124.405952,9.11211264 124.270712,9.57595927 123.922952,9.86295924 L118.023072,14.7312989 L119.999592,21.5695517 C120.126152,22.007705 119.961792,22.4764716 119.586592,22.7465249 C119.389472,22.8883849 119.155952,22.9599982 118.921592,22.9599982" id="star-copy-12" fill="#FFFFFF" opacity="0.200823103"></path>
            <path d="M152.841591,22.9599982 C152.630191,22.9599982 152.418511,22.9015049 152.232871,22.7842449 L145.919991,18.7913919 L139.607111,22.7842449 C139.215671,23.0316116 138.708591,23.0163049 138.333391,22.7465249 C137.958191,22.4764716 137.793831,22.007705 137.920391,21.5695517 L139.896911,14.7312989 L133.997031,9.86295924 C133.649271,9.57595927 133.514031,9.11211264 133.655151,8.689266 C133.796271,8.2666927 134.185471,7.96930606 134.639631,7.93759939 L141.716351,7.4404061 L144.901351,0.638779951 C145.083631,0.249553314 145.481791,0 145.919991,0 C146.358191,0 146.756351,0.249553314 146.938631,0.638779951 L150.123631,7.4404061 L157.200352,7.93759939 C157.654512,7.96930606 158.043712,8.2666927 158.184832,8.689266 C158.325952,9.11211264 158.190712,9.57595927 157.842952,9.86295924 L151.943071,14.7312989 L153.919591,21.5695517 C154.046151,22.007705 153.881791,22.4764716 153.506591,22.7465249 C153.309471,22.8883849 153.075951,22.9599982 152.841591,22.9599982" id="star-copy-15" fill="#FFFFFF" opacity="0.200823103"></path>
            <path d="M19.2415994,54.8799958 C19.0301994,54.8799958 18.8185194,54.8215025 18.6328794,54.7042425 L12.3199991,50.7113894 L6.00711876,54.7042425 C5.61567874,54.9516091 5.10859871,54.9363025 4.7333987,54.6665225 C4.35819868,54.3964692 4.19383867,53.9277025 4.32039868,53.4895492 L6.29691877,46.6512964 L0.39703849,41.7829568 C0.0492784737,41.4959568 -0.0859615327,41.0321102 0.055158474,40.6092636 C0.196278481,40.1866903 0.585478499,39.8893036 1.03963852,39.8575969 L8.11635886,39.3604037 L11.301359,32.5587775 C11.483639,32.1695509 11.881799,31.9199976 12.3199991,31.9199976 C12.7581991,31.9199976 13.1563591,32.1695509 13.3386391,32.5587775 L16.5236393,39.3604037 L23.6003596,39.8575969 C24.0545196,39.8893036 24.4437196,40.1866903 24.5848396,40.6092636 C24.7259596,41.0321102 24.5907196,41.4959568 24.2429596,41.7829568 L18.3430793,46.6512964 L20.3195994,53.4895492 C20.4461594,53.9277025 20.2817994,54.3964692 19.9065994,54.6665225 C19.7094794,54.8083825 19.4759594,54.8799958 19.2415994,54.8799958" id="star-copy" fill="#FFFFFF" opacity="0.200823103"></path>
            <path d="M185.641589,54.8799958 C185.430189,54.8799958 185.218509,54.8215025 185.032869,54.7042425 L178.719989,50.7113894 L172.407109,54.7042425 C172.015669,54.9516091 171.508589,54.9363025 171.133389,54.6665225 C170.758189,54.3964692 170.593829,53.9277025 170.720389,53.4895492 L172.696909,46.6512964 L166.797029,41.7829568 C166.449269,41.4959568 166.314029,41.0321102 166.455149,40.6092636 C166.596269,40.1866903 166.985469,39.8893036 167.439629,39.8575969 L174.516349,39.3604037 L177.701349,32.5587775 C177.883629,32.1695509 178.281789,31.9199976 178.719989,31.9199976 C179.158189,31.9199976 179.556349,32.1695509 179.738629,32.5587775 L182.923629,39.3604037 L190.00035,39.8575969 C190.45451,39.8893036 190.84371,40.1866903 190.98483,40.6092636 C191.12595,41.0321102 190.99071,41.4959568 190.64295,41.7829568 L184.743069,46.6512964 L186.71959,53.4895492 C186.84615,53.9277025 186.68179,54.3964692 186.306589,54.6665225 C186.109469,54.8083825 185.875949,54.8799958 185.641589,54.8799958" id="star-copy-7" fill="#FFFFFF" opacity="0.200823103"></path>
            <path d="M52.2815969,54.8799958 C52.0701968,54.8799958 51.8585168,54.8215025 51.6728768,54.7042425 L45.3599965,50.7113894 L39.0471162,54.7042425 C38.6556762,54.9516091 38.1485962,54.9363025 37.7733962,54.6665225 C37.3981961,54.3964692 37.2338361,53.9277025 37.3603961,53.4895492 L39.3369162,46.6512964 L33.437036,41.7829568 C33.0892759,41.4959568 32.9540359,41.0321102 33.0951559,40.6092636 C33.2362759,40.1866903 33.625476,39.8893036 34.079636,39.8575969 L41.1563563,39.3604037 L44.3413565,32.5587775 C44.5236365,32.1695509 44.9217965,31.9199976 45.3599965,31.9199976 C45.7981965,31.9199976 46.1963566,32.1695509 46.3786366,32.5587775 L49.5636367,39.3604037 L56.6403571,39.8575969 C57.0945171,39.8893036 57.4837171,40.1866903 57.6248371,40.6092636 C57.7659571,41.0321102 57.6307171,41.4959568 57.2829571,41.7829568 L51.3830768,46.6512964 L53.3595969,53.4895492 C53.4861569,53.9277025 53.3217969,54.3964692 52.9465969,54.6665225 C52.7494769,54.8083825 52.5159569,54.8799958 52.2815969,54.8799958" id="star-copy-5" fill="#FFFFFF" opacity="0.200823103"></path>
            <path d="M118.921592,54.8799958 C118.710192,54.8799958 118.498512,54.8215025 118.312872,54.7042425 L111.999991,50.7113894 L105.687111,54.7042425 C105.295671,54.9516091 104.788591,54.9363025 104.413391,54.6665225 C104.038191,54.3964692 103.873831,53.9277025 104.000391,53.4895492 L105.976911,46.6512964 L100.077031,41.7829568 C99.7292708,41.4959568 99.5940308,41.0321102 99.7351508,40.6092636 C99.8762708,40.1866903 100.265471,39.8893036 100.719631,39.8575969 L107.796351,39.3604037 L110.981351,32.5587775 C111.163631,32.1695509 111.561791,31.9199976 111.999991,31.9199976 C112.438191,31.9199976 112.836351,32.1695509 113.018631,32.5587775 L116.203632,39.3604037 L123.280352,39.8575969 C123.734512,39.8893036 124.123712,40.1866903 124.264832,40.6092636 C124.405952,41.0321102 124.270712,41.4959568 123.922952,41.7829568 L118.023072,46.6512964 L119.999592,53.4895492 C120.126152,53.9277025 119.961792,54.3964692 119.586592,54.6665225 C119.389472,54.8083825 119.155952,54.8799958 118.921592,54.8799958" id="star-copy-13" fill="#E69E3F"></path>
            <path d="M152.841591,54.8799958 C152.630191,54.8799958 152.418511,54.8215025 152.232871,54.7042425 L145.919991,50.7113894 L139.607111,54.7042425 C139.215671,54.9516091 138.708591,54.9363025 138.333391,54.6665225 C137.958191,54.3964692 137.793831,53.9277025 137.920391,53.4895492 L139.896911,46.6512964 L133.997031,41.7829568 C133.649271,41.4959568 133.514031,41.0321102 133.655151,40.6092636 C133.796271,40.1866903 134.185471,39.8893036 134.639631,39.8575969 L141.716351,39.3604037 L144.901351,32.5587775 C145.083631,32.1695509 145.481791,31.9199976 145.919991,31.9199976 C146.358191,31.9199976 146.756351,32.1695509 146.938631,32.5587775 L150.123631,39.3604037 L157.200352,39.8575969 C157.654512,39.8893036 158.043712,40.1866903 158.184832,40.6092636 C158.325952,41.0321102 158.190712,41.4959568 157.842952,41.7829568 L151.943071,46.6512964 L153.919591,53.4895492 C154.046151,53.9277025 153.881791,54.3964692 153.506591,54.6665225 C153.309471,54.8083825 153.075951,54.8799958 152.841591,54.8799958" id="star-copy-17" fill="#3B3B3B"></path>
            <path d="M19.2415994,86.2399934 C19.0301994,86.2399934 18.8185194,86.1815001 18.6328794,86.0642401 L12.3199991,82.071387 L6.00711876,86.0642401 C5.61567874,86.3116067 5.10859871,86.2963001 4.7333987,86.0265201 C4.35819868,85.7564668 4.19383867,85.2877001 4.32039868,84.8495468 L6.29691877,78.011294 L0.39703849,73.1429544 C0.0492784737,72.8559544 -0.0859615327,72.3921078 0.055158474,71.9692612 C0.196278481,71.5466879 0.585478499,71.2493012 1.03963852,71.2175945 L8.11635886,70.7204012 L11.301359,63.9187751 C11.483639,63.5295485 11.881799,63.2799952 12.3199991,63.2799952 C12.7581991,63.2799952 13.1563591,63.5295485 13.3386391,63.9187751 L16.5236393,70.7204012 L23.6003596,71.2175945 C24.0545196,71.2493012 24.4437196,71.5466879 24.5848396,71.9692612 C24.7259596,72.3921078 24.5907196,72.8559544 24.2429596,73.1429544 L18.3430793,78.011294 L20.3195994,84.8495468 C20.4461594,85.2877001 20.2817994,85.7564668 19.9065994,86.0265201 C19.7094794,86.1683801 19.4759594,86.2399934 19.2415994,86.2399934" id="star-copy-2" fill="#FFFFFF" opacity="0.200823103"></path>
            <path d="M185.641589,86.2399934 C185.430189,86.2399934 185.218509,86.1815001 185.032869,86.0642401 L178.719989,82.071387 L172.407109,86.0642401 C172.015669,86.3116067 171.508589,86.2963001 171.133389,86.0265201 C170.758189,85.7564668 170.593829,85.2877001 170.720389,84.8495468 L172.696909,78.011294 L166.797029,73.1429544 C166.449269,72.8559544 166.314029,72.3921078 166.455149,71.9692612 C166.596269,71.5466879 166.985469,71.2493012 167.439629,71.2175945 L174.516349,70.7204012 L177.701349,63.9187751 C177.883629,63.5295485 178.281789,63.2799952 178.719989,63.2799952 C179.158189,63.2799952 179.556349,63.5295485 179.738629,63.9187751 L182.923629,70.7204012 L190.00035,71.2175945 C190.45451,71.2493012 190.84371,71.5466879 190.98483,71.9692612 C191.12595,72.3921078 190.99071,72.8559544 190.64295,73.1429544 L184.743069,78.011294 L186.71959,84.8495468 C186.84615,85.2877001 186.68179,85.7564668 186.306589,86.0265201 C186.109469,86.1683801 185.875949,86.2399934 185.641589,86.2399934" id="star-copy-9" fill="#FFFFFF" opacity="0.200823103"></path>
            <path d="M52.2815969,86.2399934 C52.0701968,86.2399934 51.8585168,86.1815001 51.6728768,86.0642401 L45.3599965,82.071387 L39.0471162,86.0642401 C38.6556762,86.3116067 38.1485962,86.2963001 37.7733962,86.0265201 C37.3981961,85.7564668 37.2338361,85.2877001 37.3603961,84.8495468 L39.3369162,78.011294 L33.437036,73.1429544 C33.0892759,72.8559544 32.9540359,72.3921078 33.0951559,71.9692612 C33.2362759,71.5466879 33.625476,71.2493012 34.079636,71.2175945 L41.1563563,70.7204012 L44.3413565,63.9187751 C44.5236365,63.5295485 44.9217965,63.2799952 45.3599965,63.2799952 C45.7981965,63.2799952 46.1963566,63.5295485 46.3786366,63.9187751 L49.5636367,70.7204012 L56.6403571,71.2175945 C57.0945171,71.2493012 57.4837171,71.5466879 57.6248371,71.9692612 C57.7659571,72.3921078 57.6307171,72.8559544 57.2829571,73.1429544 L51.3830768,78.011294 L53.3595969,84.8495468 C53.4861569,85.2877001 53.3217969,85.7564668 52.9465969,86.0265201 C52.7494769,86.1683801 52.5159569,86.2399934 52.2815969,86.2399934" id="star-copy-6" fill="#E69E3F"></path>
            <path d="M85.8815943,86.2399934 C85.6701943,86.2399934 85.4585143,86.1815001 85.2728742,86.0642401 L78.9599939,82.071387 L72.6471136,86.0642401 C72.2556736,86.3116067 71.7485936,86.2963001 71.3733936,86.0265201 C70.9981936,85.7564668 70.8338336,85.2877001 70.9603936,84.8495468 L72.9369137,78.011294 L67.0370334,73.1429544 C66.6892734,72.8559544 66.5540334,72.3921078 66.6951534,71.9692612 C66.8362734,71.5466879 67.2254734,71.2493012 67.6796334,71.2175945 L74.7563537,70.7204012 L77.9413539,63.9187751 C78.1236339,63.5295485 78.5217939,63.2799952 78.9599939,63.2799952 C79.398194,63.2799952 79.796354,63.5295485 79.978634,63.9187751 L83.1636341,70.7204012 L90.2403545,71.2175945 C90.6945145,71.2493012 91.0837145,71.5466879 91.2248345,71.9692612 C91.3659545,72.3921078 91.2307145,72.8559544 90.8829545,73.1429544 L84.9830742,78.011294 L86.9595943,84.8495468 C87.0861543,85.2877001 86.9217943,85.7564668 86.5465943,86.0265201 C86.3494743,86.1683801 86.1159543,86.2399934 85.8815943,86.2399934" id="star-copy-10" fill="#FFFFFF" opacity="0.200823103"></path>
            <path d="M118.921592,86.2399934 C118.710192,86.2399934 118.498512,86.1815001 118.312872,86.0642401 L111.999991,82.071387 L105.687111,86.0642401 C105.295671,86.3116067 104.788591,86.2963001 104.413391,86.0265201 C104.038191,85.7564668 103.873831,85.2877001 104.000391,84.8495468 L105.976911,78.011294 L100.077031,73.1429544 C99.7292708,72.8559544 99.5940308,72.3921078 99.7351508,71.9692612 C99.8762708,71.5466879 100.265471,71.2493012 100.719631,71.2175945 L107.796351,70.7204012 L110.981351,63.9187751 C111.163631,63.5295485 111.561791,63.2799952 111.999991,63.2799952 C112.438191,63.2799952 112.836351,63.5295485 113.018631,63.9187751 L116.203632,70.7204012 L123.280352,71.2175945 C123.734512,71.2493012 124.123712,71.5466879 124.264832,71.9692612 C124.405952,72.3921078 124.270712,72.8559544 123.922952,73.1429544 L118.023072,78.011294 L119.999592,84.8495468 C120.126152,85.2877001 119.961792,85.7564668 119.586592,86.0265201 C119.389472,86.1683801 119.155952,86.2399934 118.921592,86.2399934" id="star-copy-14" fill="#FFFFFF" opacity="0.200823103"></path>
            <path d="M152.841591,86.2399934 C152.630191,86.2399934 152.418511,86.1815001 152.232871,86.0642401 L145.919991,82.071387 L139.607111,86.0642401 C139.215671,86.3116067 138.708591,86.2963001 138.333391,86.0265201 C137.958191,85.7564668 137.793831,85.2877001 137.920391,84.8495468 L139.896911,78.011294 L133.997031,73.1429544 C133.649271,72.8559544 133.514031,72.3921078 133.655151,71.9692612 C133.796271,71.5466879 134.185471,71.2493012 134.639631,71.2175945 L141.716351,70.7204012 L144.901351,63.9187751 C145.083631,63.5295485 145.481791,63.2799952 145.919991,63.2799952 C146.358191,63.2799952 146.756351,63.5295485 146.938631,63.9187751 L150.123631,70.7204012 L157.200352,71.2175945 C157.654512,71.2493012 158.043712,71.5466879 158.184832,71.9692612 C158.325952,72.3921078 158.190712,72.8559544 157.842952,73.1429544 L151.943071,78.011294 L153.919591,84.8495468 C154.046151,85.2877001 153.881791,85.7564668 153.506591,86.0265201 C153.309471,86.1683801 153.075951,86.2399934 152.841591,86.2399934" id="star-copy-18" fill="#E69E3F"></path>
            <path d="M85.8815943,54.8799958 C85.6701943,54.8799958 85.4585143,54.8215025 85.2728742,54.7042425 L78.9599939,50.7113894 L72.6471136,54.7042425 C72.2556736,54.9516091 71.7485936,54.9363025 71.3733936,54.6665225 C70.9981936,54.3964692 70.8338336,53.9277025 70.9603936,53.4895492 L72.9369137,46.6512964 L67.0370334,41.7829568 C66.6892734,41.4959568 66.5540334,41.0321102 66.6951534,40.6092636 C66.8362734,40.1866903 67.2254734,39.8893036 67.6796334,39.8575969 L74.7563537,39.3604037 L77.9413539,32.5587775 C78.1236339,32.1695509 78.5217939,31.9199976 78.9599939,31.9199976 C79.398194,31.9199976 79.796354,32.1695509 79.978634,32.5587775 L83.1636341,39.3604037 L90.2403545,39.8575969 C90.6945145,39.8893036 91.0837145,40.1866903 91.2248345,40.6092636 C91.3659545,41.0321102 91.2307145,41.4959568 90.8829545,41.7829568 L84.9830742,46.6512964 L86.9595943,53.4895492 C87.0861543,53.9277025 86.9217943,54.3964692 86.5465943,54.6665225 C86.3494743,54.8083825 86.1159543,54.8799958 85.8815943,54.8799958" id="star-copy-16" fill="#E69E3F"></path>
        </g>
    </g>
</svg>